<?xml version="1.0" standalone="no"?>
<!DOCTYPE svg PUBLIC "-//W3C//DTD SVG 1.1//EN" "http://www.w3.org/Graphics/SVG/1.1/DTD/svg11.dtd" >
<svg xmlns="http://www.w3.org/2000/svg" xmlns:xlink="http://www.w3.org/1999/xlink" version="1.1">
<metadata>
Created by FontForge 20190801 at Mon Aug 25 19:11:10 2008
 By Jimmy Wärting
KhmerOS - font for the Khmer language of Cambodia
Copyright 2008 Danh Hong
 
This font is free software; you can redistribute it and/or modify it under the terms of the GNU Lesser General Public License as published by the Free Software Foundation; either version 2.1 of the License, or (at your option) any later version.

This library is distributed in the hope that it will be useful, but WITHOUT ANY WARRANTY; without even the implied warranty of MERCHANTABILITY or FITNESS FOR A PARTICULAR PURPOSE.? See the GNU Lesser General Public License for more details.

You should have received a copy of the GNU Lesser General Public License along with this font; if not, write to the Free Software Foundation, Inc., 51 Franklin Street, Fifth Floor, Boston, MA 02110-1301  USA or visit http://www.gnu.org/licenses/lgpl.html
</metadata>
<defs>
<font id="Kh-Muol-Pali" horiz-adv-x="0" >
  <font-face 
    font-family="Kh Muol Pali"
    font-weight="400"
    font-stretch="normal"
    units-per-em="2048"
    panose-1="2 0 5 0 0 0 0 2 0 4"
    ascent="1638"
    descent="-410"
    x-height="1140"
    cap-height="1500"
    bbox="-4550 -1600 5450 2950"
    underline-thickness="48"
    underline-position="-188"
    unicode-range="U+0020-25CC"
  />
<missing-glyph horiz-adv-x="1536" 
d="M256 0v1280h1024v-1280h-1024zM288 32h960v1216h-960v-1216z" />
    <glyph glyph-name="uni17D2_uni1780.liga" unicode="&#x17d2;&#x1780;" 
d="M150 -850q0 -100 -81 -100q-82 0 -175.5 40t-93.5 123t75 125t75 102v58l-380 199l-370 -199v-348q0 -100 -81 -100q-82 0 -175.5 30t-93.5 113t75 135t75 112v58l-380 199l-370 -199v-78q0 -40 103.5 -97t63.5 -165t-135 -108t-163.5 75t-68.5 215v208q0 78 71 117
l499 235l480 -224l470 224l499 -235q81 -39 81 -117v-398z" />
    <glyph glyph-name="uni17D2_uni1781.liga" unicode="&#x17d2;&#x1781;" 
d="M-1400 -321q0 119 147.5 180t352.5 61q206 0 353 -58t147 -211q0 -122 -524 -396l72 -44l362 257q16 -114 -139.5 -264.5t-230.5 -153.5q-75 0 -222.5 137.5t-17.5 194.5q500 204 500 269q0 96 -300 96t-300 -68q0 -73 48 -73q0 68 87.5 78.5t116 -42.5t-25.5 -120.5
t-178 -67.5q-248 0 -248 225z" />
    <glyph glyph-name="uni17D2_uni1782.liga" unicode="&#x17d2;&#x1782;" 
d="M-1400 -372q0 57 63 86l437 186l438 -186q62 -29 62 -86v-504q0 -74 -67 -74q-68 0 -146 40.5t-78 101.5t45.5 113.5t45.5 111.5v154l-300 126l-300 -126v-169q0 -29 70 -93t36.5 -161.5t-112.5 -97.5t-136.5 55t-57.5 158v365z" />
    <glyph glyph-name="uni17D2_uni1784.liga" unicode="&#x17d2;&#x1784;" 
d="M-1033 -950q-200 0 -300 96q-101 98 -101 241q0 154 50 232q51 77 151 77q66 0 100 -39q33 -38 33 -116q-67 0 -100.5 -38.5t-33.5 -115.5q0 -137 201 -137q210 0 308.5 146.5t165.5 306t83 179.5q16 18 44 18q66 0 66 -77q0 -82 -58 -253.5t-142 -287.5t-200 -173
q-116 -59 -267 -59z" />
    <glyph glyph-name="uni17D2_uni1785.liga" unicode="&#x17d2;&#x1785;" 
d="M-920 -100q102 0 74.5 -154.5t-102 -276.5t-163.5 -193q0 -26 106 -26q148 0 223 187q-51 20 -51 107q0 88 40 121.5t120 33.5q69 0 103.5 -38.5t34.5 -86.5q0 -28 -17 -71q77 0 77 -66t-92 -78q-14 0 -27 0.5t-25 2.5q-14 -26 -30.5 -55.5t-34.5 -61.5
q-34 -65 -124 -130t-197 -65q-159 0 -239 72q-80 71 -80 154q0 97 61.5 137.5t118.5 126t89.5 223t134.5 137.5z" />
    <glyph glyph-name="uni17D2_uni1786.liga" unicode="&#x17d2;&#x1786;" 
d="M-1150 -100v-400h73q190 0 301 -187q37 -63 137 -63q139 0 139 200q0 100 -60 100t-100 -60q-90 30 -90 100q0 160 190 160q260 0 260 -300q0 -400 -337 -400q-171 0 -272 156q-60 94 -165 94h-76v-125q0 -125 -100 -125t-175 104.5t-75 225.5q0 120 150 120v400h200z
" />
    <glyph glyph-name="uni17D2_uni1787.liga" unicode="&#x17d2;&#x1787;" 
d="M-661 -283q-32 0 -38 -14t-6 -52q0 -57 61 -57h48q14 0 15 2q-34 121 -80 121zM-293 -341q32 0 32 -51q0 -69 -64 -99q-14 -7 -28.5 -13t-31.5 -12v-12q0 -130 -89.5 -272t-219.5 -142q-65 0 -133 40q-68 42 -135 146q-77 -106 -141 -146t-129 -40q-128 0 -217 142.5
t-89 272.5q0 213 94 320t222 107q64 0 64 -76q0 -77 -64 -77q-32 0 -74 -68.5t-42 -205.5q0 -53 37 -138t69 -85t86.5 54t183.5 207q126 -153 165 -207t106 -54q31 0 72 77t42 117q-15 -1 -31.5 -2t-32.5 -1q-96 0 -159 57.5t-63 152.5q0 135 53 192t149 57
q102 0 168.5 -68.5t97.5 -205.5q18 7 36 12t34 13q8 1 14 3l9 3q6 2 9 2z" />
    <glyph glyph-name="uni17D2_uni1789.liga" unicode="&#x17d2;&#x1789;" 
d="M-407 -372q0 72 -78 72q-86 0 -86 100t86 100q278 0 278 -272q0 -174 -146.5 -301t-410.5 -127q-278 0 -475 110t-326 346q-26 49 -26 90q0 25 9 46q25 58 96.5 58t109.5 -67q115 -204 256.5 -293.5t355.5 -89.5q168 0 262.5 75.5t94.5 152.5z" />
    <glyph glyph-name="uni17D2_uni178A.liga" unicode="&#x17d2;&#x178a;" 
d="M-1200 -708q0 -73 40 -95q30 0 49.5 38t19.5 79q0 59 -53 59q-56 0 -56 -81zM-1200 -520q23 32 56 32q219 0 219 -198q0 -84 -73.5 -174t-161.5 -90q-81 0 -160.5 90t-79.5 152v336q0 57 63 86l437 186l438 -186q62 -29 62 -86v-504q0 -74 -67 -74q-68 0 -146 40.5
t-78 101.5t45.5 113.5t45.5 111.5v174l-300 126l-300 -126v-111z" />
    <glyph glyph-name="uni17D2_uni178B.liga" unicode="&#x17d2;&#x178b;" 
d="M-660 -198q0 54 31 82q32 27 104 27q63 0 94 -55q31 -54 31 -164v-494q0 -69 -33 -103t-100 -34l-358 203l-129 -145q-48 -58 -74 -58t-61 64l-213 300q-32 54 -32 119q0 91 111 110q114 19 205 27q93 9 171 9h312q-28 2 -43 30q-16 27 -16 82zM-601 -500h-328
q-50 0 -119.5 -1t-138.5 -18l113 -170l175 156l298 -142v175z" />
    <glyph glyph-name="uni17D2_uni178C.liga" unicode="&#x17d2;&#x178c;" 
d="M-1203 -468q51 13 34 66q14 16 72 15q91 0 91 -54.5t-79.5 -97t-117.5 -42.5q-97 0 -147 42.5t-50 83.5v149q0 43 73 85l215 121l212 -100l210 100l216 -121q74 -42 74 -85v-18q0 -168 -617 -426l44 -29l407 163q166 26 166 -40v-237q0 -57 -83 -57t-83 57v121l-335 -145
q-75 -33 -99 -33q-25 0 -109 65l-84 64q-42 35 -42 89.5t71 84.5q564 216 564 303l-100 64l-200 -93l-200 93l-103 -74v-114z" />
    <glyph glyph-name="uni17D2_uni178E.liga" unicode="&#x17d2;&#x178e;" 
d="M-300 -893q0 -57 -81 -57q-82 0 -175.5 31.5t-93.5 78.5t75 87.5t75 86.5v179l-492 178l-344 -140l124 -105q-121 -249 -251 -322.5t-252 -73.5q-116 0 -336 129l-205 -129q-170 0 -342 102t-172 191l225 193l-424 169l-431 -161v-222q0 -22 103.5 -71.5t63.5 -125
t-135 -75.5t-163.5 42.5t-68.5 122.5v396q0 53 163 112l488 177q649 -253 681 -296t-32 -103l-160 -167q91 -58 191 -63l262 148q224 -145 290 -145q91 0 233 148l-192 153q38 90 196 148l488 177l487 -173q162 -58 194 -100q10 -14 11 -30v-490z" />
    <glyph glyph-name="uni17D2_uni178F.liga" unicode="&#x17d2;&#x178f;" 
d="M-1200 -708q0 -73 40 -95q30 0 49.5 38t19.5 79q0 59 -53 59q-56 0 -56 -81zM-1200 -520q23 32 56 32q219 0 219 -198q0 -84 -73.5 -174t-161.5 -90q-81 0 -160.5 90t-79.5 152v336q0 57 63 86l437 186l438 -186q62 -29 62 -86v-504q0 -74 -67 -74q-68 0 -146 40.5
t-78 101.5t45.5 113.5t45.5 111.5v174l-300 126l-300 -126v-111z" />
    <glyph glyph-name="uni17D2_uni1790.liga" unicode="&#x17d2;&#x1790;" 
d="M-1239 -632q30 -68 112 -68q50 0 50 50q0 51 -100 55q-35 2 -62 -37zM-1246 -471q78 52 179 34q190 -33 190 -213q0 -250 -250 -250q-330 0 -330 368q0 382 500 382q443 0 587 -228q28 -46 28 -81q0 -46 -47 -72q-82 -47 -153 57q-71 124 -415 124q-243 0 -289 -121z" />
    <glyph glyph-name="uni17D2_uni1791.liga" unicode="&#x17d2;&#x1791;" 
d="M-920 -248q-56 19 -56 51.5t28 64.5t95 32q66 0 94 -32t28 -97q0 -64 -52 -175q-51 -113 -145 -185q-94 -73 -222 -115q0 -46 109 -46t239.5 124.5t161.5 233.5q32 109 57 135q24 28 60 28q73 0 73 -65v-556q0 -100 -84 -100t-84 100v182q-69 -132 -182 -207t-213 -75
q-140 0 -238.5 63.5t-98.5 187.5q0 105 57 125q215 75 294 180.5t79 145.5z" />
    <glyph glyph-name="uni17D2_uni1792.liga" unicode="&#x17d2;&#x1792;" 
d="M-656 -215q-9 -101 -160 -232q103 -53 147 -26t44 112q0 104 -17.5 108t-10.5 72q6 67 68 59q66 -7 113 -70t47 -169q0 -231 -114.5 -293t-243.5 7q-13 -164 -111 -233.5t-206 -69.5q-109 0 -192 73t-83 183q0 109 55 138q299 156 411.5 272t83.5 124q6 58 75 58
q10 0 23 -1q74 -9 71 -112zM-1175 -706q0 -45 107 -47t149 213q-112 -76 -151 -106.5t-105 -59.5z" />
    <glyph glyph-name="uni17D2_uni1793.liga" unicode="&#x17d2;&#x1793;" 
d="M-1253 -816q-322 0 -322 283t322 283h408v50q0 90 100 90t100 -90v-50h320q100 0 100 -100t-100 -100h-320v-166q78 0 110 -42q32 -41 32 -125t-40 -125q-41 -42 -121 -42t-130.5 50t-50.5 110q-164 -26 -408 -26zM-1253 -616h408v166h-408q-122 0 -122 -83t122 -83z" />
    <glyph glyph-name="uni17D2_uni1795.liga" unicode="&#x17d2;&#x1795;" 
d="M-483 -491q-2 86 -55 86q-37 0 -37 -41q0 -51 92 -45zM-505 -603q-207 4 -207 157q0 225 174 225q238 0 238 -277q0 -168 -97.5 -310t-209.5 -142q-61 0 -253 190l-243 -190q-110 0 -249 159t-139 268l181 134l-190 107l105 182q334 -158 334 -278q0 -69 -86 -131
l-86 -62q35 -77 126 -134l265 222l233 -215q38 0 85 65q11 15 19 30z" />
    <glyph glyph-name="uni17D2_uni1796.liga" unicode="&#x17d2;&#x1796;" 
d="M-1200 -737q20 -61 45 -61t44.5 20.5t19.5 62.5q0 61 -33 61q-76 0 -76 -83zM-400 -874q0 -76 -67 -76q-68 0 -146 42t-78 105t45.5 117.5t45.5 114.5v177l-100 80l-200 -135l-200 135l-100 -80v-149q33 33 76 33q199 0 199 -205q0 -87 -73.5 -161t-161.5 -74
q-81 0 -160.5 74t-79.5 139v367q0 58 73 114l215 162l212 -134l210 134l216 -162q74 -56 74 -114v-504z" />
    <glyph glyph-name="uni17D2_uni1797.liga" unicode="&#x17d2;&#x1797;" 
d="M-1050 -557v-147q0 -90 -58.5 -168t-174.5 -78q-117 0 -117 161q150 68 150 150v82q0 89 -110 153q0 64 60 96l420 208l420 -208q60 -32 60 -96v-464q0 -82 -64 -82q-66 0 -156 45t-90 113t55 98.5t55 95.5v154l-280 132l-226 -112q56 -44 56 -133z" />
    <glyph glyph-name="uni17D2_uni1798.liga" unicode="&#x17d2;&#x1798;" 
d="M-425 -313q-110 -68 -110 -137h50q250 0 250 -250t-250 -250t-250 300q-35 0 -97 -79t-173 -79q-90 0 -162.5 79t-235 104t-162.5 85t150.5 75t259 -63t150.5 -78q40 1 104.5 78.5t165.5 77.5q0 160 69 230t150 70t91 -163zM-486 -750q51 0 51 50t-50 50h-50
q0 -100 49 -100z" />
    <glyph glyph-name="uni17D2_uni179A.liga" unicode="&#x17d2;&#x179a;" horiz-adv-x="800" 
d="M500 -400q150 -200 360 -350h680q197 141 292 259q72 93 151 36q36 -26 36 -66q0 -46 -49 -112q-114 -147 -370 -317h-800q-300 200 -500 500v2850q200 300 500 500h800q256 -170 370 -317q49 -66 49 -112q0 -40 -36 -66q-79 -57 -151 36q-95 118 -292 259h-680
q-210 -150 -360 -350v-2750z" />
    <glyph glyph-name="uni17D2_uni179B.liga" unicode="&#x17d2;&#x179b;" 
d="M-1018 -675q183 -2 100.5 -138.5t-244.5 -136.5q-300 0 -300 291q0 259 335 259q88 0 198 -52l421 322q43 35 80 35q35 0 65 -32q26 -27 26 -56q0 -39 -48 -80l-213 -184l-179 -147q-56 -43 -168 -24.5t-182 18.5q-135 0 -135 -59q0 -91 100 -91q93 0 144 75z" />
    <glyph glyph-name="uni17D2_uni179C.liga" unicode="&#x17d2;&#x179c;" 
d="M-1008 -950q-245 0 -364 268q186 96 365.5 234.5t325.5 331.5q50 16 88 16q88 0 126.5 -78t38.5 -166q0 -209 -167.5 -407.5t-412.5 -198.5zM-1064 -751q12 -49 145.5 13t212 167t78.5 232q-163 -234 -436 -412z" />
    <glyph glyph-name="uni17D2_uni17A0.liga" unicode="&#x17d2;&#x17a0;" 
d="M-900 -666q-46 -227 -313 -284h-252q-78 0 -196.5 88t-138.5 222l163 141q-32 95 -163 129l213 270q185 -109 237 -88q-5 -103 -36 -133t-158 20l-30 -36q59 -34 106 -80.5t47 -89.5q0 -42 -169 -159l125 -84h252l113 84v213q0 63 -17 83q-22 7 -22 25q0 17 24 31
q356 214 393 214q39 0 422 -204v-589q0 -57 -54 -57t-149.5 31.5t-95.5 78.5t49.5 87.5t49.5 86.5v256l-225 104l-212 -131q37 -26 37 -56v-173z" />
    <glyph glyph-name="uni17D2_uni17A2.liga" unicode="&#x17d2;&#x17a2;" 
d="M-1225 -700v-21q0 -82 -72 -155.5t-170 -73.5q-108 0 -108 110q0 50 75 73t75 83v210q0 50 -150 77l268 297q196 -128 271 -104q-19 -95 -104 -111t-175 29l-34 -37q124 -54 124 -144v-33h700v26q0 50 -161 77l268 297q119 -128 193 -104q-18 -95 -66.5 -111t-134.5 29
l-34 -37q135 -54 135 -144v-224q0 -112 -77.5 -185.5t-175.5 -73.5q-108 0 -108 110q0 50 80.5 73t80.5 53v14h-700z" />
    <glyph glyph-name="uni17B7_uni17CD.liga" unicode="&#x17b7;&#x17cd;" 
d="M-1240 2050h460l-362 179zM-368 2002q27 -35 27 -69q1 -1 1 -2q0 -81 -145 -81h-755q-220 0 -220 100t60 200l120 200q60 100 111 100t129 -44l250 -140q13 98 70 158q74 76 196 76q155 0 214 -65q92 33 191 137q38 36 75 36q34 0 67 -30q35 -31 35 -64q0 -34 -36 -70
q-132 -126 -216 -162.5t-126 -36.5q-90 73 -167 73q-55 0 -87.5 -36.5t-32.5 -71.5q0 -66 70 -66q62 0 62 23q0 14 85 14q86 0 86 -57q0 -76 -54 -115q-5 -4 -10 -7z" />
    <glyph glyph-name=".notdef" horiz-adv-x="1536" 
d="M256 0v1280h1024v-1280h-1024zM288 32h960v1216h-960v-1216z" />
    <glyph glyph-name="glyph1" 
 />
    <glyph glyph-name="glyph2" horiz-adv-x="569" 
 />
    <glyph glyph-name="space" unicode=" " horiz-adv-x="569" 
 />
    <glyph glyph-name="space" unicode="&#xa0;" horiz-adv-x="569" 
 />
    <glyph glyph-name="exclam" unicode="!" horiz-adv-x="872" 
d="M612 1493v-692l-40 -457h-70l-40 457v692h150zM622 213v-213h-172v213h172z" />
    <glyph glyph-name="quotedbl" unicode="&#x22;" horiz-adv-x="727" 
d="M106 1452h190v-227l-55 -275h-80l-55 275v227zM434 1452h190v-227l-55 -275h-80l-55 275v227z" />
    <glyph glyph-name="numbersign" unicode="#" horiz-adv-x="1138" 
d="M993 1427l-74 -401h190v-139h-217l-63 -357h215v-139h-240l-80 -431h-155l77 431h-253l-80 -431h-156l78 431h-207v139h233l64 357h-221v139h248l73 401h156l-74 -401h256l72 401h158zM737 887h-254l-66 -357h256z" />
    <glyph glyph-name="dollar" unicode="$" horiz-adv-x="1138" 
d="M501 1577h121v-111q258 -18 354 -209q39 -77 43 -174v-20h-161q-2 158 -119 227q-41 23 -90 31q-13 2 -27 2v-510q205 -63 268 -98q174 -99 174 -316q0 -213 -139 -338q-22 -20 -49 -36q-100 -59 -254 -72v-211h-121v211q-315 21 -403 260q-33 94 -27 213h162
q14 -152 43 -201q4 -6 8 -14q72 -98 217 -117v557q-190 58 -258 107q-145 104 -145 299q0 299 286 385q54 16 117 24v111zM501 829v492q-196 -27 -231 -182q-6 -29 -6 -62q0 -184 237 -248zM622 633v-539q125 15 188 76q86 82 86 205q0 125 -96 186q-59 37 -178 72z" />
    <glyph glyph-name="percent" unicode="%" horiz-adv-x="1820" 
d="M407 1403q172 0 277 -135l37 -58q36 -75 36 -161q0 -162 -129 -267q-96 -80 -219 -80q-166 0 -272 129q-78 99 -78 222q0 166 129 272q96 78 219 78zM407 1260q-110 0 -172 -95l-24 -47q-11 -33 -11 -65q0 -109 92 -172q54 -35 117 -35q111 0 172 92q35 51 35 113
q0 116 -98 178q-49 31 -111 31zM1247 1452h135l-809 -1492h-135zM1409 659q174 0 278 -135q72 -94 72 -217q0 -162 -129 -266q-96 -79 -219 -79q-166 0 -273 128q-78 98 -78 221q0 166 132 271q96 77 217 77zM1409 516q-111 0 -172 -92q-35 -51 -35 -113q0 -112 96 -174
q51 -33 113 -33q110 0 172 93q35 51 35 110q0 117 -99 178l-47 21q-31 10 -63 10z" />
    <glyph glyph-name="ampersand" unicode="&#x26;" horiz-adv-x="1366" 
d="M1009 684h164q0 -192 -119 -375l250 -309h-223l-127 160q-100 -99 -158 -133q-115 -74 -270 -74q-238 0 -352 168q-68 100 -68 239q0 166 106 275q74 74 226 162q-144 180 -162 278q-4 27 -4 55q0 158 133 254q94 68 217 68q184 0 279 -135l30 -57q19 -43 23 -93
q2 -18 2 -37q0 -141 -113 -241q-59 -53 -170 -115l273 -334q65 115 63 244zM583 883q166 104 197 180q14 31 14 72q0 106 -92 153q-39 21 -86 21q-123 0 -164 -103q-12 -32 -12 -73q0 -68 51 -140zM856 281l-328 409q-193 -123 -234 -225q-16 -41 -16 -90q0 -133 111 -211
q71 -51 157 -51q138 0 277 133q16 16 33 35z" />
    <glyph glyph-name="quotesingle" unicode="'" horiz-adv-x="391" 
d="M98 1452h193v-227l-56 -275h-82l-55 275v227z" />
    <glyph glyph-name="parenleft" unicode="(" horiz-adv-x="1146" 
d="M584 1493h112q-253 -410 -278 -879q-2 -43 -2 -84q0 -477 250 -912q14 -27 30 -52h-112q-232 303 -307 696q-27 139 -27 268q0 367 190 734q64 125 144 229z" />
    <glyph glyph-name="parenright" unicode=")" horiz-adv-x="1146" 
d="M563 -434h-113q254 410 279 878q2 43 2 84q0 478 -250 914q-15 26 -31 51h113q231 -303 307 -696q26 -140 26 -269q0 -366 -190 -732q-63 -125 -143 -230z" />
    <glyph glyph-name="asterisk" unicode="*" horiz-adv-x="1321" 
d="M696 1493h129l-10 -229l217 77l39 -120l-222 -62l144 -182l-105 -74l-127 191l-129 -191l-102 74l141 182l-221 62l39 120l217 -77z" />
    <glyph glyph-name="plus" unicode="+" horiz-adv-x="1196" 
d="M1093 547v-144h-424v-423h-143v423h-424v144h424v424h143v-424h424z" />
    <glyph glyph-name="comma" unicode="," horiz-adv-x="569" 
d="M178 213h215v-245q0 -269 -215 -269v78q88 4 109 68q14 39 14 119v36h-123v213z" />
    <glyph glyph-name="hyphen" unicode="-" horiz-adv-x="681" 
d="M581 639v-147h-487v147h487z" />
    <glyph glyph-name="hyphen" unicode="&#xad;" horiz-adv-x="681" 
d="M581 639v-147h-487v147h487z" />
    <glyph glyph-name="period" unicode="." horiz-adv-x="569" 
d="M391 213v-213h-213v213h213z" />
    <glyph glyph-name="slash" unicode="/" horiz-adv-x="569" 
d="M469 1493h113l-485 -1533h-113z" />
    <glyph glyph-name="zero" unicode="0" horiz-adv-x="1166" 
d="M583 1500q495 0 495 -750t-495 -750t-495 750t495 750zM583 1350q-345 0 -345 -600t345 -600t345 600t-345 600z" />
    <glyph glyph-name="one" unicode="1" horiz-adv-x="952" 
d="M431 1172h-205v95q212 0 242 233h113v-1350h205v-150h-560v150h205v1022z" />
    <glyph glyph-name="two" unicode="2" horiz-adv-x="1129" 
d="M889 1053q0 297 -315 297t-315 -297h-150q0 447 465 447t465 -447q0 -312 -382 -476l-191 -83q-207 -85 -207 -344h780v-150h-930v150q0 358 307 489l191 82q282 122 282 332z" />
    <glyph glyph-name="three" unicode="3" horiz-adv-x="1143" 
d="M562 861q285 0 285 245q0 244 -285 244t-285 -244h-150q0 394 435 394t435 -392q0 -220 -136 -317q166 -103 166 -360q0 -431 -465 -431t-465 433h150q0 -283 315 -283t315 283q0 282 -315 282h-78v146h78z" />
    <glyph glyph-name="four" unicode="4" horiz-adv-x="1091" 
d="M698 1231l-477 -712h477v712zM698 1500h150v-981h192v-150h-192v-369h-150v369h-658v150z" />
    <glyph glyph-name="five" unicode="5" horiz-adv-x="1146" 
d="M1039 500q0 -500 -437 -500q-428 0 -478 397h150q50 -247 328 -247q287 0 287 350t-277 350q-202 0 -288 -128h-145l70 778h720v-178h-585l-37 -373q107 51 265 51q427 0 427 -500z" />
    <glyph glyph-name="six" unicode="6" horiz-adv-x="1082" 
d="M243 573q43 -423 307 -423q315 0 315 325t-315 325q-263 0 -307 -227zM550 0q-465 0 -465 750t515 750q415 0 415 -352h-150q0 202 -265 202q-328 0 -361 -486q113 86 311 86q465 0 465 -475t-465 -475z" />
    <glyph glyph-name="seven" unicode="7" horiz-adv-x="1103" 
d="M1029 1350l-533 -1350h-161l534 1350h-770v150h930v-150z" />
    <glyph glyph-name="eight" unicode="8" horiz-adv-x="1078" 
d="M539 1350q-285 0 -285 -250t285 -250t285 250t-285 250zM539 700q-315 0 -315 -275t315 -275t315 275t-315 275zM237 780q-133 98 -133 320q0 400 435 400t435 -400q0 -222 -133 -320q163 -103 163 -355q0 -425 -465 -425t-465 425q0 252 163 355z" />
    <glyph glyph-name="nine" unicode="9" horiz-adv-x="1082" 
d="M839 927q-43 423 -307 423q-315 0 -315 -325t315 -325q263 0 307 227zM532 1500q465 0 465 -750t-515 -750q-415 0 -415 352h150q0 -202 265 -202q328 0 361 486q-113 -86 -311 -86q-465 0 -465 475t465 475z" />
    <glyph glyph-name="colon" unicode=":" horiz-adv-x="569" 
d="M438 213v-213h-213v213h213zM438 1073v-213h-213v213h213z" />
    <glyph glyph-name="semicolon" unicode=";" horiz-adv-x="569" 
d="M440 1073v-213h-213v213h213zM225 213h215v-245q0 -269 -215 -269v78q88 4 109 68q14 39 14 119v36h-123v213z" />
    <glyph glyph-name="semicolon" unicode="&#x37e;" horiz-adv-x="569" 
d="M440 1073v-213h-213v213h213zM225 213h215v-245q0 -269 -215 -269v78q88 4 109 68q14 39 14 119v36h-123v213z" />
    <glyph glyph-name="less" unicode="&#x3c;" horiz-adv-x="1196" 
d="M92 406v141l1001 424v-162l-806 -330l806 -336v-161z" />
    <glyph glyph-name="equal" unicode="=" horiz-adv-x="1196" 
d="M1093 723v-143h-991v143h991zM1093 371v-144h-991v144h991z" />
    <glyph glyph-name="greater" unicode="&#x3e;" horiz-adv-x="1196" 
d="M1103 547v-141l-1001 -424v161l807 330l-807 336v162z" />
    <glyph glyph-name="question" unicode="?" horiz-adv-x="1585" 
d="M968 408h-184v112q0 103 57 178q35 45 107 113q14 12 49 43q151 135 153 270q0 144 -125 205l-63 21q-35 8 -74 8q-168 0 -229 -119q-35 -70 -35 -201h-174q0 216 92 335q93 119 277 140q39 5 80 5q258 0 372 -170l33 -62q31 -74 31 -162q0 -143 -105 -264
q-39 -47 -100 -102q-129 -119 -150 -174q-12 -31 -12 -80v-96zM968 213v-213h-184v213h184z" />
    <glyph glyph-name="at" unicode="@" horiz-adv-x="2078" 
d="M1361 1026h170l-184 -573q-25 -72 -25 -103q0 -55 60 -82q20 -8 43 -8q131 0 239 148q105 145 105 323q0 246 -199 428q-203 189 -491 201h-31q-301 0 -533 -209l-69 -70q-203 -231 -203 -522q0 -289 215 -487q221 -205 553 -205q162 0 395 66l58 -137q-230 -86 -463 -86
q-369 0 -637 219q-250 204 -289 505q-6 47 -6 94q0 316 195 582q57 80 129 143q221 201 530 252q76 13 152 13q340 0 591 -207q238 -193 275 -469q6 -43 6 -86q0 -248 -176 -457q-156 -182 -381 -182q-197 0 -225 157q-135 -147 -291 -147q-168 0 -264 141q-70 101 -70 234
q0 223 162 395q158 170 364 172q172 0 250 -178zM1054 938q-135 0 -237 -145q-93 -129 -93 -293q0 -138 97 -207q49 -35 106 -35q119 0 209 133q68 98 100 271q9 45 11 79q6 111 -84 168q-50 29 -109 29z" />
    <glyph glyph-name="A" unicode="A" horiz-adv-x="1222" 
d="M847 597l-236 685l-236 -685h472zM694 1500l518 -1500h-159l-154 447h-576l-154 -447h-159l518 1500h166z" />
    <glyph glyph-name="B" unicode="B" horiz-adv-x="1257" 
d="M311 710v-560h400q170 0 255 70t85 210t-85 210t-255 70h-400zM661 860q170 0 255 61q85 62 85 184q0 123 -85 184t-255 61h-350v-490h350zM161 1500h500q245 0 368 -99q122 -98 122 -296q0 -104 -34 -181t-103 -127q94 -50 140 -142q47 -92 47 -225q0 -215 -122 -322
q-123 -108 -368 -108h-550v1500z" />
    <glyph glyph-name="C" unicode="C" horiz-adv-x="1253" 
d="M676 0q-300 0 -450 188q-150 187 -150 562t150 563q150 187 450 187q188 0 317 -73q129 -74 199 -221l-129 -82q-53 121 -150 181q-96 60 -237 60q-225 0 -337 -154q-113 -153 -113 -461q0 -307 113 -461q112 -154 337 -154q148 0 247 67q100 66 150 199l136 -68
q-66 -166 -200 -250q-133 -83 -333 -83z" />
    <glyph glyph-name="D" unicode="D" horiz-adv-x="1325" 
d="M661 1350h-350v-1200h300q245 0 368 150q122 150 122 450t-110 450t-330 150zM1251 750q0 -375 -160 -562q-160 -188 -480 -188h-450v1500h500q295 0 443 -187q147 -188 147 -563z" />
    <glyph glyph-name="E" unicode="E" horiz-adv-x="1278" 
d="M311 723v-573h890v-150h-1040v1500h1020v-150h-870v-477h840v-150h-840z" />
    <glyph glyph-name="F" unicode="F" horiz-adv-x="1216" 
d="M311 873h759v-150h-759v-723h-150v1500h1019v-150h-869v-477z" />
    <glyph glyph-name="G" unicode="G" horiz-adv-x="1308" 
d="M1050 425v183h-376v150h526v-758h-150v134q-143 -134 -389 -134q-292 0 -439 188q-146 187 -146 562t146 563q147 187 439 187q364 0 501 -290l-140 -67q-106 207 -361 207q-217 0 -326 -150t-109 -450t109 -450t326 -150q294 0 389 275z" />
    <glyph glyph-name="H" unicode="H" horiz-adv-x="1378" 
d="M311 693v-693h-150v1500h150v-657h756v657h150v-1500h-150v693h-756z" />
    <glyph glyph-name="I" unicode="I" horiz-adv-x="656" 
d="M253 1350h-150v150h450v-150h-150v-1200h150v-150h-450v150h150v1200z" />
    <glyph glyph-name="J" unicode="J" horiz-adv-x="941" 
d="M570 1350h-155v150h450v-150h-145v-950q0 -400 -331 -400q-332 0 -332 380h150q0 -230 182 -230q181 0 181 250v950z" />
    <glyph glyph-name="K" unicode="K" horiz-adv-x="1231" 
d="M1036 0l-538 805l-187 -179v-626h-150v1500h150v-667l693 667h217l-613 -589l608 -911h-180z" />
    <glyph glyph-name="L" unicode="L" horiz-adv-x="1030" 
d="M311 150h709v-150h-859v1500h150v-1350z" />
    <glyph glyph-name="M" unicode="M" horiz-adv-x="1616" 
d="M808 225l-435 1275h-212v-1500h150v1218l416 -1218h162l416 1218v-1218h150v1500h-212z" />
    <glyph glyph-name="N" unicode="N" horiz-adv-x="1393" 
d="M311 1267v-1267h-150v1500h188l733 -1265v1265h150v-1500h-187z" />
    <glyph glyph-name="O" unicode="O" horiz-adv-x="1322" 
d="M661 1500q293 0 439 -187q146 -188 146 -563t-146 -562q-146 -188 -439 -188q-292 0 -439 188q-146 187 -146 562t146 563q147 187 439 187zM661 1350q-217 0 -326 -150t-109 -450t109 -450t326 -150q218 0 326 150q109 150 109 450t-109 450q-108 150 -326 150z" />
    <glyph glyph-name="P" unicode="P" horiz-adv-x="1239" 
d="M1191 1090q0 -205 -124 -307q-123 -103 -371 -103h-385v-680h-150v1500h535q248 0 371 -102q124 -103 124 -308zM311 830h385q173 0 259 65t86 195t-86 195t-259 65h-385v-520z" />
    <glyph glyph-name="Q" unicode="Q" horiz-adv-x="1334" 
d="M1017 348q79 147 79 402q0 300 -109 450q-108 150 -326 150q-217 0 -326 -150t-109 -450t109 -450t326 -150q160 0 261 81l-248 181l88 122zM1053 136q-143 -136 -392 -136q-292 0 -439 188q-146 187 -146 562t146 563q147 187 439 187q293 0 439 -187q146 -188 146 -563
q0 -313 -102 -495l184 -134l-88 -121z" />
    <glyph glyph-name="R" unicode="R" horiz-adv-x="1252" 
d="M311 830h385q173 0 259 65t86 195t-86 195t-259 65h-385v-520zM1076 0l-328 681q-26 -1 -52 -1h-385v-680h-150v1500h535q248 0 371 -102q124 -103 124 -308q0 -156 -72 -253t-216 -134l339 -703h-166z" />
    <glyph glyph-name="S" unicode="S" horiz-adv-x="1204" 
d="M615 1500q498 0 498 -400h-150q0 250 -348 250t-348 -203q0 -204 243 -255l244 -53q389 -83 389 -440q0 -399 -528 -399t-528 500h150q0 -350 378 -350t378 249q0 250 -273 309l-244 53q-359 73 -359 386q0 353 498 353z" />
    <glyph glyph-name="T" unicode="T" horiz-adv-x="1076" 
d="M464 1350h-454v150h1056v-150h-452v-1350h-150v1350z" />
    <glyph glyph-name="U" unicode="U" horiz-adv-x="1386" 
d="M693 0q-550 0 -550 500v1000h150v-1000q0 -350 400 -350t400 350v1000h150v-1000q0 -500 -550 -500z" />
    <glyph glyph-name="V" unicode="V" horiz-adv-x="1222" 
d="M1053 1500h159l-518 -1500h-166l-518 1500h159l442 -1282z" />
    <glyph glyph-name="W" unicode="W" horiz-adv-x="1999" 
d="M1079 1500l377 -1283l376 1283h157l-441 -1500h-185l-363 1236l-364 -1236h-185l-441 1500h157l377 -1283l376 1283h159z" />
    <glyph glyph-name="X" unicode="X" horiz-adv-x="1258" 
d="M629 619l-428 -619h-183l520 751l-518 749h183l426 -616l426 616h183l-517 -749l519 -751h-183z" />
    <glyph glyph-name="Y" unicode="Y" horiz-adv-x="1212" 
d="M531 631l-521 869h175l421 -703l421 703h175l-521 -869v-622h-150v622z" />
    <glyph glyph-name="Z" unicode="Z" horiz-adv-x="1193" 
d="M930 1350h-854v150h1041v-150l-853 -1200h853v-150h-1041v150z" />
    <glyph glyph-name="bracketleft" unicode="[" horiz-adv-x="665" 
d="M176 1500h381v-150h-231v-1634h231v-150h-381v1934z" />
    <glyph glyph-name="backslash" unicode="\" horiz-adv-x="752" 
d="M215 1500l485 -1533h-163l-485 1533h163z" />
    <glyph glyph-name="bracketright" unicode="]" horiz-adv-x="665" 
d="M339 1350h-231v150h381v-1934h-381v150h231v1634z" />
    <glyph glyph-name="asciicircum" unicode="^" horiz-adv-x="1046" 
d="M446 1500h150l317 -778h-141l-250 614l-248 -614h-141z" />
    <glyph glyph-name="underscore" unicode="_" horiz-adv-x="1197" 
d="M1213 -241v-135h-1229v135h1229z" />
    <glyph glyph-name="grave" unicode="`" horiz-adv-x="681" 
d="M220 1516l223 -304h-123l-275 304h175z" />
    <glyph glyph-name="a" unicode="a" horiz-adv-x="1115" 
d="M819 620q-87 -36 -225 -55q-187 -26 -281 -87t-94 -157q0 -85 55 -128t165 -43q107 0 202 54t178 161v255zM69 850q0 145 113 218q112 72 337 72t338 -77q112 -78 112 -233v-830h-150v186q-83 -93 -178 -139q-95 -47 -202 -47q-185 0 -277 80q-93 81 -93 241
q0 156 125 250q124 95 373 127q252 34 252 92v40q0 80 -75 120t-225 40t-225 -35t-75 -105h-150z" />
    <glyph glyph-name="b" unicode="b" horiz-adv-x="1115" 
d="M296 0h-150v1500h150v-527q96 167 300 167q450 0 450 -570t-450 -570q-204 0 -300 167v-167zM296 570q0 -197 76.5 -308.5t223.5 -111.5q300 0 300 420t-300 420q-147 0 -223.5 -111t-76.5 -309z" />
    <glyph glyph-name="c" unicode="c" horiz-adv-x="1031" 
d="M901 143q-119 -143 -357 -143q-237 0 -356 143q-119 142 -119 427t119 428q119 142 356 142q238 0 357 -142q23 -29 42 -64l-131 -76q-10 17 -20 31q-78 101 -248 101t-247 -101q-78 -101 -78 -319q0 -217 78 -318q77 -102 247 -102t248 102q31 40 49 100l145 -44
q-30 -98 -85 -165z" />
    <glyph glyph-name="d" unicode="d" horiz-adv-x="1115" 
d="M819 167q-96 -167 -300 -167q-450 0 -450 570t450 570q204 0 300 -167v527h150v-1500h-150v167zM519 990q-300 0 -300 -420t300 -420q147 0 223.5 111.5t76.5 308.5q0 198 -76.5 309t-223.5 111z" />
    <glyph glyph-name="e" unicode="e" horiz-adv-x="1083" 
d="M219 545q5 -198 78 -293q77 -102 247 -102t248 102q31 41 50 101h156q-29 -128 -97 -210q-119 -143 -357 -143q-237 0 -356 142.5t-119 427.5t119 427.5t356 142.5q238 0 356.5 -142.5t118.5 -427.5v-25h-800zM861 695q-16 125 -69 194q-78 101 -248 101t-247 -101
q-54 -69 -70 -194h634z" />
    <glyph glyph-name="f" unicode="f" horiz-adv-x="501" 
d="M179 1140v110q0 250 342 250v-135q-192 0 -192 -115v-110h162v-150h-162v-990h-150v990h-140v150h140z" />
    <glyph glyph-name="g" unicode="g" horiz-adv-x="1115" 
d="M519 990q-300 0 -300 -420t300 -420q147 0 223.5 111.5t76.5 308.5q0 198 -76.5 309t-223.5 111zM819 130v37q-96 -167 -300 -167q-450 0 -450 570t450 570q204 0 300 -167v167h150v-1010q0 -490 -430 -490q-370 0 -450 275l125 20q70 -145 325 -145q280 0 280 340z" />
    <glyph glyph-name="h" unicode="h" horiz-adv-x="1184" 
d="M898 0v710q0 280 -260 280q-137 0 -238.5 -121t-101.5 -169v-700h-150v1500h150v-557q156 197 340 197q410 0 410 -430v-710h-150z" />
    <glyph glyph-name="i" unicode="i" horiz-adv-x="424" 
d="M137 1350v150h150v-150h-150zM287 1140v-1140h-150v1140h150z" />
    <glyph glyph-name="j" unicode="j" horiz-adv-x="474" 
d="M187 1350v150h150v-150h-150zM10 -360v150q177 0 177 160v1190h150v-1190q0 -310 -327 -310z" />
    <glyph glyph-name="k" unicode="k" horiz-adv-x="1054" 
d="M296 632l502 508h211l-469 -474l504 -666h-188l-422 558l-138 -140v-418h-150v1500h150v-868z" />
    <glyph glyph-name="l" unicode="l" horiz-adv-x="450" 
d="M300 1500v-1500h-150v1500h150z" />
    <glyph glyph-name="m" unicode="m" horiz-adv-x="1732" 
d="M946 700v-700h-150v710q0 280 -220 280q-137 0 -208.5 -121t-71.5 -169v-700h-150v1140h150v-197q136 197 310 197q247 0 314 -232l26 35q136 197 310 197q340 0 340 -440v-700h-150v710q0 280 -220 280q-137 0 -208.5 -121t-71.5 -169z" />
    <glyph glyph-name="n" unicode="n" horiz-adv-x="1184" 
d="M898 0v710q0 280 -260 280q-137 0 -238.5 -121t-101.5 -169v-700h-150v1140h150v-197q156 197 340 197q410 0 410 -430v-710h-150z" />
    <glyph glyph-name="o" unicode="o" horiz-adv-x="1084" 
d="M867 570q0 218 -77 319q-78 101 -248 101t-247 -101q-78 -101 -78 -319q0 -217 78 -318q77 -102 247 -102t248 102q77 101 77 318zM67 570q0 285 119 428q119 142 356 142q238 0 357 -142q118 -143 118 -428t-118 -427q-119 -143 -357 -143q-237 0 -356 143
q-119 142 -119 427z" />
    <glyph glyph-name="p" unicode="p" horiz-adv-x="1115" 
d="M296 973q96 167 300 167q450 0 450 -570t-450 -570q-204 0 -300 167v-527h-150v1500h150v-167zM596 150q300 0 300 420t-300 420q-147 0 -223.5 -111.5t-76.5 -308.5q0 -198 76.5 -309t223.5 -111z" />
    <glyph glyph-name="q" unicode="q" horiz-adv-x="1115" 
d="M819 1140h150v-1500h-150v527q-96 -167 -300 -167q-450 0 -450 570t450 570q204 0 300 -167v167zM819 570q0 197 -76.5 308.5t-223.5 111.5q-300 0 -300 -420t300 -420q147 0 223.5 111t76.5 309z" />
    <glyph glyph-name="r" unicode="r" horiz-adv-x="676" 
d="M656 990q-147 0 -253.5 -121t-106.5 -169v-700h-150v1140h150v-197q166 197 360 197v-150z" />
    <glyph glyph-name="s" unicode="s" horiz-adv-x="1026" 
d="M77 361h150q0 -211 300 -211t300 200q0 107 -192 157l-160 39q-368 89 -368 304q0 290 420 290t420 -322h-150q0 172 -270 172t-270 -140q0 -107 261 -174l160 -39q299 -72 299 -287q0 -350 -450 -350t-450 361z" />
    <glyph glyph-name="t" unicode="t" horiz-adv-x="566" 
d="M192 990h-161v150h161v360h150v-360h209v-150h-209v-700q0 -140 209 -140v-150q-359 0 -359 290v700z" />
    <glyph glyph-name="u" unicode="u" horiz-adv-x="1184" 
d="M286 1140v-710q0 -280 260 -280q137 0 238.5 121t101.5 169v700h150v-1140h-150v197q-156 -197 -340 -197q-410 0 -410 430v710h150z" />
    <glyph glyph-name="v" unicode="v" horiz-adv-x="929" 
d="M756 1140h157l-368 -1140h-161l-368 1140h157l291 -898z" />
    <glyph glyph-name="w" unicode="w" horiz-adv-x="1448" 
d="M724 844l-220 -844h-191l-297 1140h155l238 -909l237 909h156l238 -909l237 909h155l-297 -1140h-191z" />
    <glyph glyph-name="x" unicode="x" horiz-adv-x="941" 
d="M471 433l-283 -433h-178l372 570l-372 570h178l283 -433l282 433h178l-371 -570l371 -570h-178z" />
    <glyph glyph-name="y" unicode="y" horiz-adv-x="1023" 
d="M492 266l353 874h162l-607 -1500h-162l169 418l-391 1082h159z" />
    <glyph glyph-name="z" unicode="z" horiz-adv-x="1071" 
d="M982 990l-732 -840h762v-150h-953v150l732 840h-702v150h893v-150z" />
    <glyph glyph-name="braceleft" unicode="{" horiz-adv-x="635" 
d="M60 600q111 23 135.5 67.5t24.5 215.5v342q0 209 145 256q37 12 78 12h94v-93q-182 0 -182 -149v-399q0 -271 -145 -322q145 -51 145 -322v-399q0 -149 182 -149v-93h-94q-41 0 -78 12q-145 47 -145 256v342q0 171 -24.5 215.5t-135.5 67.5v140z" />
    <glyph glyph-name="bar" unicode="|" horiz-adv-x="766" 
d="M308 1500h150v-1860h-150v1860z" />
    <glyph glyph-name="braceright" unicode="}" horiz-adv-x="635" 
d="M575 460q-111 -23 -135.5 -67.5t-24.5 -215.5v-342q0 -209 -145 -256q-37 -12 -78 -12h-94v93q182 0 182 149v399q0 271 145 322q-145 51 -145 322v399q0 149 -182 149v93h94q41 0 78 -12q145 -47 145 -256v-342q0 -171 24.5 -215.5t135.5 -67.5v-140z" />
    <glyph glyph-name="asciitilde" unicode="~" horiz-adv-x="1200" 
d="M800 250q-149 0 -224 125l-38 63q-38 62 -138 62q-99 0 -99 -100v-150h-151v151q0 249 247 249h3q149 0 226 -125l37 -62q37 -63 138 -63q99 0 99 100v150h150v-150q0 -249 -250 -250z" />
    <glyph glyph-name="uni1780" unicode="&#x1780;" horiz-adv-x="2700" 
d="M200 1230q599 270 659 270t486 -186q431 186 493 186q60 0 216 -80.5t446 -139.5q-24 -180 -147.5 -170t-520.5 187l-487 -206l-484 209l-352 -151l53 -60l-168 -78l-194 164v55zM2400 100q0 -100 -81 -100q-82 0 -175.5 55t-93.5 138t75 155t75 152v228l-380 199
l-370 -199v-628q0 -100 -81 -100q-82 0 -175.5 55t-93.5 138t75 155t75 152v228l-380 199l-370 -199v-248q0 -40 103.5 -127t63.5 -220t-135 -133t-163.5 75t-68.5 215v488q0 78 71 117l499 235l480 -224l470 224l499 -235q81 -39 81 -117v-678z" />
    <glyph glyph-name="uni1781" unicode="&#x1781;" horiz-adv-x="1800" 
d="M300 1110q0 210 176.5 300t423.5 90t423.5 -85t176.5 -355q0 -357 -664 -704l94 -111l461 457q20 -166 -167 -432t-277 -270q-89 0 -266.5 198.5t-21.5 297.5q641 307 641 564q0 240 -400 240t-400 -190q0 -130 96 -130q0 120 105.5 139t140 -74.5t-31 -169t-214.5 -75.5
q-296 0 -296 310z" />
    <glyph glyph-name="uni1782" unicode="&#x1782;" horiz-adv-x="1800" 
d="M200 1270l250 170q84 60 120 60q37 0 327 -106q238 106 276 106q36 0 143.5 -60.5t283.5 -119.5q-108 -172 -198 -141q-91 30 -239 128l-266 -126l-308 109l-152 -101l50 -80l-114 -58l-173 164v55zM300 788q0 78 75 117l525 255l525 -255q75 -39 75 -117v-688
q0 -100 -81 -100q-82 0 -175.5 55t-93.5 138t75 155t75 152v238l-400 199l-400 -199v-258q0 -40 103.5 -127t63.5 -220t-135 -133t-163.5 75t-68.5 215v498z" />
    <glyph glyph-name="uni1783" unicode="&#x1783;" horiz-adv-x="2750" 
d="M1427 186q-113 -134 -327 -186h-386q-120 0 -302 155t-212 321l333 406l9 68q8 67 -92 220q-34 51 -64 34q-30 -18 18.5 -59t28 -116t-126.5 -68t-106 150t106.5 266t154.5 123t152 -191q127 -240 127 -332v-93q0 -75 -279 -455q79 -132 253 -229h386q200 80 250 300v376
q-40 136 -260 176l326 448q254 -194 334 -157q-20 -143 -82.5 -167.5t-238.5 73.5l-78 -95q179 -82 199 -258v-396q-6 -57 -19 -107q89 -112 233 -193h236q200 80 250 300v376q-40 136 -260 176l326 448q254 -194 334 -157q-20 -143 -82.5 -167.5t-238.5 73.5l-78 -95
q179 -82 199 -258v-396q-40 -400 -420 -500h-306q-126 0 -297 186z" />
    <glyph glyph-name="uni1784" unicode="&#x1784;" horiz-adv-x="1800" 
d="M631 1836q0 -48 39.5 -69t150.5 -21q138 0 224 113t125.5 205t59.5 180t75 88t55 -107t-44.5 -265.5t-170 -281t-324.5 -122.5q-140 0 -260 65t-120 185q8 103 101 92.5t89 -62.5zM444 1071q78 -48 152 -140t74 -167t-75 -147l-156 -164q51 -156 151 -218l333 264
l240 -259q41 0 92.5 67t104.5 130t96.5 63t43.5 -86t-106.5 -250t-228.5 -164q-66 0 -256 226l-285 -226q-120 0 -272 174.5t-152 342.5l258 235q-95 185 -258 254q0 83 87 199q219 295 469 295h215q216 0 373 -106q156 -106 156 -275q0 -249 -168 -249t-172 100t70 100
t73 49q-2 48 -101 115q-98 66 -231 66h-215q-152 0 -312 -229z" />
    <glyph glyph-name="uni1785" unicode="&#x1785;" horiz-adv-x="1800" 
d="M1378.5 154q-121.5 -154 -263.5 -154h-441q-170 0 -322 199.5t-152 317.5l258 255l-183 228q-75 85 -75 126q0 39 93 123q277 251 311 251t274 -216q211 216 246 216q34 0 295 -244q81 -67 81 -123t-44 -84t-134 28t-207 187l-237 -233l-257 239l-201 -166
q102 -81 176 -163t74 -157t-58 -139l-163 -172q83 -194 251 -273h373q131 40 182.5 127t44.5 163q0 100 -40 100q-30 0 -70 -60q-90 30 -90 100q0 160 160 160q240 0 240 -300q0 -182 -121.5 -336z" />
    <glyph glyph-name="uni1786" unicode="&#x1786;" horiz-adv-x="1800" 
d="M1113 0q-171 0 -272 156q-60 94 -175 94h-116v-125q0 -125 -100 -125t-175 104.5t-75 225.5q0 120 150 120v450q0 119 -75 190q-75 70 -75 103q0 32 93 101q277 206 311 206t274 -177q211 177 246 177q34 0 295 -200q81 -55 81 -147q0 -93 -183 -6q-85 36 -202 143
l-237 -191l-257 180l-175 -131q104 -101 104 -248v-450h113q200 0 311 -187q37 -63 137 -63q189 0 189 200q0 100 -60 100t-100 -60q-90 30 -90 100q0 160 190 160q260 0 260 -300q0 -400 -387 -400z" />
    <glyph glyph-name="uni1787" unicode="&#x1787;" horiz-adv-x="1800" 
d="M1360 1383q5 61 2 112q-7 100 -29 187.5t27 112.5q10 5 20 5q39 0 78 -75q48 -96 81 -257q11 -59 11 -118q0 -104 -36 -210q-6 -19 -14 -37q-5 -233 -168 -233q-168 0 -172 100t70 100t73 49q-2 48 -101 115q-98 66 -231 66h-215q-152 0 -312 -229q78 -48 152 -140
t74 -167t-75 -147l-156 -164q51 -156 151 -218l333 264l240 -259q41 0 92.5 67t104.5 130t96.5 63t43.5 -86t-106.5 -250t-228.5 -164q-66 0 -256 226l-285 -226q-120 0 -272 174.5t-152 342.5l258 235q-95 185 -258 254q0 83 87 199q219 295 469 295h215q216 0 373 -106
q8 -5 16 -11z" />
    <glyph glyph-name="uni1788" unicode="&#x1788;" horiz-adv-x="3600" 
d="M1624 0q-180 0 -336 181t-186 347l286 284q1 67 -88 136l-400 317l-400 -317v-468q0 -40 103.5 -127t63.5 -220t-135 -133t-163.5 75t-68.5 215v618q0 124 75 186l525 406l525 -406q68 -56 121.5 -134t53.5 -136q0 -95 -72 -170l-165 -173q89 -164 261 -281h326
q200 80 250 300v376q-40 136 -260 176l326 448q254 -194 334 -157q-20 -143 -82.5 -167.5t-238.5 73.5l-78 -95q179 -82 199 -258v-396q-6 -57 -19 -107q89 -112 233 -193h236q200 80 250 300v376q-40 136 -260 176l326 448q254 -194 334 -157q-20 -143 -82.5 -167.5
t-238.5 73.5l-78 -95q179 -82 199 -258v-396q-40 -400 -420 -500h-306q-126 0 -297 186q-113 -134 -327 -186h-326z" />
    <glyph glyph-name="uni1789" unicode="&#x1789;" horiz-adv-x="2750" 
d="M2250 -372q0 72 -98 72q-86 0 -86 100t86 100q298 0 298 -272q0 -174 -206.5 -301t-750.5 -127q-388 0 -650 110t-486 366q-57 58 -57 117q0 57 96.5 57t139.5 -57q220 -214 426.5 -303.5t530.5 -89.5q448 0 602.5 75.5t154.5 152.5zM500 370q20 -140 87 -170
q36 0 59.5 72t23.5 128q0 80 -63 80q-107 0 -107 -110zM1500 1000v-900q0 -100 -81 -100q-82 0 -175.5 55t-93.5 138t75 155t75 152v603l-161 132l-240 -165l-240 165l-159 -132v-477q31 44 107 44q263 0 263 -270q0 -155 -88.5 -277.5t-194.5 -122.5q-97 0 -192 122.5
t-95 247.5v765q0 76 87 150l258 215l254 -178l253 178l259 -215q27 -22 45 -44q316 259 369 259q59 0 625 -360v-1040q0 -100 -81 -100q-82 0 -175.5 55t-93.5 138t75 155t75 152v532l-431 245z" />
    <glyph glyph-name="uni178A" unicode="&#x178a;" horiz-adv-x="1800" 
d="M441 1104l155 -163q74 -82 74 -157t-58 -139l-163 -172q51 -146 171 -208l303 234l240 -259q41 0 92.5 87t104.5 130t96.5 43t43.5 -86q0 -106 -106.5 -260t-228.5 -154q-66 0 -276 206l-265 -206q-120 0 -272 199.5t-152 317.5l258 255l-183 228q-75 85 -75 126
q0 39 93 123q23 21 44 40l164 148q69 63 101 63t156 -100q123 -100 352 -100q190 0 190 186q0 104 -50 184t60 80q190 0 190 -264q0 -386 -390 -386q-282 0 -500 150z" />
    <glyph glyph-name="uni178B" unicode="&#x178b;" horiz-adv-x="1850" 
d="M1550 500q-40 -400 -420 -500h-416q-120 0 -302 155t-212 321l333 406l9 68q8 67 -92 220q-34 51 -64 34q-30 -18 18.5 -59t28 -116t-126.5 -68t-106 150t106.5 266t154.5 123t152 -191q127 -240 127 -332v-93q0 -75 -279 -455q79 -132 253 -229h386q200 80 250 300v376
q0 136 -200 176l286 448q97 -117 188 -138.5t49 327.5q127 -84 127 -254t-82.5 -247t-258.5 31l-58 -85q149 -72 149 -188v-446z" />
    <glyph glyph-name="uni178C" unicode="&#x178c;" horiz-adv-x="1800" 
d="M500 850q61 22 65 57t-24 59q17 81 86 80q109 -1 109 -155q0 -91 -95.5 -166t-140.5 -75q-81 0 -140.5 75t-59.5 148v262q0 76 87 150l258 215l254 -178l253 178l259 -215q89 -74 89 -150v-32q0 -296 -263 -461l-511 -325l73 -82l357 228l144 91q200 46 200 -72v-382
q0 -100 -100 -100t-100 100v214l-402 -256q-90 -58 -119 -58q-30 0 -130 114l-101 113q-50 62 -50 114q0 69 85 122l539 339q178 113 178 301l-161 132l-240 -165l-240 165l-159 -132v-253z" />
    <glyph glyph-name="uni178D" unicode="&#x178d;" horiz-adv-x="2750" 
d="M500 370q20 -140 87 -170q36 0 59.5 72t23.5 128q0 80 -63 80q-107 0 -107 -110zM1300 1103l-161 132l-240 -165l-240 165l-159 -132v-477q31 44 107 44q263 0 263 -270q0 -155 -88.5 -277.5t-194.5 -122.5q-97 0 -192 122.5t-95 247.5v765q0 76 87 150l258 215l254 -178
l253 178l259 -215q89 -74 89 -150v-685h113q200 0 311 -187q37 -63 137 -63q189 0 189 200v476q-40 136 -260 176l326 448q254 -194 334 -157q-20 -143 -82.5 -167.5t-238.5 73.5l-78 -95q179 -82 199 -258v-496q0 -400 -387 -400q-171 0 -272 156q-60 94 -175 94h-116v-125
q0 -125 -100 -125t-175 104.5t-75 225.5q0 120 150 120v653z" />
    <glyph glyph-name="uni178E" unicode="&#x178e;" horiz-adv-x="3900" 
d="M3600 100q0 -100 -81 -100q-82 0 -175.5 55t-93.5 138t75 155t75 152v422l-492 332l-451 -295l144 -185q93 -106 29.5 -310.5t-193.5 -334t-252 -129.5q-116 0 -336 226l-255 -226q-120 0 -292 179.5t-172 337.5l265 392l-464 335l-431 -285v-479q0 -40 103.5 -127
t63.5 -220t-135 -133t-163.5 75t-68.5 215v700q0 92 163 197l488 313q649 -448 681 -523.5t-32 -181.5l-231 -342q91 -156 191 -218l333 274q224 -309 290 -309q41 0 144.5 122t118.5 334l-222 269q38 160 196 262l488 313l487 -306q162 -102 194 -177q10 -25 11 -53v-864z
" />
    <glyph glyph-name="uni178F" unicode="&#x178f;" horiz-adv-x="1800" 
d="M200 1270l250 170q84 60 120 60q37 0 327 -106q238 106 276 106q36 0 143.5 -60.5t283.5 -119.5q-108 -172 -198 -141q-91 30 -239 128l-266 -126l-308 109l-152 -101l50 -80l-114 -58l-173 164v55zM500 330q20 -100 87 -130q36 0 59.5 52t23.5 108q0 80 -63 80
q-107 0 -107 -110zM500 586q31 44 107 44q263 0 263 -270q0 -115 -88.5 -237.5t-194.5 -122.5q-97 0 -192 122.5t-95 207.5v458q0 78 75 117l525 255l525 -255q75 -39 75 -117v-688q0 -100 -81 -100q-82 0 -175.5 55t-93.5 138t75 155t75 152v238l-400 199l-400 -199v-152z
" />
    <glyph glyph-name="uni1790" unicode="&#x1790;" horiz-adv-x="1800" 
d="M1378.5 154q-121.5 -154 -263.5 -154h-441q-170 0 -322 199.5t-152 317.5l258 255l-183 228q-75 85 -75 126q0 39 93 123l208 188q69 63 101 63t156 -100q123 -100 352 -100q190 0 190 186q0 104 -50 184t60 80q190 0 190 -264q0 -386 -390 -386q-282 0 -500 150
l-160 -146l146 -163q74 -82 74 -157t-58 -139l-163 -172q83 -194 251 -273h373q131 40 182.5 127t44.5 163q0 100 -40 100q-30 0 -70 -60q-90 30 -90 100q0 160 160 160q240 0 240 -300q0 -182 -121.5 -336z" />
    <glyph glyph-name="uni1791" unicode="&#x1791;" horiz-adv-x="1800" 
d="M200 517l258 235q-95 185 -258 254q0 83 87 199q219 295 469 295h215q216 0 373 -106q156 -106 156 -275q0 -249 -168 -249t-172 100t70 100t73 49q-2 48 -101 115q-98 66 -231 66h-215q-152 0 -312 -229q78 -48 152 -140t74 -167t-75 -147l-156 -164q51 -156 191 -218
l222 150q166 115 312 115q145 0 240.5 -90t95.5 -210q0 -197 -126.5 -197t-140.5 91q67 56 67 106q0 100 -136 100q-117 0 -213 -75l-287 -225q-120 0 -302 155q-162 194 -162 362z" />
    <glyph glyph-name="uni1792" unicode="&#x1792;" horiz-adv-x="1800" 
d="M420 1104q102 -81 176 -163t74 -157t-58 -139l-163 -172q51 -146 171 -208l303 234l240 -259q41 0 92.5 87t104.5 130t96.5 43t43.5 -86q0 -106 -106.5 -260t-228.5 -154q-66 0 -276 206l-265 -206q-120 0 -272 199.5t-152 317.5l258 255l-183 228q-75 85 -75 126
q0 39 93 123q277 251 311 251t274 -216q211 216 246 216q34 0 295 -244q81 -67 81 -123t-44 -84t-134 28t-207 187l-237 -233l-257 239z" />
    <glyph glyph-name="uni1793" unicode="&#x1793;" horiz-adv-x="1800" 
d="M666 250h-116v-125q0 -125 -100 -125t-175 104.5t-75 225.5q0 120 150 120v450q-50 186 -150 188q0 138 71 177q599 235 624 235t524 -235q81 -39 81 -117v-88q0 -260 -175 -260t-175 100t75 100t75 98q-380 199 -405 199t-450 -176q105 -46 105 -221v-450h113
q200 0 311 -187q37 -63 137 -63q70 0 129.5 62t109.5 125t100 63t50 -86t-123 -225t-264 -139q-171 0 -272 156q-60 94 -175 94z" />
    <glyph glyph-name="uni1794" unicode="&#x1794;" horiz-adv-x="1800" 
d="M411 429q79 -132 253 -229h386q200 80 250 300v376q-40 136 -260 176l326 448q254 -194 334 -157q-20 -143 -82.5 -167.5t-238.5 73.5l-78 -95q179 -82 199 -258v-396q-40 -400 -450 -500h-386q-120 0 -302 155t-212 321l308 276q-108 210 -308 270l326 478
q284 -194 364 -157q-20 -143 -92.5 -167.5t-258.5 73.5l-98 -135q131 -91 205 -183t74 -167t-75 -147z" />
    <glyph glyph-name="uni1795" unicode="&#x1795;" horiz-adv-x="1800" 
d="M1165 0q-66 0 -276 206l-265 -206q-120 0 -272 199.5t-152 317.5l258 255l-183 228q-75 85 -75 126q0 39 93 123l208 188q69 63 101 63t156 -100q123 -100 352 -100q190 0 190 186q0 104 -50 184t60 80q190 0 190 -264q0 -386 -390 -386q-282 0 -500 150l-160 -146
l146 -163q74 -82 74 -157t-58 -139l-163 -172q51 -146 171 -208l303 234l240 -259q41 0 92.5 87t44.5 163q0 100 -60 100t-100 -60q-90 30 -90 100q0 160 190 160q260 0 260 -300q0 -182 -106.5 -336t-228.5 -154z" />
    <glyph glyph-name="uni1796" unicode="&#x1796;" horiz-adv-x="1800" 
d="M500 370q20 -140 87 -170q36 0 59.5 72t23.5 128q0 80 -63 80q-107 0 -107 -110zM1500 100q0 -100 -81 -100q-82 0 -175.5 55t-93.5 138t75 155t75 152v603l-161 132l-240 -165l-240 165l-159 -132v-477q31 44 107 44q263 0 263 -270q0 -155 -88.5 -277.5t-194.5 -122.5
q-97 0 -192 122.5t-95 247.5v765q0 76 87 150l258 215l254 -178l253 178l259 -215q89 -74 89 -150v-1035z" />
    <glyph glyph-name="uni1797" unicode="&#x1797;" horiz-adv-x="1800" 
d="M200 1270l250 170q84 60 120 60q37 0 327 -106q238 106 276 106q36 0 143.5 -60.5t283.5 -119.5q-108 -172 -198 -141q-91 30 -239 128l-266 -126l-308 109l-152 -101l50 -80l-114 -58l-173 164v55zM628 600v-200q0 -210 -68.5 -305t-163.5 -95q-146 0 -146 196
q178 84 178 284v120q0 109 -128 188q0 78 75 117l525 255l525 -255q75 -39 75 -117v-688q0 -100 -81 -100q-82 0 -175.5 55t-93.5 138t75 155t75 152v238l-400 199l-346 -174q74 -54 74 -163z" />
    <glyph glyph-name="uni1798" unicode="&#x1798;" horiz-adv-x="1800" 
d="M621 645q-11 -14 -26 -28l-184 -188q79 -132 253 -229h386q200 80 250 300v145h-679zM1300 845v31q-40 136 -260 176l326 448q254 -194 334 -157q-20 -143 -82.5 -167.5t-238.5 73.5l-78 -95q179 -82 199 -258v-396q-40 -400 -450 -500h-386q-120 0 -302 155t-212 321
l308 276q-108 210 -308 270l326 478q284 -194 364 -157q-20 -143 -92.5 -167.5t-258.5 73.5l-98 -135q131 -91 205 -183q36 -45 55 -86h649z" />
    <glyph glyph-name="uni1799" unicode="&#x1799;" horiz-adv-x="2750" 
d="M1427 186q-113 -134 -327 -186h-356q-120 0 -282 155t-162 321v533q0 127 156.5 309t244.5 182t130 -91t-144 -186q-187 -95 -187 -217v-547q100 -162 244 -259h356q200 80 250 300v376q-40 136 -260 176l326 448q254 -194 334 -157q-20 -143 -82.5 -167.5t-238.5 73.5
l-78 -95q179 -82 199 -258v-396q-6 -57 -19 -107q89 -112 233 -193h236q200 80 250 300v376q-40 136 -260 176l326 448q254 -194 334 -157q-20 -143 -82.5 -167.5t-238.5 73.5l-78 -95q179 -82 199 -258v-396q-40 -400 -420 -500h-306q-126 0 -297 186z" />
    <glyph glyph-name="uni179A" unicode="&#x179a;" horiz-adv-x="850" 
d="M550 490q0 -270 -90 -380t-195 -110q-115 0 -115 165q0 75 100 160t100 175v376q0 136 -200 176l286 448q194 -234 364 -87q0 -123 -82.5 -212.5t-258.5 18.5l-58 -85q149 -72 149 -188v-456z" />
    <glyph glyph-name="uni179B" unicode="&#x179b;" horiz-adv-x="2700" 
d="M1300 948l-400 317l-400 -317v-468q0 -40 103.5 -127t63.5 -220t-135 -133t-163.5 75t-68.5 215v618q0 124 75 186l525 406l525 -406q68 -56 121.5 -134t53.5 -136q0 -95 -72 -170l-165 -173q89 -164 261 -281h366q160 80 210 300v376q-40 136 -260 176l326 448
q254 -194 334 -157q-20 -143 -82.5 -167.5t-238.5 73.5l-78 -95q179 -82 199 -258v-396q-40 -400 -410 -500h-366q-180 0 -336 181t-186 347l286 284q1 67 -88 136z" />
    <glyph glyph-name="uni179C" unicode="&#x179c;" horiz-adv-x="850" 
d="M350 876q0 136 -200 176l286 448q97 -117 168 -128.5t19 428.5q177 -125 177 -365q0 -170 -82.5 -247t-258.5 31l-58 -85q149 -72 149 -188v-456q0 -270 -90 -380t-195 -110q-115 0 -115 165q0 75 100 160t100 175v376z" />
    <glyph glyph-name="uni179D" unicode="&#x179d;" horiz-adv-x="1800" 
d="M200 1270l250 170q84 60 120 60q37 0 327 -106q238 106 276 106q36 0 143.5 -60.5t283.5 -119.5q-108 -172 -198 -141q-91 30 -239 128l-266 -126l-308 109l-152 -101l50 -80l-114 -58l-173 164v55zM1300 666v72l-400 199l-400 -199v-258q0 -40 103.5 -127t63.5 -220
t-135 -133t-163.5 75t-68.5 215v498q0 78 75 117l525 255l525 -255q75 -39 75 -117v-122h200v-200h-200v-366q0 -100 -81 -100q-82 0 -175.5 55t-93.5 138t75 155q59 57 72 118h-197v200h200z" />
    <glyph glyph-name="uni179E" unicode="&#x179e;" horiz-adv-x="1800" 
d="M1500 596v-96q-40 -400 -450 -500h-386q-120 0 -302 155t-212 321l308 276q-108 210 -308 270l326 478q284 -194 364 -157q-20 -143 -92.5 -167.5t-258.5 73.5l-98 -135q131 -91 205 -183t74 -167t-75 -147l-184 -188q79 -132 253 -229h386q200 80 250 300v96h-200v200
h200v80q-40 136 -260 176l326 448q254 -194 334 -157q-20 -143 -82.5 -167.5t-238.5 73.5l-78 -95q179 -82 199 -258v-100h200v-200h-200z" />
    <glyph glyph-name="uni179F" unicode="&#x179f;" horiz-adv-x="2700" 
d="M1108 1001q-97 58 -286 92l308 407q244 -176 324 -143q-20 -129 -82.5 -161.5t-228.5 46.5l-28 -57q159 -64 208 -140q32 -49 41 -131l16 -8q189 -151 92 -299l-98 -149q86 -161 280 -258h306q190 80 240 300v376q-40 136 -260 176l326 448q254 -194 334 -157
q-20 -143 -82.5 -167.5t-238.5 73.5l-78 -95q179 -82 199 -258v-396q-40 -400 -440 -500h-306q-120 0 -322 155t-202 321l150 252q-360 159 -570 79.5t-210 -207.5q0 -230 113.5 -287t103.5 -185t-105 -128t-203.5 75t-108.5 215v310q0 206 226.5 328.5t581.5 72.5z" />
    <glyph glyph-name="uni17A0" unicode="&#x17a0;" horiz-adv-x="2750" 
d="M1500 500q-40 -400 -450 -500h-386q-120 0 -302 155t-212 321l308 276q-108 210 -308 270l326 478q284 -194 364 -157q-20 -143 -92.5 -167.5t-258.5 73.5l-98 -135q131 -91 205 -183t74 -167t-75 -147l-184 -188q79 -132 253 -229h386q200 80 250 300v376
q0 112 -102 147q-34 12 -34 43q0 30 37 56q547 378 604 378q59 0 645 -360v-1040q0 -100 -81 -100q-82 0 -175.5 55t-93.5 138t75 155t75 152v522l-451 255l-324 -232q25 -45 25 -99v-446z" />
    <glyph glyph-name="uni17A1" unicode="&#x17a1;" horiz-adv-x="2750" 
d="M2250 -728v1604q0 136 -200 176l286 448q234 -194 314 -157q-20 -143 -82.5 -167.5t-218.5 73.5l-58 -85q159 -82 159 -218v-1674q0 -222 -116 -222q-117 0 -205 56l-87 56l-176 111l-115 -167q-38 -56 -127 -56q-90 0 -163 32l-72 31q-139 63 -139 152.5t55 150.5l56 61
q39 40 39 82q0 41 -49 41q-99 0 -96.5 100t99.5 100q246 0 246 -241q0 -86 -76 -166l-77 -80l153 -65l240 265zM200 517l258 235q-95 185 -258 254q0 83 87 199q219 295 469 295h215q216 0 373 -106q156 -106 156 -275q0 -249 -168 -249t-172 100t70 100t73 49
q-2 48 -101 115q-98 66 -231 66h-215q-152 0 -312 -229q78 -48 152 -140t74 -167t-75 -147l-156 -164q51 -156 191 -218l222 150q166 115 312 115q145 0 240.5 -90t95.5 -210q0 -197 -126.5 -197t-140.5 91q67 56 67 106q0 100 -136 100q-117 0 -213 -75l-287 -225
q-120 0 -302 155q-162 194 -162 362z" />
    <glyph glyph-name="uni17A2" unicode="&#x17a2;" horiz-adv-x="1800" 
d="M550 645v-155q0 -270 -90 -380t-195 -110q-115 0 -115 165q0 75 100 160t100 175v376q0 136 -200 176l286 448q284 -194 364 -157q-20 -143 -92.5 -167.5t-258.5 73.5l-58 -85q159 -82 159 -218v-101h750v31q0 136 -200 176l286 448q234 -194 314 -157
q-20 -143 -82.5 -167.5t-218.5 73.5l-58 -85q159 -82 159 -218v-456q0 -270 -90 -380t-195 -110q-115 0 -115 165q0 75 100 160t100 175v145h-750z" />
    <glyph glyph-name="uni17A3" unicode="&#x17a3;" horiz-adv-x="1800" 
d="M550 645v-155q0 -270 -90 -380t-195 -110q-115 0 -115 165q0 75 100 160t100 175v376q0 136 -200 176l286 448q284 -194 364 -157q-20 -143 -92.5 -167.5t-258.5 73.5l-58 -85q159 -82 159 -218v-101h750v31q0 136 -200 176l286 448q234 -194 314 -157
q-20 -143 -82.5 -167.5t-218.5 73.5l-58 -85q159 -82 159 -218v-456q0 -270 -90 -380t-195 -110q-115 0 -115 165q0 75 100 160t100 175v145h-750z" />
    <glyph glyph-name="uni17A4" unicode="&#x17a4;" horiz-adv-x="2750" 
d="M1500 490q0 -270 -90 -380t-195 -110q-115 0 -115 165q0 75 100 160t100 175v145h-750v-155q0 -270 -90 -380t-195 -110q-115 0 -115 165q0 75 100 160t100 175v376q0 136 -200 176l286 448q284 -194 364 -157q-20 -143 -92.5 -167.5t-258.5 73.5l-58 -85
q159 -82 159 -218v-101h750v31q0 112 -102 147q-34 12 -34 43q0 30 37 56q547 378 604 378q59 0 645 -360v-1040q0 -100 -81 -100q-82 0 -175.5 55t-93.5 138t75 155t75 152v522l-451 255l-324 -232q25 -45 25 -99v-456z" />
    <glyph glyph-name="uni17A5" unicode="&#x17a5;" horiz-adv-x="1800" 
d="M500 330q20 -100 87 -130q36 0 59.5 52t23.5 108q0 80 -63 80q-107 0 -107 -110zM877 1149l23 11l525 -255q75 -39 75 -117v-688q0 -100 -81 -100q-82 0 -175.5 55t-93.5 138t75 155t75 152v238l-400 199l-400 -199v-152q31 44 107 44q263 0 263 -270
q0 -115 -88.5 -237.5t-194.5 -122.5q-97 0 -192 122.5t-95 207.5v458q0 78 75 117l282 137l-40 26q-98 57 -111 96q-12 77 50 146l135 127q69 63 101 63t156 -100q93 -70 192 -70q160 0 160 156q0 104 -50 184t60 80q190 0 190 -264q0 -356 -360 -356q-152 0 -340 120
l-38 -35z" />
    <glyph glyph-name="uni17A6" unicode="&#x17a6;" horiz-adv-x="2600" 
d="M500 -708q20 -73 87 -95q36 0 59.5 38t23.5 79q0 59 -63 59q-107 0 -107 -81zM500 330q20 -100 87 -130q36 0 59.5 52t23.5 108q0 80 -63 80q-107 0 -107 -110zM900 1160l525 -255q75 -39 75 -117v-688q0 -100 -81 -100q-82 0 -175.5 55t-93.5 138t75 155t75 152v238
l-400 199l-400 -199v-152q31 44 107 44q263 0 263 -270q0 -115 -88.5 -237.5t-194.5 -122.5q-97 0 -192 122.5t-95 207.5v458q0 78 75 117zM1300 -439l-400 146l-400 -146v-81q31 32 107 32q263 0 263 -198q0 -84 -88.5 -174t-194.5 -90q-97 0 -192 90t-95 152v336
q0 57 75 86l525 186l525 -186q75 -29 75 -86v-178q90 -200 200 -200h200q200 0 200 200v2250q0 400 -200 400q-278 0 -381 -97q-100 -115 -185 -58q-39 26 -39 66q0 49 56 119q185 228 218 485q11 85 116 85t61 -240q-17 -92 -54 -184q66 24 208 24q400 0 400 -600v-2250
q0 -400 -400 -400h-200q-111 0 -200 73q-1 -73 -81 -73q-82 0 -175.5 40.5t-93.5 101.5t75 113.5t75 111.5v144z" />
    <glyph glyph-name="uni17A7" unicode="&#x17a7;" horiz-adv-x="1800" 
d="M947 0q-89 0 -266.5 198.5t-21.5 297.5q641 447 641 564q0 240 -400 240t-400 -190q0 -130 96 -130q0 120 105.5 139t140 -74.5t-31 -169t-214.5 -75.5q-296 0 -296 310q0 210 176.5 300t423.5 90t423.5 -85t176.5 -355q0 -257 -664 -704l114 -131l350 249
q200 46 200 -72v-362q0 -100 -45 -188q-31 -61 -85 -61q-23 0 -50 11q-90 38 -55 103t35 135v194q-305 -232 -353 -234z" />
    <glyph glyph-name="uni17A8" unicode="&#x17a8;" horiz-adv-x="1800" 
d="M947 0q-89 0 -266.5 198.5t-21.5 297.5q641 447 641 564q0 240 -400 240t-400 -190q0 -130 96 -130q0 120 105.5 139t140 -74.5t-31 -169t-214.5 -75.5q-296 0 -296 310q0 210 176.5 300t423.5 90t423.5 -85t176.5 -355q0 -257 -664 -704l114 -131l350 249
q200 46 200 -72v-362q0 -100 -45 -188q-31 -61 -85 -61q-23 0 -50 11q-90 38 -55 103t35 135v194q-305 -232 -353 -234zM200 1798q0 48 63 91l187 127q84 60 120 60q37 0 327 -116q238 116 276 116q36 0 143.5 -60.5t283.5 -119.5q-92 -146 -170 -146q-14 0 -28 5
q-91 30 -239 128l-266 -133l-308 116l-76 -58q-76 -58 -194 -58q-119 0 -119 48z" />
    <glyph glyph-name="uni17A9" unicode="&#x17a9;" horiz-adv-x="1854" 
d="M947 0q-89 0 -266.5 198.5t-21.5 297.5q641 447 641 564q0 240 -400 240t-400 -190q0 -130 96 -130q0 120 105.5 139t140 -74.5t-31 -169t-214.5 -75.5q-296 0 -296 310q0 210 176.5 300t423.5 90t423.5 -85t176.5 -355q0 -257 -664 -704l114 -131l350 249
q200 46 200 -72v-362q0 -100 -45 -188q-31 -61 -85 -61q-23 0 -50 11q-90 38 -55 103t35 135v194q-305 -232 -353 -234zM1854 359v-470q0 -100 -100 -100t-100 100v440q0 70 -45 90t-45 105t130 85q160 0 160 -250z" />
    <glyph glyph-name="uni17AA" unicode="&#x17aa;" horiz-adv-x="1800" 
d="M275 1640q-75 85 -75 126q0 39 93 123l208 188q69 63 101 63t156 -100q123 -100 352 -100q190 0 190 186q0 104 -50 184t60 80q190 0 190 -264q0 -386 -390 -386q-282 0 -500 150l-160 -146l159 -178l-183 -114zM947 0q-89 0 -266.5 198.5t-21.5 297.5q641 447 641 564
q0 240 -400 240t-400 -190q0 -130 96 -130q0 120 105.5 139t140 -74.5t-31 -169t-214.5 -75.5q-296 0 -296 310q0 210 176.5 300t423.5 90t423.5 -85t176.5 -355q0 -257 -664 -704l114 -131l350 249q200 46 200 -72v-362q0 -100 -45 -188q-31 -61 -85 -61q-23 0 -50 11
q-90 38 -55 103t35 135v194q-305 -232 -353 -234z" />
    <glyph glyph-name="uni17AB" unicode="&#x17ab;" horiz-adv-x="1800" 
d="M411 429q79 -132 253 -229h386q200 80 250 300v376q-40 136 -260 176l326 448q254 -194 334 -157q-20 -143 -82.5 -167.5t-238.5 73.5l-78 -95q179 -82 199 -258v-396q-40 -400 -450 -500h-386q-120 0 -302 155t-212 321l308 276q-108 210 -308 270l326 478
q284 -194 364 -157q-20 -143 -92.5 -167.5t-258.5 73.5l-98 -135q131 -91 205 -183t74 -167t-75 -147zM1188 -113q27 -81 32 -130q29 -141 -30.5 -283t-230.5 -257q-149 -112 -322 -153q-49 -14 -85 -14q-69 0 -93 54q-36 82 104 127t272 143q268 203 173 419
q-41 51 37.5 113t142.5 -19z" />
    <glyph glyph-name="uni17AC" unicode="&#x17ac;" horiz-adv-x="1800" 
d="M411 429q79 -132 253 -229h386q200 80 250 300v376q-40 136 -260 176l326 448q254 -194 334 -157q-20 -143 -82.5 -167.5t-238.5 73.5l-78 -95q179 -82 199 -258v-396q-40 -400 -450 -500h-386q-120 0 -302 155t-212 321l308 276q-108 210 -308 270l326 478
q284 -194 364 -157q-20 -143 -92.5 -167.5t-258.5 73.5l-98 -135q131 -91 205 -183t74 -167t-75 -147zM1188 -113q27 -81 32 -130q29 -141 81.5 -167.5t98.5 -84.5q18 -22 18 -84q0 -68 -72.5 -88.5t-150.5 172.5q-65 -173 -236 -288q-149 -112 -322 -153q-49 -14 -85 -14
q-69 0 -93 54q-36 82 104 127t272 143q295 264 173 419q-41 51 37.5 113t142.5 -19z" />
    <glyph glyph-name="uni17AD" unicode="&#x17ad;" horiz-adv-x="1800" 
d="M500 370q20 -140 87 -170q36 0 59.5 72t23.5 128q0 80 -63 80q-107 0 -107 -110zM1500 100q0 -100 -81 -100q-82 0 -175.5 55t-93.5 138t75 155t75 152v603l-161 132l-240 -165l-240 165l-159 -132v-477q31 44 107 44q263 0 263 -270q0 -155 -88.5 -277.5t-194.5 -122.5
q-97 0 -192 122.5t-95 247.5v765q0 76 87 150l258 215l254 -178l253 178l259 -215q89 -74 89 -150v-1035zM1188 -113q27 -81 32 -130q29 -141 -30.5 -283t-230.5 -257q-149 -112 -322 -153q-49 -14 -85 -14q-69 0 -93 54q-36 82 104 127t272 143q268 203 173 419
q-41 51 37.5 113t142.5 -19z" />
    <glyph glyph-name="uni17AE" unicode="&#x17ae;" horiz-adv-x="1800" 
d="M500 370q20 -140 87 -170q36 0 59.5 72t23.5 128q0 80 -63 80q-107 0 -107 -110zM1500 100q0 -100 -81 -100q-82 0 -175.5 55t-93.5 138t75 155t75 152v603l-161 132l-240 -165l-240 165l-159 -132v-477q31 44 107 44q263 0 263 -270q0 -155 -88.5 -277.5t-194.5 -122.5
q-97 0 -192 122.5t-95 247.5v765q0 76 87 150l258 215l254 -178l253 178l259 -215q89 -74 89 -150v-1035zM1188 -113q27 -81 32 -130q29 -141 81.5 -167.5t98.5 -84.5q18 -22 18 -84q0 -68 -72.5 -88.5t-150.5 172.5q-65 -173 -236 -288q-149 -112 -322 -153
q-49 -14 -85 -14q-69 0 -93 54q-36 82 104 127t272 143q295 264 173 419q-41 51 37.5 113t142.5 -19z" />
    <glyph glyph-name="uni17AF" unicode="&#x17af;" horiz-adv-x="1800" 
d="M465 434q52 -116 155 -169l303 234l240 -259q41 0 92.5 87t44.5 163v1010q0 150 -114 289l-142 157q-116 93 -52 169q28 33 62 33q46 0 103 -57l165 -172q178 -179 178 -419v-1010q0 -182 -106.5 -336t-228.5 -154q-66 0 -276 206l-265 -206q-120 0 -272 200
q-127 166 -152 276l333 406l9 68q8 67 -92 220q-34 51 -64 34q-30 -18 18.5 -59t28 -116t-126.5 -68t-106 150t106.5 266t154.5 123t152 -191q127 -240 127 -332v-93q0 -75 -275 -450z" />
    <glyph glyph-name="uni17B0" unicode="&#x17b0;" horiz-adv-x="1800" 
d="M1109 -447q103 -53 147 -26t44 112q0 104 -17 108q-67 -111 -174 -194zM750 -706q0 -45 107 -47t149 213q-112 -76 -151 -106.5t-105 -59.5zM500 370q20 -140 87 -170q36 0 59.5 72t23.5 128q0 80 -63 80q-107 0 -107 -110zM1300 500v603l-161 132l-240 -165l-240 165
l-159 -132v-477q31 44 107 44q263 0 263 -270q0 -155 -88.5 -277.5t-194.5 -122.5q-97 0 -192 122.5t-95 247.5v765q0 76 87 150l258 215l254 -178l253 178l259 -215q89 -74 89 -150v-1496q0 -231 -114.5 -293t-243.5 7q-13 -164 -111 -233.5t-206 -69.5q-109 0 -192 73
t-83 183q0 109 55 138q299 156 449.5 330t198 345t47.5 381z" />
    <glyph glyph-name="uni17B1" unicode="&#x17b1;" horiz-adv-x="1800" 
d="M956 1499q211 -9 368 -84q176 -85 176 -355q0 -257 -664 -704l114 -131l350 249q200 46 200 -72v-362q0 -100 -45 -188q-31 -61 -85 -61q-23 0 -50 11q-90 38 -55 103t35 135v194q-305 -232 -353 -234q-89 0 -266.5 198.5t-21.5 297.5q641 447 641 564q0 240 -400 240
t-400 -190q0 -130 96 -130q0 120 105.5 139t140 -74.5t-31 -169t-214.5 -75.5q-296 0 -296 310q0 210 177 300q102 52 229 74l-193 135q-149 105 -33 236l117 133q59 64 128 64q60 0 127 -50l233 -187q96 -72 202 -104q83 -24 83 -89q0 -18 -6 -38q-29 -97 -142 -63
q-151 45 -270 135l-231 177l-77 -82z" />
    <glyph glyph-name="uni17B2" unicode="&#x17b2;" horiz-adv-x="1800" 
d="M1100 1300h-400q-200 0 -200 -200v-700q0 -200 200 -200h400q200 0 200 200q0 44 -39 81q-29 28 -105 36q-12 -9 -25 -17l-29 -18q-88 -55 -132.5 15t49.5 132q162 103 236 184q45 52 45 77q0 33 -44.5 46.5t-122.5 13.5q-80 0 -123 -14t-43 -46q133 21 133 -84.5
t-151 -105.5q-78 0 -130 62.5t-52 127.5q0 112 93 186t273 74q179 0 273 -73.5t94 -186.5q0 -45 -40 -106q-48 -76 -156 -161q85 -21 133 -67q63 -61 63 -156q0 -400 -400 -400h-400q-400 0 -400 400v700q0 400 400 400h400q219 0 309.5 -124.5t33 -152t-139.5 24.5t-203 52
z" />
    <glyph glyph-name="uni17B3" unicode="&#x17b3;" horiz-adv-x="1800" 
d="M1222 1521q-151 45 -270 135l-231 177l-77 -82l312 -252q211 -9 368 -84q176 -85 176 -355q0 -257 -664 -704l114 -131l350 249q200 46 200 -72v-362q0 -100 -45 -188q-31 -61 -85 -61q-23 0 -50 11q-90 38 -55 103t35 135v194q-305 -232 -353 -234q-89 0 -266.5 198.5
t-21.5 297.5q641 447 641 564q0 240 -400 240t-400 -190q0 -130 96 -130q0 120 105.5 139t140 -74.5t-31 -169t-214.5 -75.5q-296 0 -296 310q0 210 177 300q102 52 229 74l-193 135q-149 105 -33 236l117 133q59 64 128 64q60 0 127 -50l233 -187q96 -72 202 -104
q7 -2 13 -4v393q0 100 100 100t100 -100v-396q0 -264 -278 -183z" />
    <glyph glyph-name="uni17B4" unicode="&#x17b4;" horiz-adv-x="1536" 
d="M256 0v1280h1024v-1280h-1024zM288 32h960v1216h-960v-1216z" />
    <glyph glyph-name="uni17B5" unicode="&#x17b5;" horiz-adv-x="1536" 
d="M256 0v1280h1024v-1280h-1024zM288 32h960v1216h-960v-1216z" />
    <glyph glyph-name="uni17B6" unicode="&#x17b6;" horiz-adv-x="800" 
d="M300 1032l-431 245l-375 -326l-80 213q401 336 461 336q59 0 625 -360v-1040q0 -100 -81 -100q-82 0 -175.5 55t-93.5 138t75 155t75 152v532z" />
    <glyph glyph-name="uni17B7" unicode="&#x17b7;" 
d="M-1460 1950q0 100 60 200l120 200q60 100 111 100t129 -44l543 -305q155 -86 156 -168q1 -1 1 -2q0 -81 -145 -81h-755q-220 0 -220 100zM-1240 2050h460l-362 179z" />
    <glyph glyph-name="uni17B8" unicode="&#x17b8;" 
d="M-1240 2050h460l-362 179zM-340 1933q0 -83 -145 -83h-755q-220 0 -220 100t60 200l120 200q60 100 111 100t129 -44l500 -281v275q0 100 100 100t100 -100v-467z" />
    <glyph glyph-name="uni17B9" unicode="&#x17b9;" 
d="M-1240 2050h460l-362 179zM-665 2250q0 -37 20 -56q19 -19 55 -19q39 0 57 19t18 56q0 38 -18 56q-18 19 -57 19q-36 0 -55 -19q-20 -18 -20 -56zM-416 2048q75 -58 75 -115q1 -1 1 -2q0 -81 -145 -81h-755q-220 0 -220 100t60 200l120 200q60 100 111 100t129 -44
l202 -113q10 93 61 145q62 62 187 62q127 0 189 -62q61 -63 61 -188t-61 -188q-7 -7 -15 -14z" />
    <glyph glyph-name="uni17BA" unicode="&#x17ba;" 
d="M-1240 2050h460l-362 179zM-650 2187l110 -62v275q0 100 100 100t100 -100v-467q0 -83 -145 -83h-755q-220 0 -220 100t60 200l120 200q60 100 111 100t129 -44l190 -107v101q0 100 100 100t100 -100v-213z" />
    <glyph glyph-name="uni17BB" unicode="&#x17bb;" 
d="M-400 -350v-500q0 -100 -100 -100t-100 100v400q0 70 -65 90t-65 115t130 95q200 0 200 -200z" />
    <glyph glyph-name="uni17BC" unicode="&#x17bc;" 
d="M-978 -701q-6 -56 66.5 -63t203.5 97t275 280t163.5 163t19.5 -66q0 -54 -40 -129q-285 -531 -640 -531q-182 0 -257 140q-22 43 -22 83q0 94 118 178q272 240 312 289q-71 48 -46 104t135 56q96 0 125.5 -78.5t-48.5 -183.5q-170 -211 -365 -339z" />
    <glyph glyph-name="uni17BD" unicode="&#x17bd;" 
d="M-711 -716q118 82 180 205t104 237q35 95 100.5 92.5t74.5 -55.5q2 -12 2 -25q0 -46 -21 -108q-144 -484 -455 -580l-144 144q-143 -144 -271 -144q-145 12 -211 180q-18 45 -18 86q0 110 132 187q181 106 300 205t102 158q62 34 132 34q69 0 74.5 -57.5t-90.5 -181.5
t-409 -322q-66 -56 20 -103q65 0 243 172z" />
    <glyph glyph-name="uni17BE" unicode="&#x17be;" 
d="M-1240 2050h460l-362 179zM-340 1933q0 -83 -145 -83h-755q-220 0 -220 100t60 200l120 200q60 100 111 100t129 -44l500 -281v275q0 100 100 100t100 -100v-467z" />
    <glyph glyph-name="uni17BF" unicode="&#x17bf;" horiz-adv-x="800" 
d="M-580 2200h460l-362 179zM320 2125q180 -145 180 -505v-2270q0 -300 -300 -300h-400q-300 0 -300 300v350q0 100 100 100t100 -100v-350q0 -100 100 -100h400q100 0 100 100v2270q0 319 -245 380h-635q-220 0 -220 100t60 200l120 200q60 100 111 100t129 -44l190 -107
v101q0 100 100 100t100 -100v-213l110 -62v275q0 100 100 100t100 -100v-425z" />
    <glyph glyph-name="uni17C0" unicode="&#x17c0;" horiz-adv-x="800" 
d="M500 1700v-2350q0 -300 -300 -300h-400q-300 0 -300 300v350q0 100 100 100t100 -100v-350q0 -100 100 -100h400q100 0 100 100v2350q0 400 -200 400q-278 0 -381 -97q-100 -115 -185 -58q-39 26 -39 66q0 49 56 119q185 228 218 485q11 85 116 85t61 -240
q-17 -92 -54 -184q66 24 208 24q400 0 400 -600z" />
    <glyph glyph-name="uni17C1" unicode="&#x17c1;" horiz-adv-x="800" 
d="M500 1143v-643q0 -90 100 -175t100 -160q0 -165 -115 -165q-105 0 -195 85t-90 315v1100h86q234 -264 314 -227q-20 -143 -92 -167q-43 -15 -108 37z" />
    <glyph glyph-name="uni17C2" unicode="&#x17c2;" horiz-adv-x="800" 
d="M824 2551q24 -10 24 -55q0 -87 -92 -304l-139 -329l-227 -23l8 -94l103 13q103 12 116 -53q12 -65 -87 -78l-198 -27q-11 -1 -20 -1q-80 0 -90 97l-21 219q-1 11 -1 21q0 89 88 99l208 24l128 261q114 233 184 233q8 0 16 -3zM500 1143v-643q0 -90 100 -175t100 -160
q0 -165 -115 -165q-105 0 -195 85t-90 315v1100h86q234 -264 314 -227q-20 -143 -92 -167q-43 -15 -108 37z" />
    <glyph glyph-name="uni17C3" unicode="&#x17c3;" horiz-adv-x="800" 
d="M40 2554q70 0 184 -233l128 -261l208 -24q88 -10 88 -99q0 -10 -1 -21l-21 -219q-10 -97 -90 -97q-9 0 -20 1l-198 27q-99 13 -87 78q13 65 116 53l103 -13l8 94l-227 23l-139 329q-92 217 -92 304q0 45 24 55q8 3 16 3zM500 1143v-643q0 -90 100 -175t100 -160
q0 -165 -115 -165q-105 0 -195 85t-90 315v1100h86q234 -264 314 -227q-20 -143 -92 -167q-43 -15 -108 37z" />
    <glyph glyph-name="uni17C4" unicode="&#x17c4;" horiz-adv-x="800" 
d="M300 1032l-431 245l-375 -326l-80 213q401 336 461 336q59 0 625 -360v-1040q0 -100 -81 -100q-82 0 -175.5 55t-93.5 138t75 155t75 152v532z" />
    <glyph glyph-name="uni17C5" unicode="&#x17c5;" horiz-adv-x="800" 
d="M500 1000v-900q0 -100 -81 -100q-82 0 -175.5 55t-93.5 138t75 155t75 152v532l-431 245l-167 -145l-131 161q257 207 304 207q54 0 525 -297v467q0 40 -50 60t-50 95t100 75q200 0 200 -230v-470q0 -150 -100 -200z" />
    <glyph glyph-name="uni17C6" unicode="&#x17c6;" 
d="M-1000 2100q0 -37 20 -56q19 -19 55 -19q39 0 57 19t18 56q0 38 -18 56q-18 19 -57 19q-36 0 -55 -19q-20 -18 -20 -56zM-675 2100q0 -125 -61 -188q-62 -62 -189 -62q-125 0 -187 62q-63 63 -63 188t63 188q62 62 187 62q127 0 189 -62q61 -63 61 -188z" />
    <glyph glyph-name="uni17C7" unicode="&#x17c7;" horiz-adv-x="1100" 
d="M475 300q0 -37 20 -56q19 -19 55 -19q39 0 57 19t18 56q0 38 -18 56q-18 19 -57 19q-36 0 -55 -19q-20 -18 -20 -56zM800 300q0 -125 -61 -188q-62 -62 -189 -62q-125 0 -187 62q-63 63 -63 188t63 188q62 62 187 62q127 0 189 -62q61 -63 61 -188zM475 1200
q0 -37 20 -56q19 -19 55 -19q39 0 57 19t18 56q0 38 -18 56q-18 19 -57 19q-36 0 -55 -19q-20 -18 -20 -56zM800 1200q0 -125 -61 -188q-62 -62 -189 -62q-125 0 -187 62q-63 63 -63 188t63 188q62 62 187 62q127 0 189 -62q61 -63 61 -188z" />
    <glyph glyph-name="uni17C8" unicode="&#x17c8;" horiz-adv-x="900" 
d="M475 1400q44 0 86 -22.5t65.5 -64.5t23.5 -88t-23 -87.5t-65 -64.5t-87 -23t-87 23t-65 64.5t-23 87.5t23.5 88t65.5 64.5t86 22.5zM475 450q44 0 86 -22.5t65.5 -64.5t23.5 -88t-23 -87.5t-65 -64.5t-87 -23t-87 23t-65 64.5t-23 87.5t23.5 88t65.5 64.5t86 22.5z" />
    <glyph glyph-name="uni17C9" unicode="&#x17c9;" 
d="M-600 1984q0 -107 -100 -134q-100 27 -100 134v286q0 40 -35 60t-35 95t100 75q170 0 170 -230v-286zM-1000 1984q0 -107 -100 -134q-100 27 -100 134v286q0 40 -35 60t-35 95t100 75q170 0 170 -230v-286z" />
    <glyph glyph-name="uni17CA" unicode="&#x17ca;" 
d="M-1600 1798q0 48 63 91l187 127q84 60 120 60q37 0 327 -116q238 116 276 116q36 0 143.5 -60.5t283.5 -119.5q-92 -146 -170 -146q-14 0 -28 5q-91 30 -239 128l-266 -133l-308 116l-76 -58q-76 -58 -194 -58q-119 0 -119 48z" />
    <glyph glyph-name="uni17CB" unicode="&#x17cb;" 
d="M-800 1984q0 -107 -100 -134q-100 27 -100 134v286q0 40 -35 60t-35 95t100 75q170 0 170 -230v-286z" />
    <glyph glyph-name="uni17CC" unicode="&#x17cc;" 
d="M-1148 1920q-84 -70 -137 -70q-44 0 -72 35q-18 24 -18 49q0 53 89 111l130 83q196 125 274 306q82 181 82 237q0 129 99 129q101 0 101 -129q0 -95 -85 -241q-86 -146 -168 -247q76 -5 197 -29q120 -25 204 -131q27 -45 27 -80q0 -49 -52 -76q-29 -17 -57 -17
q-52 0 -93 65q-61 97 -155 109q-163 13 -222 -11q-60 -25 -144 -93z" />
    <glyph glyph-name="uni17CD" unicode="&#x17cd;" 
d="M-348 2728q2 -13 2 -26q0 -49 -39 -103q-51 -69 -192.5 -212t-232 -184t-135.5 -41q-97 82 -180 82q-59 0 -94 -41.5t-35 -80.5q0 -75 76 -75q66 0 66 26q0 16 92 16t92 -65q0 -86 -58 -130t-185 -44q-137 0 -210 64.5t-73 205.5q0 157 79 243.5t211 86.5q166 0 230 -73
q99 37 241.5 190t171.5 196q24 35 72 35q11 0 22 -2q65 -9 79 -68z" />
    <glyph glyph-name="uni17CE" unicode="&#x17ce;" 
d="M-1000 2049h-200v201h200v199h200v-199h200v-201h-200v-199h-200v199z" />
    <glyph glyph-name="uni17CF" unicode="&#x17cf;" 
d="M-600 2650q150 0 150 -92q0 -93 -159 -185t-291 -92q-250 0 -250 -185q0 -86 48 -86q50 0 187 167q138 -167 200 -167q65 0 65 37q0 49 -90 49q0 123 145 123t145 -172q0 -197 -258 -197q-119 0 -207 123q-87 -123 -193 -123q-242 0 -242 246q0 345 345 345
q135 0 239 60.5t166 148.5z" />
    <glyph glyph-name="uni17D0" unicode="&#x17d0;" 
d="M-1004 2130q0 -48 39.5 -69t150.5 -21q138 0 224 113t108.5 208.5t-17 168t35.5 111.5q16 9 32 9q55 0 99 -104q32 -75 32 -158q0 -65 -19 -134q-45 -159 -170.5 -281.5t-324.5 -122.5q-140 0 -260 65t-120 185q8 103 101 92.5t89 -62.5z" />
    <glyph glyph-name="uni17D1" unicode="&#x17d1;" 
d="M-300 2050v-200h-1200v200h1200z" />
    <glyph glyph-name="uni17D2" unicode="&#x17d2;" 
d="M-500 -450h-150v-150h-100v150h-150v100h150v150h100v-150h150v-100z" />
    <glyph glyph-name="uni17D3" unicode="&#x17d3;" 
d="M-1140 2050q0 -75 60 -112q60 -38 180 -38t181 38q59 37 59 112t-59 113q-61 37 -181 37t-180 -37q-60 -38 -60 -113zM-500 2050q0 -150 -100 -225t-300 -75t-299 75q-101 75 -101 225t101 225q99 75 299 75t300 -75t100 -225z" />
    <glyph glyph-name="uni17D4" unicode="&#x17d4;" horiz-adv-x="1500" 
d="M1000 1442q0 58 100 58t100 -100v-1195q0 -117 -72.5 -161t-167.5 -44q-55 0 -82 25q-28 25 -28 76q63 0 106.5 18.5t43.5 85.5v966q-188 -171 -400 -171q-300 0 -300 250t250 250q100 0 100 -100t-100 -100q-50 0 -50 -50t100 -50q218 0 400 242z" />
    <glyph glyph-name="uni17D5" unicode="&#x17d5;" horiz-adv-x="1850" 
d="M1450 1500q100 0 100 -100v-1250q0 -75 -87.5 -112.5t-212.5 -37.5q50 25 75 62q25 38 25 88v1250q0 100 100 100zM1000 1442q0 58 100 58t100 -100v-1195q0 -117 -72.5 -161t-167.5 -44q-55 0 -82 25q-28 25 -28 76q63 0 106.5 18.5t43.5 85.5v966q-188 -171 -400 -171
q-300 0 -300 250t250 250q100 0 100 -100t-100 -100q-50 0 -50 -50t100 -50q218 0 400 242z" />
    <glyph glyph-name="uni17D6" unicode="&#x17d6;" horiz-adv-x="1250" 
d="M300 850v-200h650v200h-650zM550 300q0 -37 20 -56q19 -19 55 -19q39 0 57 19t18 56q0 38 -18 56q-18 19 -57 19q-36 0 -55 -19q-20 -18 -20 -56zM875 300q0 -125 -61 -188q-62 -62 -189 -62q-125 0 -187 62q-63 63 -63 188t63 188q62 62 187 62q127 0 189 -62
q61 -63 61 -188zM550 1200q0 -37 20 -56q19 -19 55 -19q39 0 57 19t18 56q0 38 -18 56q-18 19 -57 19q-36 0 -55 -19q-20 -18 -20 -56zM875 1200q0 -125 -61 -188q-62 -62 -189 -62q-125 0 -187 62q-63 63 -63 188t63 188q62 62 187 62q127 0 189 -62q61 -63 61 -188z" />
    <glyph glyph-name="uni17D7" unicode="&#x17d7;" horiz-adv-x="1650" 
d="M588 906q-130 0 -209 88t-79 195q1 82 312 311l272 -210l289 209q177 0 177 -99v-1000q0 -225 -129 -312.5t-337 -87.5q-207 0 -336 43.5t-129 181.5q0 58 54.5 87t114.5 29q0 -95 74 -118t222 -23q121 0 193.5 37.5t72.5 162.5v869l-264 -174l-254 174l-107 -80
q0 -50 16 -64q15 -15 47 -15q29 0 44 13q15 12 15 37q30 0 44 -21q15 -22 15 -66t-29.5 -105.5t-88.5 -61.5z" />
    <glyph glyph-name="uni17D8" unicode="&#x17d8;" horiz-adv-x="5700" 
d="M1000 1442q0 58 100 58t100 -100v-1195q0 -117 -72.5 -161t-167.5 -44q-55 0 -82 25q-28 25 -28 76q63 0 106.5 18.5t43.5 85.5v966q-188 -171 -400 -171q-300 0 -300 250t250 250q100 0 100 -100t-100 -100q-50 0 -50 -50t100 -50q218 0 400 242zM2800 948l-400 317
l-400 -317v-468q0 -40 103.5 -127t63.5 -220t-135 -133t-163.5 75t-68.5 215v618q0 124 75 186l525 406l525 -406q68 -56 121.5 -134t53.5 -136q0 -95 -72 -170l-165 -173q89 -164 261 -281h366q160 80 210 300v376q-40 136 -260 176l326 448q254 -194 334 -157
q-20 -143 -82.5 -167.5t-238.5 73.5l-78 -95q179 -82 199 -258v-396q-40 -400 -410 -500h-366q-180 0 -336 181t-186 347l286 284q1 67 -88 136zM5200 1442q0 58 100 58t100 -100v-1195q0 -117 -72.5 -161t-167.5 -44q-55 0 -82 25q-28 25 -28 76q63 0 106.5 18.5t43.5 85.5
v966q-188 -171 -400 -171q-300 0 -300 250t250 250q100 0 100 -100t-100 -100q-50 0 -50 -50t100 -50q218 0 400 242z" />
    <glyph glyph-name="uni17D9" unicode="&#x17d9;" horiz-adv-x="2100" 
d="M950 0q-349 0 -525 175q-175 175 -175 525t175 525q176 175 525 175t525 -175q175 -175 175 -525t-175 -525q-176 -175 -525 -175zM950 1250q-550 0 -550 -550t550 -550t550 550t-550 550zM950 300q-201 0 -300 100q-100 100 -100 300t100 300q99 100 300 100t300 -100
q100 -100 100 -300t-100 -300q-99 -100 -300 -100zM950 950q-124 0 -187 -62q-63 -63 -63 -188t63 -187q63 -63 187 -63t187 63q63 62 63 187t-63 188q-63 62 -187 62z" />
    <glyph glyph-name="uni17DA" unicode="&#x17da;" horiz-adv-x="3850" 
d="M3121 538q15 -29 10 -33q-15 -13 -25 2q-6 9 15 31zM1793 979q-7 9 -12 18q-59 91 -35 123q48 64 101 11q27 -27 -54 -152zM2071 439q59 -82 38 -99q-43 -34 -78 7q-16 20 40 92zM2411 1018q-43 71 -25 84q37 27 63 -8q11 -15 -38 -76zM2638 468q18 -30 12 -34
q-19 -12 -32 3q-5 5 20 31zM2982 979q-12 23 -6 28q18 16 30 4q4 -4 -24 -32zM3114 794q-26 33 -47 60q29 35 48 66q64 106 11 173q-54 67 -114 75q-60 9 -126 -41q-67 -50 -37 -153q11 -38 34 -83q-51 -44 -125 -104q-59 -49 -105 -94q-35 50 -79 105q-46 57 -81 103
q34 49 56 91q68 132 11 205t-124 81q-66 8 -143 -50t-33 -190q22 -66 54 -125q-57 -59 -138 -135q-62 -61 -111 -116q-39 46 -86 96q-53 56 -95 105q36 61 59 114q75 175 1 259t-147 83q-74 -1 -148 -86t-17 -228q26 -65 80 -142q-77 -105 -197 -249q-193 -232 -355 -348
t-294 -116q-133 0 -199 150t-66 450q-1 300 81 450q81 150 243 150t244 -64q81 -63 81 -189q0 -141 -59 -227t-176 -116q-85 -23 -65 -96q20 -72 104 -48q173 44 260 168q86 123 86 326q0 198 -118 297q-119 99 -357 99q-237 0 -356 -188q-119 -187 -119 -562t104 -563
q104 -187 311 -187q167 0 363 134q195 133 418 400q93 112 160 208q34 -39 73 -80q56 -60 99 -108q-36 -51 -58 -96q-64 -130 -1 -204t134 -80t150 54t23 192q-23 54 -67 119q54 56 129 128q63 63 112 119l69 -86q50 -64 86 -113q-24 -31 -41 -59q-64 -110 -12 -177t113 -76
q60 -9 128 42t26 171q-12 33 -32 71q55 46 133 110q56 45 102 87q15 -21 33 -43q17 -24 32 -46q-74 -60 -89 -120q-15 -64 36 -128t110 -71q58 -8 124 42t40 151q-9 35 -29 76q66 33 152 33h120q99 0 99 75t-95 75q-147 0 -262 -32q-46 -12 -87 -30q-19 27 -42 56z" />
    <glyph glyph-name="uni17DB" unicode="&#x17db;" horiz-adv-x="850" 
d="M550 850h154v-200h-154v-160q0 -270 -90 -380t-195 -110q-115 0 -115 165q0 75 100 160t100 175v150h-200v200h200v26q0 136 -200 176l286 448q194 -234 364 -87q0 -123 -82.5 -212.5t-258.5 18.5l-58 -85q149 -72 149 -188v-96z" />
    <glyph glyph-name="uni17DC" unicode="&#x17dc;" horiz-adv-x="1536" 
d="M256 0v1280h1024v-1280h-1024zM288 32h960v1216h-960v-1216z" />
    <glyph glyph-name="uni17DD" unicode="&#x17dd;" horiz-adv-x="1536" 
d="M256 0v1280h1024v-1280h-1024zM288 32h960v1216h-960v-1216z" />
    <glyph glyph-name="glyph192" horiz-adv-x="1536" 
d="M256 0v1280h1024v-1280h-1024zM288 32h960v1216h-960v-1216z" />
    <glyph glyph-name="glyph193" horiz-adv-x="1536" 
d="M256 0v1280h1024v-1280h-1024zM288 32h960v1216h-960v-1216z" />
    <glyph glyph-name="uni17E0" unicode="&#x17e0;" horiz-adv-x="1700" 
d="M850 1100q-350 0 -350 -450t350 -450t350 450t-350 450zM850 0q-550 0 -550 650t550 650t550 -650t-550 -650z" />
    <glyph glyph-name="uni17E1" unicode="&#x17e1;" horiz-adv-x="1700" 
d="M1400 400q0 -100 -45 -194l-72 -146q-50 -60 -97 -60q-26 0 -51 14q-71 57 -17 142l53 84q29 62 29 160v380q0 44 -59 90l-284 192l-285 -190q-72 -36 -72 -88v-354l41 -48q82 25 123 -47q40 -72 -29 -140q-70 -69 -140 -21l-71 48q-124 80 -124 208v394q0 110 160 210
l397 266l398 -266q145 -100 145 -220v-414z" />
    <glyph glyph-name="uni17E2" unicode="&#x17e2;" horiz-adv-x="1700" 
d="M530 916q-30 -233 -30 -466q0 -250 350 -250t350 250v150l-163 -102l-180 127l-67 -86q-71 -79 -148 -31q-82 54 -17 139l66 84l130 169l195 -187l271 187q113 0 113 -102v-348q0 -450 -550 -450t-550 450q0 248 30 496q0 436 -91 594q-25 53 -25 90q0 52 49 72
q26 10 48 10q49 0 75 -51q144 -252 144 -745z" />
    <glyph glyph-name="uni17E3" unicode="&#x17e3;" horiz-adv-x="2200" 
d="M500 410q0 -40 75 -127t50 -185t-93 -98q-95 0 -163.5 75t-68.5 215v540q0 170 81 246l336 224l388 -243l308 243l337 -224q150 -86 150 -246v-760q-126 -185 -211 -185q-24 0 -45 15q-94 70 -94 236q150 54 150 134v560q0 50 -137 132l-150 102l-213 -184v-780
q0 -100 -81 -100q-82 0 -150.5 40t-68.5 88t50 135t50 167v450l-283 194l-162 -118q-55 -46 -55 -126v-420z" />
    <glyph glyph-name="uni17E4" unicode="&#x17e4;" horiz-adv-x="1700" 
d="M300 410q0 142 84.5 381t-89.5 788q-10 26 -10 47q0 52 60 77q25 10 46 10q50 0 77 -58q115 -446 115 -706q0 -104 -18 -178q-65 -259 -65 -361q64 -163 212 -210h428q71 0 0 88q-223 182 -35 442q67 100 202 100q93 0 93 -100t-93 -100q-125 -120 -14 -230
q107 -104 107 -202q0 -198 -260 -198h-438q-338 47 -402 410z" />
    <glyph glyph-name="uni17E5" unicode="&#x17e5;" horiz-adv-x="1700" 
d="M564 940q-4 -89 -24 -169q-40 -259 -40 -361q64 -163 212 -210h428q71 0 0 88q-223 182 -35 442q67 100 202 100q93 0 93 -100t-93 -100q-125 -120 -14 -230q107 -104 107 -202q0 -198 -260 -198h-438q-338 47 -402 410q0 142 40 381q41 114 48 218q-88 50 -88 135
q0 20 5 42q25 114 136.5 114t159 -47t19.5 -129q22 -10 130 -10q258 0 344 113t120.5 205t54.5 180t75 88q56 0 56 -107t-40 -265.5t-165.5 -281t-444.5 -122.5q-104 0 -186 16z" />
    <glyph glyph-name="uni17E6" unicode="&#x17e6;" horiz-adv-x="1700" 
d="M308 952q-59 372 -128 610q-7 28 -7 50q0 74 75 89q13 3 25 3q75 0 103 -104q67 -241 116 -544l365 244l398 -266q145 -100 145 -220v-464q-70 -240 -325 -350h-450q-242 90 -325 300v114q0 128 124 208l71 48q70 48 139 -20q70 -69 29 -141q-40 -72 -122 -47l-41 -48
q46 -167 175 -214h350q111 76 175 200v380q0 44 -59 90l-284 192l-285 -190q-122 -88 -197 -83t-67 163z" />
    <glyph glyph-name="uni17E7" unicode="&#x17e7;" horiz-adv-x="2000" 
d="M607 480q63 0 63 -80q0 -56 -23.5 -128t-59.5 -72q-67 30 -87 170q0 110 107 110zM1450 0q250 0 250 300v790q0 615 -390 615q-100 0 -100 -103t100 -103q190 0 190 -409v-790q0 -100 -50 -100t-50 100v635q0 76 -89 150l-259 215l-203 -143l-204 143l-258 -215
q-87 -74 -87 -150v-565q0 -125 95 -247.5t192 -122.5q106 0 194.5 122.5t88.5 277.5q0 270 -263 270q-76 0 -107 -44v277l159 132l190 -131l190 131l161 -132v-603q0 -300 250 -300z" />
    <glyph glyph-name="uni17E8" unicode="&#x17e8;" horiz-adv-x="1700" 
d="M1065 0q-66 0 -206 156l-195 -156q-120 0 -242 179.5t-122 297.5v459q0 87 33 123l208 188q69 53 101 53t368 -160l190 60v400q0 100 100 100t100 -100v-410q0 -120 -97 -152l-244 -82q-49 -16 -131 19l-248 105l-180 -166v-481q40 -106 140 -198l243 204l180 -199
q41 0 92.5 52t44.5 158q0 120 -50 120t-50 100t150 100t150 -320q0 -212 -106.5 -331t-228.5 -119z" />
    <glyph glyph-name="uni17E9" unicode="&#x17e9;" horiz-adv-x="1700" 
d="M883 436q189 0 189 -194q-25 -242 -392 -242q-377 0 -380 414q0 434 507 458q-76 242 88.5 375.5t504.5 -124.5q0 265 55 421t221 156q104 0 104 -100t-104 -100q-46 0 -61 -96t-15 -281q0 -155 -64.5 -202.5t-160.5 1.5q-257 165 -345.5 139.5t17.5 -211.5l288 -211
q63 -51 2.5 -126t-111.5 -36q-179 177 -452.5 179.5t-273.5 -242.5q0 -214 180 -214q177 0 203 42q-127 0 -127 97t127 97z" />
    <glyph glyph-name="glyph204" horiz-adv-x="1536" 
d="M256 0v1280h1024v-1280h-1024zM288 32h960v1216h-960v-1216z" />
    <glyph glyph-name="glyph205" horiz-adv-x="1536" 
d="M256 0v1280h1024v-1280h-1024zM288 32h960v1216h-960v-1216z" />
    <glyph glyph-name="glyph206" horiz-adv-x="1536" 
d="M256 0v1280h1024v-1280h-1024zM288 32h960v1216h-960v-1216z" />
    <glyph glyph-name="glyph207" horiz-adv-x="1536" 
d="M256 0v1280h1024v-1280h-1024zM288 32h960v1216h-960v-1216z" />
    <glyph glyph-name="glyph208" horiz-adv-x="1536" 
d="M256 0v1280h1024v-1280h-1024zM288 32h960v1216h-960v-1216z" />
    <glyph glyph-name="glyph209" horiz-adv-x="1536" 
d="M256 0v1280h1024v-1280h-1024zM288 32h960v1216h-960v-1216z" />
    <glyph glyph-name="uni17F0" unicode="&#x17f0;" horiz-adv-x="1536" 
d="M256 0v1280h1024v-1280h-1024zM288 32h960v1216h-960v-1216z" />
    <glyph glyph-name="uni17F1" unicode="&#x17f1;" horiz-adv-x="1536" 
d="M256 0v1280h1024v-1280h-1024zM288 32h960v1216h-960v-1216z" />
    <glyph glyph-name="uni17F2" unicode="&#x17f2;" horiz-adv-x="1536" 
d="M256 0v1280h1024v-1280h-1024zM288 32h960v1216h-960v-1216z" />
    <glyph glyph-name="uni17F3" unicode="&#x17f3;" horiz-adv-x="1536" 
d="M256 0v1280h1024v-1280h-1024zM288 32h960v1216h-960v-1216z" />
    <glyph glyph-name="uni17F4" unicode="&#x17f4;" horiz-adv-x="1536" 
d="M256 0v1280h1024v-1280h-1024zM288 32h960v1216h-960v-1216z" />
    <glyph glyph-name="uni17F5" unicode="&#x17f5;" horiz-adv-x="1536" 
d="M256 0v1280h1024v-1280h-1024zM288 32h960v1216h-960v-1216z" />
    <glyph glyph-name="uni17F6" unicode="&#x17f6;" horiz-adv-x="1536" 
d="M256 0v1280h1024v-1280h-1024zM288 32h960v1216h-960v-1216z" />
    <glyph glyph-name="uni17F7" unicode="&#x17f7;" horiz-adv-x="1536" 
d="M256 0v1280h1024v-1280h-1024zM288 32h960v1216h-960v-1216z" />
    <glyph glyph-name="uni17F8" unicode="&#x17f8;" horiz-adv-x="1536" 
d="M256 0v1280h1024v-1280h-1024zM288 32h960v1216h-960v-1216z" />
    <glyph glyph-name="uni17F9" unicode="&#x17f9;" horiz-adv-x="1536" 
d="M256 0v1280h1024v-1280h-1024zM288 32h960v1216h-960v-1216z" />
    <glyph glyph-name="glyph220" horiz-adv-x="1536" 
d="M256 0v1280h1024v-1280h-1024zM288 32h960v1216h-960v-1216z" />
    <glyph glyph-name="glyph221" horiz-adv-x="1536" 
d="M256 0v1280h1024v-1280h-1024zM288 32h960v1216h-960v-1216z" />
    <glyph glyph-name="glyph222" horiz-adv-x="1536" 
d="M256 0v1280h1024v-1280h-1024zM288 32h960v1216h-960v-1216z" />
    <glyph glyph-name="glyph223" horiz-adv-x="1536" 
d="M256 0v1280h1024v-1280h-1024zM288 32h960v1216h-960v-1216z" />
    <glyph glyph-name="glyph224" horiz-adv-x="1536" 
d="M256 0v1280h1024v-1280h-1024zM288 32h960v1216h-960v-1216z" />
    <glyph glyph-name="glyph225" horiz-adv-x="1536" 
d="M256 0v1280h1024v-1280h-1024zM288 32h960v1216h-960v-1216z" />
    <glyph glyph-name="glyph229" horiz-adv-x="800" 
d="M-383 -844q-74 -76 -215 -106h-254q-79 0 -198.5 88t-139.5 182l199 230l6 39q5 38 -21.5 84.5t-45.5 37.5q-20 -10 9 -49t-6 -75t-88 -12t-53 105t70 150.5t127 69.5t127.5 -122t70.5 -174v-53q0 -42 -131 -224q34 -63 114 -77h214q131 29 114 154v93q-6 77 -121 100
l195 303q166 -109 219 -88q-13 -132 -54 -145.5t-157 41.5l-22 -51q108 -49 121 -149v-172q47 -46 141 -86h252q155 50 210 150v1476q0 136 -200 176l286 448q234 -194 314 -157q-20 -143 -82.5 -167.5t-218.5 73.5l-58 -85q159 -82 159 -218v-1586q-75 -230 -360 -310h-328
q-83 0 -195 106z" />
    <glyph glyph-name="glyph234" horiz-adv-x="800" 
d="M-223 -844q-74 -76 -215 -106h-184q-79 0 -198.5 88t-139.5 182l199 230q11 41 -51 73l-188 94l-270 -126v-111q0 -158 92.5 -204t64 -136t-116.5 -90q-81 0 -160.5 90t-79.5 152v336q0 57 63 86l407 186l388 -186q62 -29 54.5 -117t-138.5 -270q34 -63 114 -77h144
q131 29 114 154v93q-6 77 -121 100l195 303q166 -109 219 -88q-13 -132 -54 -145.5t-157 41.5l-22 -51q108 -49 121 -149v-172q47 -46 141 -86h162q85 50 140 150v1476q0 136 -200 176l286 448q234 -194 314 -157q-20 -143 -82.5 -167.5t-218.5 73.5l-58 -85
q159 -82 159 -218v-1586q-75 -230 -290 -310h-238q-83 0 -195 106z" />
    <glyph glyph-name="glyph236" 
d="M-500 -783q0 35 -98 13q-86 0 -86 47.5t86 47.5q298 0 298 -108q0 -94 -206.5 -155.5t-750.5 -61.5q-388 0 -650 60t-486 158q-57 28 -57 56q0 27 96.5 27t139.5 -27q343 -141 957 -141q448 0 602.5 24t154.5 60zM-2250 -513q20 -38 87 -53q36 0 59.5 20.5t23.5 46.5
q0 38 -63 38q-107 0 -107 -52zM-1250 -352v-261q0 -47 -81 -47q-82 0 -175.5 26t-93.5 55.5t75 59.5t75 68v148l-161 63l-240 -79l-240 79l-159 -63v-88q31 21 107 21q183 0 183 -129q0 -45 -48.5 -103t-154.5 -58q-97 0 -192 58t-95 89v240q0 36 87 71l258 102l254 -84
l253 84l259 -102q27 -10 45 -20q316 122 369 122q59 0 625 -171v-342q0 -47 -81 -47q-82 0 -175.5 26t-93.5 55.5t75 59.5t75 68v107l-431 117z" />
    <glyph glyph-name="glyph240" horiz-adv-x="800" 
d="M-1200 -737q20 -61 45 -61t44.5 20.5t19.5 62.5q0 61 -33 61q-76 0 -76 -83zM-600 -394l-100 80l-200 -135l-200 135l-100 -80v-149q33 33 76 33q199 0 199 -205q0 -87 -73.5 -161t-161.5 -74q-81 0 -160.5 74t-79.5 139v367q0 58 73 114l215 162l212 -134l210 134
l216 -162q74 -56 74 -114v-130h123q190 0 301 -187q37 -63 137 -63q139 0 139 200v1426q0 136 -200 176l286 448q234 -194 314 -157q-20 -143 -82.5 -167.5t-218.5 73.5l-58 -85q159 -82 159 -218v-1496q0 -400 -337 -400q-171 0 -272 156q-60 94 -165 94h-126v-125
q0 -125 -100 -125t-175 104.5t-75 225.5q0 120 150 120v106z" />
    <glyph glyph-name="glyph247" horiz-adv-x="800" 
d="M500 -728q-60 -162 -233 -222l-266 211l-150 -155q-38 -56 -127 -56q-90 0 -161 54l-142 108q-71 54 -71 114q0 89 55 150l206 227q62 71 129.5 8.5t12.5 -139.5l-186 -209l133 -115l291 274l309 -250v1604q0 136 -200 176l286 448q234 -194 314 -157
q-20 -143 -82.5 -167.5t-218.5 73.5l-58 -85q159 -82 159 -218v-1674z" />
    <glyph glyph-name="glyph252" horiz-adv-x="800" 
d="M300 876q0 136 -200 176l286 448q234 -194 314 -157q-20 -143 -92.5 -167.5t-208.5 73.5l-58 -85q159 -82 159 -218v-1546q0 -350 -350 -350h-300q-350 0 -350 350v260q0 140 150 140t150 -100t-100 -100v-200q0 -150 150 -150h300q150 0 150 150v1476z" />
    <glyph glyph-name="glyph256" horiz-adv-x="800" 
d="M500 -315v-413q0 -222 -116 -222q-117 0 -205 56l-87 56l-141 90l-100 -146q-38 -56 -127 -56q-90 0 -163 32l-72 31q-139 63 -139 153q0 89 55 150l56 61q39 40 39 82q0 41 -49 41q-99 0 -96.5 100t99.5 100q246 0 246 -241q0 -86 -76 -166l-77 -80l153 -65l223 246
l377 -222v463l-61 16q-105 28 -78 124t125 70l14 -3v934q0 136 -200 176l286 448q234 -194 314 -157q-20 -143 -82.5 -167.5t-218.5 73.5l-58 -85q159 -82 159 -218v-1058q88 -26 170 -72q80 -43 80 -85q0 -7 -2 -13q-13 -48 -116 -47q-67 2 -132 14z" />
    <glyph glyph-name="glyph259" 
d="M-400 -1150v-375q0 -75 -100 -75t-100 75v300q0 53 -65 68t-65 86t130 71q200 0 200 -150z" />
    <glyph glyph-name="glyph260" 
d="M-933 -1424q-5 -39 63 -44t191 68.5t258 197.5t153 115t18 -47t-37 -91q-268 -375 -601 -375q-170 0 -241 99q-21 31 -21 59q0 66 111 126q256 169 293 204q-67 33 -43.5 72.5t127.5 39.5q90 0 117.5 -55t-45.5 -129q-160 -149 -343 -240z" />
    <glyph glyph-name="glyph261" 
d="M-661 -1434q105 58 160.5 144.5t92.5 167.5q32 67 90.5 65t66.5 -39q1 -9 1 -18q0 -32 -18 -76q-129 -342 -407 -410l-128 102q-128 -102 -242 -102q-130 9 -188 128q-17 31 -17 60q0 78 118 132q162 75 268 145t91 111q56 24 118 24t67 -40.5t-81 -128t-365 -227.5
q-59 -39 18 -72q58 0 216 121z" />
    <glyph glyph-name="glyph262" 
d="M-1460 2250q0 100 60 200l120 200q60 100 111 100t129 -44l543 -305q155 -86 156 -168q1 -1 1 -2q0 -81 -145 -81h-755q-220 0 -220 100zM-1240 2350h460l-362 179z" />
    <glyph glyph-name="glyph263" 
d="M-1240 2350h460l-362 179zM-340 2233q0 -83 -145 -83h-755q-220 0 -220 100t60 200l120 200q60 100 111 100t129 -44l500 -281v275q0 100 100 100t100 -100v-467z" />
    <glyph glyph-name="glyph264" 
d="M-1240 2350h460l-362 179zM-665 2550q0 -37 20 -56q19 -19 55 -19q39 0 57 19t18 56q0 38 -18 56q-18 19 -57 19q-36 0 -55 -19q-20 -18 -20 -56zM-416 2348q75 -58 75 -115q1 -1 1 -2q0 -81 -145 -81h-755q-220 0 -220 100t60 200l120 200q60 100 111 100t129 -44
l202 -113q10 93 61 145q62 62 187 62q127 0 189 -62q61 -63 61 -188t-61 -188q-7 -7 -15 -14z" />
    <glyph glyph-name="glyph265" 
d="M-1240 2350h460l-362 179zM-650 2487l110 -62v275q0 100 100 100t100 -100v-467q0 -83 -145 -83h-755q-220 0 -220 100t60 200l120 200q60 100 111 100t129 -44l190 -107v101q0 100 100 100t100 -100v-213z" />
    <glyph glyph-name="glyph266" 
d="M-1000 2400q0 -37 20 -56q19 -19 55 -19q39 0 57 19t18 56q0 38 -18 56q-18 19 -57 19q-36 0 -55 -19q-20 -18 -20 -56zM-675 2400q0 -125 -61 -188q-62 -62 -189 -62q-125 0 -187 62q-63 63 -63 188t63 188q62 62 187 62q127 0 189 -62q61 -63 61 -188z" />
    <glyph glyph-name="glyph267" 
d="M-1000 2349h-200v201h200v199h200v-199h200v-201h-200v-199h-200v199z" />
    <glyph glyph-name="glyph268" 
d="M-1004 2430q0 -48 39.5 -69t150.5 -21q138 0 224 113t108.5 208.5t-17 168t35.5 111.5q16 9 32 9q55 0 99 -104q32 -75 32 -158q0 -65 -19 -134q-45 -159 -170.5 -281.5t-324.5 -122.5q-140 0 -260 65t-120 185q8 103 101 92.5t89 -62.5z" />
    <glyph glyph-name="glyph269" horiz-adv-x="2750" 
d="M500 370q20 -140 87 -170q36 0 59.5 72t23.5 128q0 80 -63 80q-107 0 -107 -110zM1500 1000v-900q0 -100 -81 -100q-82 0 -175.5 55t-93.5 138t75 155t75 152v603l-161 132l-240 -165l-240 165l-159 -132v-477q31 44 107 44q263 0 263 -270q0 -155 -88.5 -277.5
t-194.5 -122.5q-97 0 -192 122.5t-95 247.5v765q0 76 87 150l258 215l254 -178l253 178l259 -215q27 -22 45 -44q316 259 369 259q59 0 625 -360v-1040q0 -100 -81 -100q-82 0 -175.5 55t-93.5 138t75 155t75 152v532l-431 245z" />
    <glyph glyph-name="glyph270" 
d="M-2307 -708q0 -73 40 -95q30 0 49.5 38t19.5 79q0 59 -53 59q-56 0 -56 -81zM-2307 -520q23 32 56 32q219 0 219 -198q0 -84 -73.5 -174t-161.5 -90q-81 0 -160.5 90t-79.5 152v336q0 57 63 86l437 186l438 -186q62 -29 62 -86v-504q0 -74 -67 -74q-68 0 -146 40.5
t-78 101.5t45.5 113.5t45.5 111.5v174l-300 126l-300 -126v-111z" />
    <glyph glyph-name="glyph271" 
d="M-1507 -1150v-375q0 -75 -100 -75t-100 75v300q0 53 -65 68t-65 86t130 71q200 0 200 -150z" />
    <glyph glyph-name="glyph272" 
d="M-2083 -1424q-5 -39 63 -44t191 68.5t258 197.5t153 115t18 -47t-37 -91q-268 -375 -601 -375q-170 0 -241 99q-21 31 -21 59q0 66 111 126q256 169 293 204q-67 33 -43.5 72.5t127.5 39.5q90 0 117.5 -55t-45.5 -129q-160 -149 -343 -240z" />
    <glyph glyph-name="glyph273" 
d="M-1811 -1434q105 58 160.5 144.5t92.5 167.5q32 67 90.5 65t66.5 -39q1 -9 1 -18q0 -32 -18 -76q-129 -342 -407 -410l-128 102q-128 -102 -242 -102q-130 9 -188 128q-17 31 -17 60q0 78 118 132q162 75 268 145t91 111q56 24 118 24t67 -40.5t-81 -128t-365 -227.5
q-59 -39 18 -72q58 0 216 121z" />
    <glyph glyph-name="glyph275" horiz-adv-x="800" 
d="M-580 2200h460l-362 179zM320 2125q180 -145 180 -505v-2920q0 -300 -300 -300h-400q-300 0 -300 300v200q0 100 100 100t100 -100v-200q0 -100 100 -100h400q100 0 100 100v2920q0 319 -245 380h-635q-220 0 -220 100t60 200l120 200q60 100 111 100t129 -44l190 -107
v101q0 100 100 100t100 -100v-213l110 -62v275q0 100 100 100t100 -100v-425z" />
    <glyph glyph-name="glyph276" horiz-adv-x="800" 
d="M500 -1300q0 -300 -300 -300h-400q-300 0 -300 300v210q0 100 100 100t100 -100v-210q0 -100 100 -100h400q100 0 100 100v3000q0 400 -200 400q-278 0 -381 -97q-100 -115 -185 -58q-39 26 -39 66q0 49 56 119q185 228 218 485q11 85 116 85t61 -240q-17 -92 -54 -184
q66 24 208 24q400 0 400 -600v-3000z" />
    <glyph glyph-name="glyph277" horiz-adv-x="800" 
d="M300 876q0 136 -200 176l286 448q234 -194 314 -157q-20 -143 -82.5 -167.5t-218.5 73.5l-58 -85q159 -82 159 -218v-2327q-75 -162 -360 -219h-328q-83 0 -195 75q-74 -53 -215 -75h-254q-79 0 -198.5 62.5t-139.5 128.5l199 162l6 28q5 27 -21.5 59.5t-45.5 26.5
q-20 -7 9 -34.5t-6 -53t-88 -8.5t-53 74t70 106t127 49t127.5 -86t70.5 -122v-38q0 -30 -131 -158q34 -44 114 -54h214q131 20 114 108v66q-6 54 -121 71l195 213q166 -76 219 -62q-13 -93 -54 -102.5t-157 29.5l-22 -36q108 -35 121 -105v-122q47 -32 141 -60h252
q155 35 210 106v2228z" />
    <glyph glyph-name="glyph278" horiz-adv-x="800" 
d="M500 -1381q-75 -162 -290 -219h-238q-83 0 -195 75q-74 -53 -215 -75h-184q-79 0 -198.5 62.5t-139.5 128.5l199 162q11 29 -51 52l-188 66l-270 -89v-78q0 -112 92.5 -144t64 -96t-116.5 -64q-81 0 -160.5 64t-79.5 107v237q0 41 63 61l407 131l388 -131
q62 -20 54.5 -82.5t-138.5 -190.5q34 -44 114 -54h144q131 20 114 108v66q-6 54 -121 71l195 213q166 -76 219 -62q-13 -93 -54 -102.5t-157 29.5l-22 -36q108 -35 121 -105v-122q47 -32 141 -60h162q85 35 140 106v2228q0 136 -200 176l286 448q234 -194 314 -157
q-20 -143 -82.5 -167.5t-218.5 73.5l-58 -85q159 -82 159 -218v-2327z" />
    <glyph glyph-name="glyph279" horiz-adv-x="800" 
d="M-1200 -1450q20 -43 45 -43t44.5 14.5t19.5 43.5q0 43 -33 43q-76 0 -76 -58zM500 -1319q0 -281 -337 -281q-171 0 -272 110q-60 66 -165 66h-126v-88q0 -88 -100 -88t-175 73.5t-75 158.5q0 84 150 84v74l-100 56l-200 -94l-200 94l-100 -56v-104q33 23 76 23
q199 0 199 -144q0 -61 -73.5 -113t-161.5 -52q-81 0 -160.5 52t-79.5 98v257q0 41 73 80l215 113l212 -93l210 93l216 -113q74 -39 74 -80v-91h123q190 0 301 -131q37 -44 137 -44q139 0 139 140v2195q0 136 -200 176l286 448q234 -194 314 -157q-20 -143 -82.5 -167.5
t-218.5 73.5l-58 -85q159 -82 159 -218v-2265z" />
    <glyph glyph-name="glyph280" horiz-adv-x="800" 
d="M500 -1407q-60 -140 -233 -193l-266 184l-150 -135q-38 -49 -127 -49q-90 0 -161 47l-142 94q-71 47 -71 99q0 78 55 131l206 197q62 61 129.5 7t12.5 -121l-186 -182l133 -100l291 238l309 -217v2283q0 136 -200 176l286 448q234 -194 314 -157q-20 -143 -82.5 -167.5
t-218.5 73.5l-58 -85q159 -82 159 -218v-2353z" />
    <glyph glyph-name="glyph281" horiz-adv-x="800" 
d="M500 -1320q0 -280 -350 -280h-300q-350 0 -350 280v208q0 112 150 112t150 -80t-100 -80v-160q0 -120 150 -120h300q150 0 150 120v2196q0 136 -200 176l286 448q234 -194 314 -157q-20 -143 -92.5 -167.5t-208.5 73.5l-58 -85q159 -82 159 -218v-2266z" />
    <glyph glyph-name="glyph282" horiz-adv-x="800" 
d="M300 2400q200 300 500 500h800q256 -170 370 -317q49 -66 49 -112q0 -40 -36 -66q-79 -57 -151 36q-95 118 -292 259h-680q-210 -150 -360 -350v-3400q150 -200 360 -350h680q197 141 292 259q72 93 151 36q36 -26 36 -66q0 -46 -49 -112q-114 -147 -370 -317h-800
q-300 200 -500 500v3500z" />
    <glyph glyph-name="glyph283" horiz-adv-x="800" 
d="M500 -1422q0 -178 -116 -178q-117 0 -205 45l-87 45l-141 72l-100 -117q-38 -45 -127 -45q-90 0 -163 26l-72 25q-139 50 -139 122q0 71 55 120l56 49q39 32 39 66q0 32 -49 32q-99 0 -96.5 80t99.5 80q246 0 246 -192q0 -69 -76 -133l-77 -64l153 -52l223 197l377 -178
v1157l-61 16q-105 28 -78 124t125 70l14 -3v934q0 136 -200 176l286 448q234 -194 314 -157q-20 -143 -82.5 -167.5t-218.5 73.5l-58 -85q159 -82 159 -218v-1058q88 -26 170 -72q80 -43 80 -85q0 -7 -2 -13q-13 -48 -116 -47q-67 2 -132 14v-1107z" />
    <glyph glyph-name="glyph284" 
d="M-1120 1950q0 100 60 200l120 200q60 100 111 100t129 -44l543 -305q155 -86 156 -168q1 -1 1 -2q0 -81 -145 -81h-755q-220 0 -220 100zM-900 2050h460l-362 179z" />
    <glyph glyph-name="glyph285" 
d="M-900 2050h460l-362 179zM0 1933q0 -83 -145 -83h-755q-220 0 -220 100t60 200l120 200q60 100 111 100t129 -44l500 -281v275q0 100 100 100t100 -100v-467z" />
    <glyph glyph-name="glyph286" 
d="M-900 2050h460l-362 179zM-325 2250q0 -37 20 -56q19 -19 55 -19q39 0 57 19t18 56q0 38 -18 56q-18 19 -57 19q-36 0 -55 -19q-20 -18 -20 -56zM-76 2048q75 -58 75 -115q1 -1 1 -2q0 -81 -145 -81h-755q-220 0 -220 100t60 200l120 200q60 100 111 100t129 -44
l202 -113q10 93 61 145q62 62 187 62q127 0 189 -62q61 -63 61 -188t-61 -188q-7 -7 -15 -14z" />
    <glyph glyph-name="glyph287" 
d="M-900 2050h460l-362 179zM-310 2187l110 -62v275q0 100 100 100t100 -100v-467q0 -83 -145 -83h-755q-220 0 -220 100t60 200l120 200q60 100 111 100t129 -44l190 -107v101q0 100 100 100t100 -100v-213z" />
    <glyph glyph-name="glyph288" 
d="M-530 2100q0 -37 20 -56q19 -19 55 -19q39 0 57 19t18 56q0 38 -18 56q-18 19 -57 19q-36 0 -55 -19q-20 -18 -20 -56zM-205 2100q0 -125 -61 -188q-62 -62 -189 -62q-125 0 -187 62q-63 63 -63 188t63 188q62 62 187 62q127 0 189 -62q61 -63 61 -188z" />
    <glyph glyph-name="glyph289" 
d="M-200 1984q0 -107 -100 -134q-100 27 -100 134v286q0 40 -35 60t-35 95t100 75q170 0 170 -230v-286zM-600 1984q0 -107 -100 -134q-100 27 -100 134v286q0 40 -35 60t-35 95t100 75q170 0 170 -230v-286z" />
    <glyph glyph-name="glyph290" 
d="M298 2728q2 -13 2 -26q0 -49 -39 -103q-51 -69 -192.5 -212t-232 -184t-135.5 -41q-97 82 -180 82q-59 0 -94 -41.5t-35 -80.5q0 -75 76 -75q66 0 66 26q0 16 92 16t92 -65q0 -86 -58 -130t-185 -44q-137 0 -210 64.5t-73 205.5q0 157 79 243.5t211 86.5q166 0 230 -73
q99 37 241.5 190t171.5 196q24 35 72 35q11 0 22 -2q65 -9 79 -68z" />
    <glyph glyph-name="glyph291" 
d="M-900 2050h460l-362 179zM-28 2002q27 -35 27 -69q1 -1 1 -2q0 -81 -145 -81h-755q-220 0 -220 100t60 200l120 200q60 100 111 100t129 -44l250 -140q13 98 70 158q74 76 196 76q155 0 214 -65q92 33 191 137q38 36 75 36q34 0 67 -30q35 -31 35 -64q0 -34 -36 -70
q-132 -126 -216 -162.5t-126 -36.5q-90 73 -167 73q-55 0 -87.5 -36.5t-32.5 -71.5q0 -66 70 -66q62 0 62 23q0 14 85 14q86 0 86 -57q0 -76 -54 -115q-5 -4 -10 -7z" />
    <glyph glyph-name="glyph292" horiz-adv-x="2162" 
 />
    <glyph glyph-name="glyph293" horiz-adv-x="2162" 
 />
    <glyph glyph-name="glyph294" 
d="M400 -850q0 -100 -81 -100q-82 0 -175.5 40t-93.5 123t75 125t75 102v58l-380 199l-370 -199v-348q0 -100 -81 -100q-82 0 -175.5 30t-93.5 113t75 135t75 112v58l-380 199l-370 -199v-78q0 -40 103.5 -97t63.5 -165t-135 -108t-163.5 75t-68.5 215v208q0 78 71 117
l499 235l480 -224l470 224l499 -235q81 -39 81 -117v-398z" />
    <glyph glyph-name="glyph295" 
d="M-1000 -321q0 119 147.5 180t352.5 61q206 0 353 -58t147 -211q0 -122 -524 -396l72 -44l362 257q16 -114 -139.5 -264.5t-230.5 -153.5q-75 0 -222.5 137.5t-17.5 194.5q500 204 500 269q0 96 -300 96t-300 -68q0 -73 48 -73q0 68 87.5 78.5t116 -42.5t-25.5 -120.5
t-178 -67.5q-248 0 -248 225z" />
    <glyph glyph-name="glyph296" 
d="M-1000 -372q0 57 63 86l437 186l438 -186q62 -29 62 -86v-504q0 -74 -67 -74q-68 0 -146 40.5t-78 101.5t45.5 113.5t45.5 111.5v154l-300 126l-300 -126v-169q0 -29 70 -93t36.5 -161.5t-112.5 -97.5t-136.5 55t-57.5 158v365z" />
    <glyph glyph-name="glyph297" 
d="M-667 -950q-200 0 -300 96q-101 98 -101 241q0 154 50 232q51 77 151 77q66 0 100 -39q33 -38 33 -116q-67 0 -100.5 -38.5t-33.5 -115.5q0 -137 201 -137q210 0 308.5 146.5t165.5 306t83 179.5q16 18 44 18q66 0 66 -77q0 -82 -58 -253.5t-142 -287.5t-200 -173
q-116 -59 -267 -59z" />
    <glyph glyph-name="glyph298" 
d="M-510 -100q102 0 74.5 -154.5t-102 -276.5t-163.5 -193q0 -26 106 -26q148 0 223 187q-51 20 -51 107q0 88 40 121.5t120 33.5q69 0 103.5 -38.5t34.5 -86.5q0 -28 -17 -71q77 0 77 -66t-92 -78q-14 0 -27 0.5t-25 2.5q-14 -26 -30.5 -55.5t-34.5 -61.5
q-34 -65 -124 -130t-197 -65q-159 0 -239 72q-80 71 -80 154q0 97 61.5 137.5t118.5 126t89.5 223t134.5 137.5z" />
    <glyph glyph-name="glyph299" 
d="M-850 -100v-400h73q190 0 301 -187q37 -63 137 -63q139 0 139 200q0 100 -60 100t-100 -60q-90 30 -90 100q0 160 190 160q260 0 260 -300q0 -400 -337 -400q-171 0 -272 156q-60 94 -165 94h-76v-125q0 -125 -100 -125t-175 104.5t-75 225.5q0 120 150 120v400h200z" />
    <glyph glyph-name="glyph300" 
d="M-280 -283q-32 0 -38 -14t-6 -52q0 -57 61 -57h48q14 0 15 2q-34 121 -80 121zM88 -341q32 0 32 -51q0 -69 -64 -99q-14 -7 -28.5 -13t-31.5 -12v-12q0 -130 -89.5 -272t-219.5 -142q-65 0 -133 40q-68 42 -135 146q-77 -106 -141 -146t-129 -40q-128 0 -217 142.5
t-89 272.5q0 213 94 320t222 107q64 0 64 -76q0 -77 -64 -77q-32 0 -74 -68.5t-42 -205.5q0 -53 37 -138t69 -85t86.5 54t183.5 207q126 -153 165 -207t106 -54q31 0 72 77t42 117q-15 -1 -31.5 -2t-32.5 -1q-96 0 -159 57.5t-63 152.5q0 135 53 192t149 57
q102 0 168.5 -68.5t97.5 -205.5q18 7 36 12t34 13q8 1 14 3l9 3q6 2 9 2z" />
    <glyph glyph-name="glyph301" 
d="M-200 -372q0 72 -78 72q-86 0 -86 100t86 100q278 0 278 -272q0 -174 -146.5 -301t-410.5 -127q-278 0 -475 110t-326 346q-26 49 -26 90q0 25 9 46q25 58 96.5 58t109.5 -67q115 -204 256.5 -293.5t355.5 -89.5q168 0 262.5 75.5t94.5 152.5z" />
    <glyph glyph-name="glyph302" 
 />
    <glyph glyph-name="glyph303" 
d="M-800 -708q0 -73 40 -95q30 0 49.5 38t19.5 79q0 59 -53 59q-56 0 -56 -81zM-800 -520q23 32 56 32q219 0 219 -198q0 -84 -73.5 -174t-161.5 -90q-81 0 -160.5 90t-79.5 152v336q0 57 63 86l437 186l438 -186q62 -29 62 -86v-504q0 -74 -67 -74q-68 0 -146 40.5
t-78 101.5t45.5 113.5t45.5 111.5v174l-300 126l-300 -126v-111z" />
    <glyph glyph-name="glyph304" 
d="M-260 -198q0 54 31 82q32 27 104 27q63 0 94 -55q31 -54 31 -164v-494q0 -69 -33 -103t-100 -34l-358 203l-129 -145q-48 -58 -74 -58t-61 64l-213 300q-32 54 -32 119q0 91 111 110q114 19 205 27q93 9 171 9h312q-28 2 -43 30q-16 27 -16 82zM-201 -500h-328
q-50 0 -119.5 -1t-138.5 -18l113 -170l175 156l298 -142v175z" />
    <glyph glyph-name="glyph305" 
d="M-803 -468q51 13 34 66q14 16 72 15q91 0 91 -54.5t-79.5 -97t-117.5 -42.5q-97 0 -147 42.5t-50 83.5v149q0 43 73 85l215 121l212 -100l210 100l216 -121q74 -42 74 -85v-18q0 -168 -617 -426l44 -29l407 163q166 26 166 -40v-237q0 -57 -83 -57t-83 57v121l-335 -145
q-75 -33 -99 -33q-25 0 -109 65l-84 64q-42 35 -42 89.5t71 84.5q564 216 564 303l-100 64l-200 -93l-200 93l-103 -74v-114z" />
    <glyph glyph-name="glyph306" 
 />
    <glyph glyph-name="glyph307" 
d="M-800 -708q0 -73 40 -95q30 0 49.5 38t19.5 79q0 59 -53 59q-56 0 -56 -81zM-800 -520q23 32 56 32q219 0 219 -198q0 -84 -73.5 -174t-161.5 -90q-81 0 -160.5 90t-79.5 152v336q0 57 63 86l437 186l438 -186q62 -29 62 -86v-504q0 -74 -67 -74q-68 0 -146 40.5
t-78 101.5t45.5 113.5t45.5 111.5v174l-300 126l-300 -126v-111z" />
    <glyph glyph-name="glyph308" 
d="M-897 -632q30 -68 112 -68q50 0 50 50q0 51 -100 55q-35 2 -62 -37zM-904 -471q78 52 179 34q190 -33 190 -213q0 -250 -250 -250q-330 0 -330 368q0 382 500 382q443 0 587 -228q28 -46 28 -81q0 -46 -47 -72q-82 -47 -153 57q-71 124 -415 124q-243 0 -289 -121z" />
    <glyph glyph-name="glyph309" 
d="M-550 -248q-56 19 -56 51.5t28 64.5t95 32q66 0 94 -32t28 -97q0 -64 -52 -175q-51 -113 -145 -185q-94 -73 -222 -115q0 -46 109 -46t239.5 124.5t161.5 233.5q32 109 57 135q24 28 60 28q73 0 73 -65v-556q0 -100 -84 -100t-84 100v182q-69 -132 -182 -207t-213 -75
q-140 0 -238.5 63.5t-98.5 187.5q0 105 57 125q215 75 294 180.5t79 145.5z" />
    <glyph glyph-name="glyph310" 
d="M-256 -215q-9 -101 -160 -232q103 -53 147 -26t44 112q0 104 -17.5 108t-10.5 72q6 67 68 59q66 -7 113 -70t47 -169q0 -231 -114.5 -293t-243.5 7q-13 -164 -111 -233.5t-206 -69.5q-109 0 -192 73t-83 183q0 109 55 138q299 156 411.5 272t83.5 124q6 58 75 58
q10 0 23 -1q74 -9 71 -112zM-775 -706q0 -45 107 -47t149 213q-112 -76 -151 -106.5t-105 -59.5z" />
    <glyph glyph-name="glyph311" 
d="M-828 -816q-322 0 -322 283t322 283h408v50q0 90 100 90t100 -90v-50h320q100 0 100 -100t-100 -100h-320v-166q78 0 110 -42q32 -41 32 -125t-40 -125q-41 -42 -121 -42t-130.5 50t-50.5 110q-164 -26 -408 -26zM-828 -616h408v166h-408q-122 0 -122 -83t122 -83z" />
    <glyph glyph-name="glyph312" 
d="M-183 -491q-2 86 -55 86q-37 0 -37 -41q0 -51 92 -45zM-205 -603q-207 4 -207 157q0 225 174 225q238 0 238 -277q0 -168 -97.5 -310t-209.5 -142q-61 0 -253 190l-243 -190q-110 0 -249 159t-139 268l181 134l-190 107l105 182q334 -158 334 -278q0 -69 -86 -131
l-86 -62q35 -77 126 -134l265 222l233 -215q38 0 85 65q11 15 19 30z" />
    <glyph glyph-name="glyph313" 
d="M-800 -737q20 -61 45 -61t44.5 20.5t19.5 62.5q0 61 -33 61q-76 0 -76 -83zM0 -874q0 -76 -67 -76q-68 0 -146 42t-78 105t45.5 117.5t45.5 114.5v177l-100 80l-200 -135l-200 135l-100 -80v-149q33 33 76 33q199 0 199 -205q0 -87 -73.5 -161t-161.5 -74
q-81 0 -160.5 74t-79.5 139v367q0 58 73 114l215 162l212 -134l210 134l216 -162q74 -56 74 -114v-504z" />
    <glyph glyph-name="glyph314" 
d="M-650 -557v-147q0 -90 -58.5 -168t-174.5 -78q-117 0 -117 161q150 68 150 150v82q0 89 -110 153q0 64 60 96l420 208l420 -208q60 -32 60 -96v-464q0 -82 -64 -82q-66 0 -156 45t-90 113t55 98.5t55 95.5v154l-280 132l-226 -112q56 -44 56 -133z" />
    <glyph glyph-name="glyph315" 
d="M-190 -313q-110 -68 -110 -137h50q250 0 250 -250t-250 -250t-250 300q-35 0 -97 -79t-173 -79q-90 0 -162.5 79t-235 104t-162.5 85t150.5 75t259 -63t150.5 -78q40 1 104.5 78.5t165.5 77.5q0 160 69 230t150 70t91 -163zM-251 -750q51 0 51 50t-50 50h-50
q0 -100 49 -100z" />
    <glyph glyph-name="glyph316" 
d="M-681 -675q183 -2 100.5 -138.5t-244.5 -136.5q-300 0 -300 291q0 259 335 259q88 0 198 -52l421 322q43 35 80 35q35 0 65 -32q26 -27 26 -56q0 -39 -48 -80l-213 -184l-179 -147q-56 -43 -168 -24.5t-182 18.5q-135 0 -135 -59q0 -91 100 -91q93 0 144 75z" />
    <glyph glyph-name="glyph317" 
d="M-608 -950q-245 0 -364 268q186 96 365.5 234.5t325.5 331.5q50 16 88 16q88 0 126.5 -78t38.5 -166q0 -209 -167.5 -407.5t-412.5 -198.5zM-664 -751q12 -49 145.5 13t212 167t78.5 232q-163 -234 -436 -412z" />
    <glyph glyph-name="glyph318" 
d="M-600 -666q-46 -227 -313 -284h-252q-78 0 -196.5 88t-138.5 222l163 141q-32 95 -163 129l213 270q185 -109 237 -88q-5 -103 -36 -133t-158 20l-30 -36q59 -34 106 -80.5t47 -89.5q0 -42 -169 -159l125 -84h252l113 84v213q0 63 -17 83q-22 7 -22 25q0 17 24 31
q356 214 393 214q39 0 422 -204v-589q0 -57 -54 -57t-149.5 31.5t-95.5 78.5t49.5 87.5t49.5 86.5v256l-225 104l-212 -131q37 -26 37 -56v-173z" />
    <glyph glyph-name="glyph319" 
d="M-900 -700v-21q0 -82 -72 -155.5t-170 -73.5q-108 0 -108 110q0 50 75 73t75 83v210q0 50 -150 77l268 297q196 -128 271 -104q-19 -95 -104 -111t-175 29l-34 -37q124 -54 124 -144v-33h700v26q0 50 -161 77l268 297q119 -128 193 -104q-18 -95 -66.5 -111t-134.5 29
l-34 -37q135 -54 135 -144v-224q0 -112 -77.5 -185.5t-175.5 -73.5q-108 0 -108 110q0 50 80.5 73t80.5 53v14h-700z" />
    <glyph glyph-name="glyph320" 
d="M-800 -850q0 -100 -81 -100q-82 0 -175.5 40t-93.5 123t75 125t75 102v58l-380 199l-370 -199v-348q0 -100 -81 -100q-82 0 -175.5 30t-93.5 113t75 135t75 112v58l-380 199l-370 -199v-78q0 -40 103.5 -97t63.5 -165t-135 -108t-163.5 75t-68.5 215v208q0 78 71 117
l499 235l480 -224l470 224l499 -235q81 -39 81 -117v-398z" />
    <glyph glyph-name="glyph321" 
d="M-2350 -321q0 119 147.5 180t352.5 61q206 0 353 -58t147 -211q0 -122 -524 -396l72 -44l362 257q16 -114 -139.5 -264.5t-230.5 -153.5q-75 0 -222.5 137.5t-17.5 194.5q500 204 500 269q0 96 -300 96t-300 -68q0 -73 48 -73q0 68 87.5 78.5t116 -42.5t-25.5 -120.5
t-178 -67.5q-248 0 -248 225z" />
    <glyph glyph-name="glyph322" 
d="M-2350 -372q0 57 63 86l437 186l438 -186q62 -29 62 -86v-504q0 -74 -67 -74q-68 0 -146 40.5t-78 101.5t45.5 113.5t45.5 111.5v154l-300 126l-300 -126v-169q0 -29 70 -93t36.5 -161.5t-112.5 -97.5t-136.5 55t-57.5 158v365z" />
    <glyph glyph-name="glyph323" 
d="M-1983 -950q-200 0 -300 96q-101 98 -101 241q0 154 50 232q51 77 151 77q66 0 100 -39q33 -38 33 -116q-67 0 -100.5 -38.5t-33.5 -115.5q0 -137 201 -137q210 0 308.5 146.5t165.5 306t83 179.5q16 18 44 18q66 0 66 -77q0 -82 -58 -253.5t-142 -287.5t-200 -173
q-116 -59 -267 -59z" />
    <glyph glyph-name="glyph324" 
d="M-1870 -100q102 0 74.5 -154.5t-102 -276.5t-163.5 -193q0 -26 106 -26q148 0 223 187q-51 20 -51 107q0 88 40 121.5t120 33.5q69 0 103.5 -38.5t34.5 -86.5q0 -28 -17 -71q77 0 77 -66t-92 -78q-14 0 -27 0.5t-25 2.5q-14 -26 -30.5 -55.5t-34.5 -61.5
q-34 -65 -124 -130t-197 -65q-159 0 -239 72q-80 71 -80 154q0 97 61.5 137.5t118.5 126t89.5 223t134.5 137.5z" />
    <glyph glyph-name="glyph325" 
d="M-2100 -100v-400h73q190 0 301 -187q37 -63 137 -63q139 0 139 200q0 100 -60 100t-100 -60q-90 30 -90 100q0 160 190 160q260 0 260 -300q0 -400 -337 -400q-171 0 -272 156q-60 94 -165 94h-76v-125q0 -125 -100 -125t-175 104.5t-75 225.5q0 120 150 120v400h200z
" />
    <glyph glyph-name="glyph326" 
d="M-1611 -283q-32 0 -38 -14t-6 -52q0 -57 61 -57h48q14 0 15 2q-34 121 -80 121zM-1243 -341q32 0 32 -51q0 -69 -64 -99q-14 -7 -28.5 -13t-31.5 -12v-12q0 -130 -89.5 -272t-219.5 -142q-65 0 -133 40q-68 42 -135 146q-77 -106 -141 -146t-129 -40q-128 0 -217 142.5
t-89 272.5q0 213 94 320t222 107q64 0 64 -76q0 -77 -64 -77q-32 0 -74 -68.5t-42 -205.5q0 -53 37 -138t69 -85t86.5 54t183.5 207q126 -153 165 -207t106 -54q31 0 72 77t42 117q-15 -1 -31.5 -2t-32.5 -1q-96 0 -159 57.5t-63 152.5q0 135 53 192t149 57
q102 0 168.5 -68.5t97.5 -205.5q18 7 36 12t34 13q8 1 14 3l9 3q6 2 9 2z" />
    <glyph glyph-name="glyph327" 
d="M-1358 -372q0 72 -78 72q-86 0 -86 100t86 100q278 0 278 -272q0 -174 -146.5 -301t-410.5 -127q-278 0 -475 110t-326 346q-26 49 -26 90q0 25 9 46q25 58 96.5 58t109.5 -67q115 -204 256.5 -293.5t355.5 -89.5q168 0 262.5 75.5t94.5 152.5z" />
    <glyph glyph-name="glyph328" 
d="M-2150 -708q0 -73 40 -95q30 0 49.5 38t19.5 79q0 59 -53 59q-56 0 -56 -81zM-2150 -520q23 32 56 32q219 0 219 -198q0 -84 -73.5 -174t-161.5 -90q-81 0 -160.5 90t-79.5 152v336q0 57 63 86l437 186l438 -186q62 -29 62 -86v-504q0 -74 -67 -74q-68 0 -146 40.5
t-78 101.5t45.5 113.5t45.5 111.5v174l-300 126l-300 -126v-111z" />
    <glyph glyph-name="glyph329" 
d="M-1610 -198q0 54 31 82q32 27 104 27q63 0 94 -55q31 -54 31 -164v-494q0 -69 -33 -103t-100 -34l-358 203l-129 -145q-48 -58 -74 -58t-61 64l-213 300q-32 54 -32 119q0 91 111 110q114 19 205 27q93 9 171 9h312q-28 2 -43 30q-16 27 -16 82zM-1551 -500h-328
q-50 0 -119.5 -1t-138.5 -18l113 -170l175 156l298 -142v175z" />
    <glyph glyph-name="glyph330" 
d="M-2153 -468q51 13 34 66q14 16 72 15q91 0 91 -54.5t-79.5 -97t-117.5 -42.5q-97 0 -147 42.5t-50 83.5v149q0 43 73 85l215 121l212 -100l210 100l216 -121q74 -42 74 -85v-18q0 -168 -617 -426l44 -29l407 163q166 26 166 -40v-237q0 -57 -83 -57t-83 57v121l-335 -145
q-75 -33 -99 -33q-25 0 -109 65l-84 64q-42 35 -42 89.5t71 84.5q564 216 564 303l-100 64l-200 -93l-200 93l-103 -74v-114z" />
    <glyph glyph-name="glyph331" 
d="M-2150 -708q0 -73 40 -95q30 0 49.5 38t19.5 79q0 59 -53 59q-56 0 -56 -81zM-2150 -520q23 32 56 32q219 0 219 -198q0 -84 -73.5 -174t-161.5 -90q-81 0 -160.5 90t-79.5 152v336q0 57 63 86l437 186l438 -186q62 -29 62 -86v-504q0 -74 -67 -74q-68 0 -146 40.5
t-78 101.5t45.5 113.5t45.5 111.5v174l-300 126l-300 -126v-111z" />
    <glyph glyph-name="glyph332" 
d="M-2189 -632q30 -68 112 -68q50 0 50 50q0 51 -100 55q-35 2 -62 -37zM-2196 -471q78 52 179 34q190 -33 190 -213q0 -250 -250 -250q-330 0 -330 368q0 382 500 382q443 0 587 -228q28 -46 28 -81q0 -46 -47 -72q-82 -47 -153 57q-71 124 -415 124q-243 0 -289 -121z" />
    <glyph glyph-name="glyph333" 
d="M-1870 -248q-56 19 -56 51.5t28 64.5t95 32q66 0 94 -32t28 -97q0 -64 -52 -175q-51 -113 -145 -185q-94 -73 -222 -115q0 -46 109 -46t239.5 124.5t161.5 233.5q32 109 57 135q24 28 60 28q73 0 73 -65v-556q0 -100 -84 -100t-84 100v182q-69 -132 -182 -207t-213 -75
q-140 0 -238.5 63.5t-98.5 187.5q0 105 57 125q215 75 294 180.5t79 145.5z" />
    <glyph glyph-name="glyph334" 
d="M-1606 -215q-9 -101 -160 -232q103 -53 147 -26t44 112q0 104 -17.5 108t-10.5 72q6 67 68 59q66 -7 113 -70t47 -169q0 -231 -114.5 -293t-243.5 7q-13 -164 -111 -233.5t-206 -69.5q-109 0 -192 73t-83 183q0 109 55 138q299 156 411.5 272t83.5 124q6 58 75 58
q10 0 23 -1q74 -9 71 -112zM-2125 -706q0 -45 107 -47t149 213q-112 -76 -151 -106.5t-105 -59.5z" />
    <glyph glyph-name="glyph335" 
d="M-2203 -816q-322 0 -322 283t322 283h408v50q0 90 100 90t100 -90v-50h320q100 0 100 -100t-100 -100h-320v-166q78 0 110 -42q32 -41 32 -125t-40 -125q-41 -42 -121 -42t-130.5 50t-50.5 110q-164 -26 -408 -26zM-2203 -616h408v166h-408q-122 0 -122 -83t122 -83z" />
    <glyph glyph-name="glyph336" 
d="M-1433 -491q-2 86 -55 86q-37 0 -37 -41q0 -51 92 -45zM-1455 -603q-207 4 -207 157q0 225 174 225q238 0 238 -277q0 -168 -97.5 -310t-209.5 -142q-61 0 -253 190l-243 -190q-110 0 -249 159t-139 268l181 134l-190 107l105 182q334 -158 334 -278q0 -69 -86 -131
l-86 -62q35 -77 126 -134l265 222l233 -215q38 0 85 65q11 15 19 30z" />
    <glyph glyph-name="glyph337" 
d="M-2150 -737q20 -61 45 -61t44.5 20.5t19.5 62.5q0 61 -33 61q-76 0 -76 -83zM-1350 -874q0 -76 -67 -76q-68 0 -146 42t-78 105t45.5 117.5t45.5 114.5v177l-100 80l-200 -135l-200 135l-100 -80v-149q33 33 76 33q199 0 199 -205q0 -87 -73.5 -161t-161.5 -74
q-81 0 -160.5 74t-79.5 139v367q0 58 73 114l215 162l212 -134l210 134l216 -162q74 -56 74 -114v-504z" />
    <glyph glyph-name="glyph338" 
d="M-2000 -557v-147q0 -90 -58.5 -168t-174.5 -78q-117 0 -117 161q150 68 150 150v82q0 89 -110 153q0 64 60 96l420 208l420 -208q60 -32 60 -96v-464q0 -82 -64 -82q-66 0 -156 45t-90 113t55 98.5t55 95.5v154l-280 132l-226 -112q56 -44 56 -133z" />
    <glyph glyph-name="glyph339" 
d="M-1375 -313q-110 -68 -110 -137h50q250 0 250 -250t-250 -250t-250 300q-35 0 -97 -79t-173 -79q-90 0 -162.5 79t-235 104t-162.5 85t150.5 75t259 -63t150.5 -78q40 1 104.5 78.5t165.5 77.5q0 160 69 230t150 70t91 -163zM-1436 -750q51 0 51 50t-50 50h-50
q0 -100 49 -100z" />
    <glyph glyph-name="glyph340" 
d="M-1968 -675q183 -2 100.5 -138.5t-244.5 -136.5q-300 0 -300 291q0 259 335 259q88 0 198 -52l421 322q43 35 80 35q35 0 65 -32q26 -27 26 -56q0 -39 -48 -80l-213 -184l-179 -147q-56 -43 -168 -24.5t-182 18.5q-135 0 -135 -59q0 -91 100 -91q93 0 144 75z" />
    <glyph glyph-name="glyph341" 
d="M-1958 -950q-245 0 -364 268q186 96 365.5 234.5t325.5 331.5q50 16 88 16q88 0 126.5 -78t38.5 -166q0 -209 -167.5 -407.5t-412.5 -198.5zM-2014 -751q12 -49 145.5 13t212 167t78.5 232q-163 -234 -436 -412z" />
    <glyph glyph-name="glyph342" 
d="M-1850 -666q-46 -227 -313 -284h-252q-78 0 -196.5 88t-138.5 222l163 141q-32 95 -163 129l213 270q185 -109 237 -88q-5 -103 -36 -133t-158 20l-30 -36q59 -34 106 -80.5t47 -89.5q0 -42 -169 -159l125 -84h252l113 84v213q0 63 -17 83q-22 7 -22 25q0 17 24 31
q356 214 393 214q39 0 422 -204v-589q0 -57 -54 -57t-149.5 31.5t-95.5 78.5t49.5 87.5t49.5 86.5v256l-225 104l-212 -131q37 -26 37 -56v-173z" />
    <glyph glyph-name="glyph343" 
d="M-2175 -700v-21q0 -82 -72 -155.5t-170 -73.5q-108 0 -108 110q0 50 75 73t75 83v210q0 50 -150 77l268 297q196 -128 271 -104q-19 -95 -104 -111t-175 29l-34 -37q124 -54 124 -144v-33h700v26q0 50 -161 77l268 297q119 -128 193 -104q-18 -95 -66.5 -111t-134.5 29
l-34 -37q135 -54 135 -144v-224q0 -112 -77.5 -185.5t-175.5 -73.5q-108 0 -108 110q0 50 80.5 73t80.5 53v14h-700z" />
    <glyph glyph-name="glyph344" 
d="M-1515 1984q0 -107 -100 -134q-100 27 -100 134v286q0 40 -35 60t-35 95t100 75q170 0 170 -230v-286zM-1915 1984q0 -107 -100 -134q-100 27 -100 134v286q0 40 -35 60t-35 95t100 75q170 0 170 -230v-286z" />
    <glyph glyph-name="glyph345" 
d="M-2550 1798q0 48 63 91l187 127q84 60 120 60q37 0 327 -116q238 116 276 116q36 0 143.5 -60.5t283.5 -119.5q-92 -146 -170 -146q-14 0 -28 5q-91 30 -239 128l-266 -133l-308 116l-76 -58q-76 -58 -194 -58q-119 0 -119 48z" />
    <glyph glyph-name="uni17C4.liga" horiz-adv-x="800" 
d="M300 1032l-431 245l-375 -326l-80 213q401 336 461 336q59 0 625 -360v-1040q0 -100 -81 -100q-82 0 -175.5 55t-93.5 138t75 155t75 152v532z" />
    <glyph glyph-name="uni17C5.liga" horiz-adv-x="800" 
d="M400 1203v467q0 40 -50 60t-50 95t100 75q200 0 200 -230v-470q0 -150 -100 -200v-900q0 -100 -81 -100q-82 0 -175.5 55t-93.5 138t75 155t75 152v532l-431 245l-375 -326l-80 213q401 336 461 336q26 0 525 -297z" />
    <glyph glyph-name="glyph348" horiz-adv-x="3500" 
d="M1000 1230q599 270 659 270t486 -186q431 186 493 186q60 0 216 -80.5t446 -139.5q-24 -180 -147.5 -170t-520.5 187l-487 -206l-484 209l-352 -151l53 -60l-168 -78l-194 164v55zM3200 100q0 -100 -81 -100q-82 0 -175.5 55t-93.5 138t75 155t75 152v228l-380 199
l-370 -199v-628q0 -100 -81 -100q-82 0 -175.5 55t-93.5 138t75 155t75 152v228l-380 199l-370 -199v-248q0 -40 103.5 -127t63.5 -220t-135 -133t-163.5 75t-68.5 215v488q0 78 71 117l499 235l480 -224l470 224l499 -235q81 -39 81 -117v-678zM500 1143v-643
q0 -90 100 -175t100 -160q0 -165 -115 -165q-105 0 -195 85t-90 315v1100h86q234 -264 314 -227q-20 -143 -92 -167q-43 -15 -108 37z" />
    <glyph glyph-name="glyph349" horiz-adv-x="2600" 
d="M1100 1110q0 210 176.5 300t423.5 90t423.5 -85t176.5 -355q0 -357 -664 -704l94 -111l461 457q20 -166 -167 -432t-277 -270q-89 0 -266.5 198.5t-21.5 297.5q641 307 641 564q0 240 -400 240t-400 -190q0 -130 96 -130q0 120 105.5 139t140 -74.5t-31 -169
t-214.5 -75.5q-296 0 -296 310zM500 1143v-643q0 -90 100 -175t100 -160q0 -165 -115 -165q-105 0 -195 85t-90 315v1100h86q234 -264 314 -227q-20 -143 -92 -167q-43 -15 -108 37z" />
    <glyph glyph-name="glyph350" horiz-adv-x="2600" 
d="M1000 1270l250 170q84 60 120 60q37 0 327 -106q238 106 276 106q36 0 143.5 -60.5t283.5 -119.5q-108 -172 -198 -141q-91 30 -239 128l-266 -126l-308 109l-152 -101l50 -80l-114 -58l-173 164v55zM1100 788q0 78 75 117l525 255l525 -255q75 -39 75 -117v-688
q0 -100 -81 -100q-82 0 -175.5 55t-93.5 138t75 155t75 152v238l-400 199l-400 -199v-258q0 -40 103.5 -127t63.5 -220t-135 -133t-163.5 75t-68.5 215v498zM500 1143v-643q0 -90 100 -175t100 -160q0 -165 -115 -165q-105 0 -195 85t-90 315v1100h86q234 -264 314 -227
q-20 -143 -92 -167q-43 -15 -108 37z" />
    <glyph glyph-name="glyph351" horiz-adv-x="3550" 
d="M2227 186q-113 -134 -327 -186h-386q-120 0 -302 155t-212 321l333 406l9 68q8 67 -92 220q-34 51 -64 34q-30 -18 18.5 -59t28 -116t-126.5 -68t-106 150t106.5 266t154.5 123t152 -191q127 -240 127 -332v-93q0 -75 -279 -455q79 -132 253 -229h386q200 80 250 300v376
q-40 136 -260 176l326 448q254 -194 334 -157q-20 -143 -82.5 -167.5t-238.5 73.5l-78 -95q179 -82 199 -258v-396q-6 -57 -19 -107q89 -112 233 -193h236q200 80 250 300v376q-40 136 -260 176l326 448q254 -194 334 -157q-20 -143 -82.5 -167.5t-238.5 73.5l-78 -95
q179 -82 199 -258v-396q-40 -400 -420 -500h-306q-126 0 -297 186zM500 1143v-643q0 -90 100 -175t100 -160q0 -165 -115 -165q-105 0 -195 85t-90 315v1100h86q234 -264 314 -227q-20 -143 -92 -167q-43 -15 -108 37z" />
    <glyph glyph-name="glyph352" horiz-adv-x="2600" 
d="M1431 1836q0 -48 39.5 -69t150.5 -21q138 0 224 113t125.5 205t59.5 180t75 88t55 -107t-44.5 -265.5t-170 -281t-324.5 -122.5q-140 0 -260 65t-120 185q8 103 101 92.5t89 -62.5zM1244 1071q78 -48 152 -140t74 -167t-75 -147l-156 -164q51 -156 151 -218l333 264
l240 -259q41 0 92.5 67t104.5 130t96.5 63t43.5 -86t-106.5 -250t-228.5 -164q-66 0 -256 226l-285 -226q-120 0 -272 174.5t-152 342.5l258 235q-95 185 -258 254q0 83 87 199q219 295 469 295h215q216 0 373 -106q156 -106 156 -275q0 -249 -168 -249t-172 100t70 100
t73 49q-2 48 -101 115q-98 66 -231 66h-215q-152 0 -312 -229zM500 1143v-643q0 -90 100 -175t100 -160q0 -165 -115 -165q-105 0 -195 85t-90 315v1100h86q234 -264 314 -227q-20 -143 -92 -167q-43 -15 -108 37z" />
    <glyph glyph-name="glyph353" horiz-adv-x="2600" 
d="M2178.5 154q-121.5 -154 -263.5 -154h-441q-170 0 -322 199.5t-152 317.5l258 255l-183 228q-75 85 -75 126q0 39 93 123q277 251 311 251t274 -216q211 216 246 216q34 0 295 -244q81 -67 81 -123t-44 -84t-134 28t-207 187l-237 -233l-257 239l-201 -166
q102 -81 176 -163t74 -157t-58 -139l-163 -172q83 -194 251 -273h373q131 40 182.5 127t44.5 163q0 100 -40 100q-30 0 -70 -60q-90 30 -90 100q0 160 160 160q240 0 240 -300q0 -182 -121.5 -336zM500 1143v-643q0 -90 100 -175t100 -160q0 -165 -115 -165q-105 0 -195 85
t-90 315v1100h86q234 -264 314 -227q-20 -143 -92 -167q-43 -15 -108 37z" />
    <glyph glyph-name="glyph354" horiz-adv-x="2600" 
d="M1913 0q-171 0 -272 156q-60 94 -175 94h-116v-125q0 -125 -100 -125t-175 104.5t-75 225.5q0 120 150 120v450q0 119 -75 190q-75 70 -75 103q0 32 93 101q277 206 311 206t274 -177q211 177 246 177q34 0 295 -200q81 -55 81 -147q0 -93 -183 -6q-85 36 -202 143
l-237 -191l-257 180l-175 -131q104 -101 104 -248v-450h113q200 0 311 -187q37 -63 137 -63q189 0 189 200q0 100 -60 100t-100 -60q-90 30 -90 100q0 160 190 160q260 0 260 -300q0 -400 -387 -400zM500 1143v-643q0 -90 100 -175t100 -160q0 -165 -115 -165
q-105 0 -195 85t-90 315v1100h86q234 -264 314 -227q-20 -143 -92 -167q-43 -15 -108 37z" />
    <glyph glyph-name="glyph355" horiz-adv-x="2600" 
d="M2160 1383q5 61 2 112q-7 100 -29 187.5t27 112.5q10 5 20 5q39 0 78 -75q48 -96 81 -257q11 -59 11 -118q0 -104 -36 -210q-6 -19 -14 -37q-5 -233 -168 -233q-168 0 -172 100t70 100t73 49q-2 48 -101 115q-98 66 -231 66h-215q-152 0 -312 -229q78 -48 152 -140
t74 -167t-75 -147l-156 -164q51 -156 151 -218l333 264l240 -259q41 0 92.5 67t104.5 130t96.5 63t43.5 -86t-106.5 -250t-228.5 -164q-66 0 -256 226l-285 -226q-120 0 -272 174.5t-152 342.5l258 235q-95 185 -258 254q0 83 87 199q219 295 469 295h215q216 0 373 -106
q8 -5 16 -11zM500 1143v-643q0 -90 100 -175t100 -160q0 -165 -115 -165q-105 0 -195 85t-90 315v1100h86q234 -264 314 -227q-20 -143 -92 -167q-43 -15 -108 37z" />
    <glyph glyph-name="glyph356" horiz-adv-x="4400" 
d="M2424 0q-180 0 -336 181t-186 347l286 284q1 67 -88 136l-400 317l-400 -317v-468q0 -40 103.5 -127t63.5 -220t-135 -133t-163.5 75t-68.5 215v618q0 124 75 186l525 406l525 -406q68 -56 121.5 -134t53.5 -136q0 -95 -72 -170l-165 -173q89 -164 261 -281h326
q200 80 250 300v376q-40 136 -260 176l326 448q254 -194 334 -157q-20 -143 -82.5 -167.5t-238.5 73.5l-78 -95q179 -82 199 -258v-396q-6 -57 -19 -107q89 -112 233 -193h236q200 80 250 300v376q-40 136 -260 176l326 448q254 -194 334 -157q-20 -143 -82.5 -167.5
t-238.5 73.5l-78 -95q179 -82 199 -258v-396q-40 -400 -420 -500h-306q-126 0 -297 186q-113 -134 -327 -186h-326zM500 1143v-643q0 -90 100 -175t100 -160q0 -165 -115 -165q-105 0 -195 85t-90 315v1100h86q234 -264 314 -227q-20 -143 -92 -167q-43 -15 -108 37z" />
    <glyph glyph-name="glyph357" horiz-adv-x="3550" 
d="M3050 -372q0 72 -98 72q-86 0 -86 100t86 100q298 0 298 -272q0 -174 -206.5 -301t-750.5 -127q-388 0 -650 110t-486 366q-57 58 -57 117q0 57 96.5 57t139.5 -57q220 -214 426.5 -303.5t530.5 -89.5q448 0 602.5 75.5t154.5 152.5zM1300 370q20 -140 87 -170
q36 0 59.5 72t23.5 128q0 80 -63 80q-107 0 -107 -110zM2300 1000v-900q0 -100 -81 -100q-82 0 -175.5 55t-93.5 138t75 155t75 152v603l-161 132l-240 -165l-240 165l-159 -132v-477q31 44 107 44q263 0 263 -270q0 -155 -88.5 -277.5t-194.5 -122.5q-97 0 -192 122.5
t-95 247.5v765q0 76 87 150l258 215l254 -178l253 178l259 -215q27 -22 45 -44q316 259 369 259q59 0 625 -360v-1040q0 -100 -81 -100q-82 0 -175.5 55t-93.5 138t75 155t75 152v532l-431 245zM500 1143v-643q0 -90 100 -175t100 -160q0 -165 -115 -165q-105 0 -195 85
t-90 315v1100h86q234 -264 314 -227q-20 -143 -92 -167q-43 -15 -108 37z" />
    <glyph glyph-name="glyph358" horiz-adv-x="2600" 
d="M1241 1104l155 -163q74 -82 74 -157t-58 -139l-163 -172q51 -146 171 -208l303 234l240 -259q41 0 92.5 87t104.5 130t96.5 43t43.5 -86q0 -106 -106.5 -260t-228.5 -154q-66 0 -276 206l-265 -206q-120 0 -272 199.5t-152 317.5l258 255l-183 228q-75 85 -75 126
q0 39 93 123q23 21 44 40l164 148q69 63 101 63t156 -100q123 -100 352 -100q190 0 190 186q0 104 -50 184t60 80q190 0 190 -264q0 -386 -390 -386q-282 0 -500 150zM500 1143v-643q0 -90 100 -175t100 -160q0 -165 -115 -165q-105 0 -195 85t-90 315v1100h86
q234 -264 314 -227q-20 -143 -92 -167q-43 -15 -108 37z" />
    <glyph glyph-name="glyph359" horiz-adv-x="2650" 
d="M2350 500q-40 -400 -420 -500h-416q-120 0 -302 155t-212 321l333 406l9 68q8 67 -92 220q-34 51 -64 34q-30 -18 18.5 -59t28 -116t-126.5 -68t-106 150t106.5 266t154.5 123t152 -191q127 -240 127 -332v-93q0 -75 -279 -455q79 -132 253 -229h386q200 80 250 300v376
q0 136 -200 176l286 448q97 -117 188 -138.5t49 327.5q127 -84 127 -254t-82.5 -247t-258.5 31l-58 -85q149 -72 149 -188v-446zM500 1143v-643q0 -90 100 -175t100 -160q0 -165 -115 -165q-105 0 -195 85t-90 315v1100h86q234 -264 314 -227q-20 -143 -92 -167
q-43 -15 -108 37z" />
    <glyph glyph-name="glyph360" horiz-adv-x="2600" 
d="M1300 850q61 22 65 57t-24 59q17 81 86 80q109 -1 109 -155q0 -91 -95.5 -166t-140.5 -75q-81 0 -140.5 75t-59.5 148v262q0 76 87 150l258 215l254 -178l253 178l259 -215q89 -74 89 -150v-32q0 -296 -263 -461l-511 -325l73 -82l357 228l144 91q200 46 200 -72v-382
q0 -100 -100 -100t-100 100v214l-402 -256q-90 -58 -119 -58q-30 0 -130 114l-101 113q-50 62 -50 114q0 69 85 122l539 339q178 113 178 301l-161 132l-240 -165l-240 165l-159 -132v-253zM500 1143v-643q0 -90 100 -175t100 -160q0 -165 -115 -165q-105 0 -195 85t-90 315
v1100h86q234 -264 314 -227q-20 -143 -92 -167q-43 -15 -108 37z" />
    <glyph glyph-name="glyph361" horiz-adv-x="3550" 
d="M1300 370q20 -140 87 -170q36 0 59.5 72t23.5 128q0 80 -63 80q-107 0 -107 -110zM2100 1103l-161 132l-240 -165l-240 165l-159 -132v-477q31 44 107 44q263 0 263 -270q0 -155 -88.5 -277.5t-194.5 -122.5q-97 0 -192 122.5t-95 247.5v765q0 76 87 150l258 215
l254 -178l253 178l259 -215q89 -74 89 -150v-685h113q200 0 311 -187q37 -63 137 -63q189 0 189 200v476q-40 136 -260 176l326 448q254 -194 334 -157q-20 -143 -82.5 -167.5t-238.5 73.5l-78 -95q179 -82 199 -258v-496q0 -400 -387 -400q-171 0 -272 156q-60 94 -175 94
h-116v-125q0 -125 -100 -125t-175 104.5t-75 225.5q0 120 150 120v653zM500 1143v-643q0 -90 100 -175t100 -160q0 -165 -115 -165q-105 0 -195 85t-90 315v1100h86q234 -264 314 -227q-20 -143 -92 -167q-43 -15 -108 37z" />
    <glyph glyph-name="glyph362" horiz-adv-x="4700" 
d="M4400 100q0 -100 -81 -100q-82 0 -175.5 55t-93.5 138t75 155t75 152v422l-492 332l-451 -295l144 -185q93 -106 29.5 -310.5t-193.5 -334t-252 -129.5q-116 0 -336 226l-255 -226q-120 0 -292 179.5t-172 337.5l265 392l-464 335l-431 -285v-479q0 -40 103.5 -127
t63.5 -220t-135 -133t-163.5 75t-68.5 215v700q0 92 163 197l488 313q649 -448 681 -523.5t-32 -181.5l-231 -342q91 -156 191 -218l333 274q224 -309 290 -309q41 0 144.5 122t118.5 334l-222 269q38 160 196 262l488 313l487 -306q162 -102 194 -177q10 -25 11 -53v-864z
M500 1143v-643q0 -90 100 -175t100 -160q0 -165 -115 -165q-105 0 -195 85t-90 315v1100h86q234 -264 314 -227q-20 -143 -92 -167q-43 -15 -108 37z" />
    <glyph glyph-name="glyph363" horiz-adv-x="2600" 
d="M1000 1270l250 170q84 60 120 60q37 0 327 -106q238 106 276 106q36 0 143.5 -60.5t283.5 -119.5q-108 -172 -198 -141q-91 30 -239 128l-266 -126l-308 109l-152 -101l50 -80l-114 -58l-173 164v55zM1300 330q20 -100 87 -130q36 0 59.5 52t23.5 108q0 80 -63 80
q-107 0 -107 -110zM1300 586q31 44 107 44q263 0 263 -270q0 -115 -88.5 -237.5t-194.5 -122.5q-97 0 -192 122.5t-95 207.5v458q0 78 75 117l525 255l525 -255q75 -39 75 -117v-688q0 -100 -81 -100q-82 0 -175.5 55t-93.5 138t75 155t75 152v238l-400 199l-400 -199v-152z
M500 1143v-643q0 -90 100 -175t100 -160q0 -165 -115 -165q-105 0 -195 85t-90 315v1100h86q234 -264 314 -227q-20 -143 -92 -167q-43 -15 -108 37z" />
    <glyph glyph-name="glyph364" horiz-adv-x="2600" 
d="M2178.5 154q-121.5 -154 -263.5 -154h-441q-170 0 -322 199.5t-152 317.5l258 255l-183 228q-75 85 -75 126q0 39 93 123l208 188q69 63 101 63t156 -100q123 -100 352 -100q190 0 190 186q0 104 -50 184t60 80q190 0 190 -264q0 -386 -390 -386q-282 0 -500 150
l-160 -146l146 -163q74 -82 74 -157t-58 -139l-163 -172q83 -194 251 -273h373q131 40 182.5 127t44.5 163q0 100 -40 100q-30 0 -70 -60q-90 30 -90 100q0 160 160 160q240 0 240 -300q0 -182 -121.5 -336zM500 1143v-643q0 -90 100 -175t100 -160q0 -165 -115 -165
q-105 0 -195 85t-90 315v1100h86q234 -264 314 -227q-20 -143 -92 -167q-43 -15 -108 37z" />
    <glyph glyph-name="glyph365" horiz-adv-x="2600" 
d="M1000 517l258 235q-95 185 -258 254q0 83 87 199q219 295 469 295h215q216 0 373 -106q156 -106 156 -275q0 -249 -168 -249t-172 100t70 100t73 49q-2 48 -101 115q-98 66 -231 66h-215q-152 0 -312 -229q78 -48 152 -140t74 -167t-75 -147l-156 -164q51 -156 191 -218
l222 150q166 115 312 115q145 0 240.5 -90t95.5 -210q0 -197 -126.5 -197t-140.5 91q67 56 67 106q0 100 -136 100q-117 0 -213 -75l-287 -225q-120 0 -302 155q-162 194 -162 362zM500 1143v-643q0 -90 100 -175t100 -160q0 -165 -115 -165q-105 0 -195 85t-90 315v1100h86
q234 -264 314 -227q-20 -143 -92 -167q-43 -15 -108 37z" />
    <glyph glyph-name="glyph366" horiz-adv-x="2600" 
d="M1220 1104q102 -81 176 -163t74 -157t-58 -139l-163 -172q51 -146 171 -208l303 234l240 -259q41 0 92.5 87t104.5 130t96.5 43t43.5 -86q0 -106 -106.5 -260t-228.5 -154q-66 0 -276 206l-265 -206q-120 0 -272 199.5t-152 317.5l258 255l-183 228q-75 85 -75 126
q0 39 93 123q277 251 311 251t274 -216q211 216 246 216q34 0 295 -244q81 -67 81 -123t-44 -84t-134 28t-207 187l-237 -233l-257 239zM500 1143v-643q0 -90 100 -175t100 -160q0 -165 -115 -165q-105 0 -195 85t-90 315v1100h86q234 -264 314 -227q-20 -143 -92 -167
q-43 -15 -108 37z" />
    <glyph glyph-name="glyph367" horiz-adv-x="2600" 
d="M1466 250h-116v-125q0 -125 -100 -125t-175 104.5t-75 225.5q0 120 150 120v450q-50 186 -150 188q0 138 71 177q599 235 624 235t524 -235q81 -39 81 -117v-88q0 -260 -175 -260t-175 100t75 100t75 98q-380 199 -405 199t-450 -176q105 -46 105 -221v-450h113
q200 0 311 -187q37 -63 137 -63q70 0 129.5 62t109.5 125t100 63t50 -86t-123 -225t-264 -139q-171 0 -272 156q-60 94 -175 94zM500 1143v-643q0 -90 100 -175t100 -160q0 -165 -115 -165q-105 0 -195 85t-90 315v1100h86q234 -264 314 -227q-20 -143 -92 -167
q-43 -15 -108 37z" />
    <glyph glyph-name="glyph368" horiz-adv-x="2600" 
d="M1211 429q79 -132 253 -229h386q200 80 250 300v376q-40 136 -260 176l326 448q254 -194 334 -157q-20 -143 -82.5 -167.5t-238.5 73.5l-78 -95q179 -82 199 -258v-396q-40 -400 -450 -500h-386q-120 0 -302 155t-212 321l308 276q-108 210 -308 270l326 478
q284 -194 364 -157q-20 -143 -92.5 -167.5t-258.5 73.5l-98 -135q131 -91 205 -183t74 -167t-75 -147zM500 1143v-643q0 -90 100 -175t100 -160q0 -165 -115 -165q-105 0 -195 85t-90 315v1100h86q234 -264 314 -227q-20 -143 -92 -167q-43 -15 -108 37z" />
    <glyph glyph-name="glyph369" horiz-adv-x="2600" 
d="M1965 0q-66 0 -276 206l-265 -206q-120 0 -272 199.5t-152 317.5l258 255l-183 228q-75 85 -75 126q0 39 93 123l208 188q69 63 101 63t156 -100q123 -100 352 -100q190 0 190 186q0 104 -50 184t60 80q190 0 190 -264q0 -386 -390 -386q-282 0 -500 150l-160 -146
l146 -163q74 -82 74 -157t-58 -139l-163 -172q51 -146 171 -208l303 234l240 -259q41 0 92.5 87t44.5 163q0 100 -60 100t-100 -60q-90 30 -90 100q0 160 190 160q260 0 260 -300q0 -182 -106.5 -336t-228.5 -154zM500 1143v-643q0 -90 100 -175t100 -160q0 -165 -115 -165
q-105 0 -195 85t-90 315v1100h86q234 -264 314 -227q-20 -143 -92 -167q-43 -15 -108 37z" />
    <glyph glyph-name="glyph370" horiz-adv-x="2600" 
d="M1300 370q20 -140 87 -170q36 0 59.5 72t23.5 128q0 80 -63 80q-107 0 -107 -110zM2300 100q0 -100 -81 -100q-82 0 -175.5 55t-93.5 138t75 155t75 152v603l-161 132l-240 -165l-240 165l-159 -132v-477q31 44 107 44q263 0 263 -270q0 -155 -88.5 -277.5t-194.5 -122.5
q-97 0 -192 122.5t-95 247.5v765q0 76 87 150l258 215l254 -178l253 178l259 -215q89 -74 89 -150v-1035zM500 1143v-643q0 -90 100 -175t100 -160q0 -165 -115 -165q-105 0 -195 85t-90 315v1100h86q234 -264 314 -227q-20 -143 -92 -167q-43 -15 -108 37z" />
    <glyph glyph-name="glyph371" horiz-adv-x="2600" 
d="M1000 1270l250 170q84 60 120 60q37 0 327 -106q238 106 276 106q36 0 143.5 -60.5t283.5 -119.5q-108 -172 -198 -141q-91 30 -239 128l-266 -126l-308 109l-152 -101l50 -80l-114 -58l-173 164v55zM1428 600v-200q0 -210 -68.5 -305t-163.5 -95q-146 0 -146 196
q178 84 178 284v120q0 109 -128 188q0 78 75 117l525 255l525 -255q75 -39 75 -117v-688q0 -100 -81 -100q-82 0 -175.5 55t-93.5 138t75 155t75 152v238l-400 199l-346 -174q74 -54 74 -163zM500 1143v-643q0 -90 100 -175t100 -160q0 -165 -115 -165q-105 0 -195 85
t-90 315v1100h86q234 -264 314 -227q-20 -143 -92 -167q-43 -15 -108 37z" />
    <glyph glyph-name="glyph372" horiz-adv-x="2600" 
d="M1421 645q-11 -14 -26 -28l-184 -188q79 -132 253 -229h386q200 80 250 300v145h-679zM2100 845v31q-40 136 -260 176l326 448q254 -194 334 -157q-20 -143 -82.5 -167.5t-238.5 73.5l-78 -95q179 -82 199 -258v-396q-40 -400 -450 -500h-386q-120 0 -302 155t-212 321
l308 276q-108 210 -308 270l326 478q284 -194 364 -157q-20 -143 -92.5 -167.5t-258.5 73.5l-98 -135q131 -91 205 -183q36 -45 55 -86h649zM500 1143v-643q0 -90 100 -175t100 -160q0 -165 -115 -165q-105 0 -195 85t-90 315v1100h86q234 -264 314 -227q-20 -143 -92 -167
q-43 -15 -108 37z" />
    <glyph glyph-name="glyph373" horiz-adv-x="3550" 
d="M2227 186q-113 -134 -327 -186h-356q-120 0 -282 155t-162 321v533q0 127 156.5 309t244.5 182t130 -91t-144 -186q-187 -95 -187 -217v-547q100 -162 244 -259h356q200 80 250 300v376q-40 136 -260 176l326 448q254 -194 334 -157q-20 -143 -82.5 -167.5t-238.5 73.5
l-78 -95q179 -82 199 -258v-396q-6 -57 -19 -107q89 -112 233 -193h236q200 80 250 300v376q-40 136 -260 176l326 448q254 -194 334 -157q-20 -143 -82.5 -167.5t-238.5 73.5l-78 -95q179 -82 199 -258v-396q-40 -400 -420 -500h-306q-126 0 -297 186zM500 1143v-643
q0 -90 100 -175t100 -160q0 -165 -115 -165q-105 0 -195 85t-90 315v1100h86q234 -264 314 -227q-20 -143 -92 -167q-43 -15 -108 37z" />
    <glyph glyph-name="glyph374" horiz-adv-x="1650" 
d="M1350 490q0 -270 -90 -380t-195 -110q-115 0 -115 165q0 75 100 160t100 175v376q0 136 -200 176l286 448q194 -234 364 -87q0 -123 -82.5 -212.5t-258.5 18.5l-58 -85q149 -72 149 -188v-456zM500 1143v-643q0 -90 100 -175t100 -160q0 -165 -115 -165q-105 0 -195 85
t-90 315v1100h86q234 -264 314 -227q-20 -143 -92 -167q-43 -15 -108 37z" />
    <glyph glyph-name="glyph375" horiz-adv-x="3500" 
d="M2100 948l-400 317l-400 -317v-468q0 -40 103.5 -127t63.5 -220t-135 -133t-163.5 75t-68.5 215v618q0 124 75 186l525 406l525 -406q68 -56 121.5 -134t53.5 -136q0 -95 -72 -170l-165 -173q89 -164 261 -281h366q160 80 210 300v376q-40 136 -260 176l326 448
q254 -194 334 -157q-20 -143 -82.5 -167.5t-238.5 73.5l-78 -95q179 -82 199 -258v-396q-40 -400 -410 -500h-366q-180 0 -336 181t-186 347l286 284q1 67 -88 136zM500 1143v-643q0 -90 100 -175t100 -160q0 -165 -115 -165q-105 0 -195 85t-90 315v1100h86
q234 -264 314 -227q-20 -143 -92 -167q-43 -15 -108 37z" />
    <glyph glyph-name="glyph376" horiz-adv-x="1650" 
d="M1150 876q0 136 -200 176l286 448q97 -117 168 -128.5t19 428.5q177 -125 177 -365q0 -170 -82.5 -247t-258.5 31l-58 -85q149 -72 149 -188v-456q0 -270 -90 -380t-195 -110q-115 0 -115 165q0 75 100 160t100 175v376zM500 1143v-643q0 -90 100 -175t100 -160
q0 -165 -115 -165q-105 0 -195 85t-90 315v1100h86q234 -264 314 -227q-20 -143 -92 -167q-43 -15 -108 37z" />
    <glyph glyph-name="glyph377" horiz-adv-x="2600" 
d="M1000 1270l250 170q84 60 120 60q37 0 327 -106q238 106 276 106q36 0 143.5 -60.5t283.5 -119.5q-108 -172 -198 -141q-91 30 -239 128l-266 -126l-308 109l-152 -101l50 -80l-114 -58l-173 164v55zM2100 666v72l-400 199l-400 -199v-258q0 -40 103.5 -127t63.5 -220
t-135 -133t-163.5 75t-68.5 215v498q0 78 75 117l525 255l525 -255q75 -39 75 -117v-122h200v-200h-200v-366q0 -100 -81 -100q-82 0 -175.5 55t-93.5 138t75 155q59 57 72 118h-197v200h200zM500 1143v-643q0 -90 100 -175t100 -160q0 -165 -115 -165q-105 0 -195 85
t-90 315v1100h86q234 -264 314 -227q-20 -143 -92 -167q-43 -15 -108 37z" />
    <glyph glyph-name="glyph378" horiz-adv-x="2600" 
d="M2300 596v-96q-40 -400 -450 -500h-386q-120 0 -302 155t-212 321l308 276q-108 210 -308 270l326 478q284 -194 364 -157q-20 -143 -92.5 -167.5t-258.5 73.5l-98 -135q131 -91 205 -183t74 -167t-75 -147l-184 -188q79 -132 253 -229h386q200 80 250 300v96h-200v200
h200v80q-40 136 -260 176l326 448q254 -194 334 -157q-20 -143 -82.5 -167.5t-238.5 73.5l-78 -95q179 -82 199 -258v-100h200v-200h-200zM500 1143v-643q0 -90 100 -175t100 -160q0 -165 -115 -165q-105 0 -195 85t-90 315v1100h86q234 -264 314 -227q-20 -143 -92 -167
q-43 -15 -108 37z" />
    <glyph glyph-name="glyph379" horiz-adv-x="3500" 
d="M1908 1001q-97 58 -286 92l308 407q244 -176 324 -143q-20 -129 -82.5 -161.5t-228.5 46.5l-28 -57q159 -64 208 -140q32 -49 41 -131l16 -8q189 -151 92 -299l-98 -149q86 -161 280 -258h306q190 80 240 300v376q-40 136 -260 176l326 448q254 -194 334 -157
q-20 -143 -82.5 -167.5t-238.5 73.5l-78 -95q179 -82 199 -258v-396q-40 -400 -440 -500h-306q-120 0 -322 155t-202 321l150 252q-360 159 -570 79.5t-210 -207.5q0 -230 113.5 -287t103.5 -185t-105 -128t-203.5 75t-108.5 215v310q0 206 226.5 328.5t581.5 72.5z
M500 1143v-643q0 -90 100 -175t100 -160q0 -165 -115 -165q-105 0 -195 85t-90 315v1100h86q234 -264 314 -227q-20 -143 -92 -167q-43 -15 -108 37z" />
    <glyph glyph-name="glyph380" horiz-adv-x="3550" 
d="M2300 500q-40 -400 -450 -500h-386q-120 0 -302 155t-212 321l308 276q-108 210 -308 270l326 478q284 -194 364 -157q-20 -143 -92.5 -167.5t-258.5 73.5l-98 -135q131 -91 205 -183t74 -167t-75 -147l-184 -188q79 -132 253 -229h386q200 80 250 300v376
q0 112 -102 147q-34 12 -34 43q0 30 37 56q547 378 604 378q59 0 645 -360v-1040q0 -100 -81 -100q-82 0 -175.5 55t-93.5 138t75 155t75 152v522l-451 255l-324 -232q25 -45 25 -99v-446zM500 1143v-643q0 -90 100 -175t100 -160q0 -165 -115 -165q-105 0 -195 85t-90 315
v1100h86q234 -264 314 -227q-20 -143 -92 -167q-43 -15 -108 37z" />
    <glyph glyph-name="glyph381" horiz-adv-x="3550" 
d="M3050 -728v1604q0 136 -200 176l286 448q234 -194 314 -157q-20 -143 -82.5 -167.5t-218.5 73.5l-58 -85q159 -82 159 -218v-1674q0 -222 -116 -222q-117 0 -205 56l-87 56l-176 111l-115 -167q-38 -56 -127 -56q-90 0 -163 32l-72 31q-139 63 -139 152.5t55 150.5l56 61
q39 40 39 82q0 41 -49 41q-99 0 -96.5 100t99.5 100q246 0 246 -241q0 -86 -76 -166l-77 -80l153 -65l240 265zM1000 517l258 235q-95 185 -258 254q0 83 87 199q219 295 469 295h215q216 0 373 -106q156 -106 156 -275q0 -249 -168 -249t-172 100t70 100t73 49
q-2 48 -101 115q-98 66 -231 66h-215q-152 0 -312 -229q78 -48 152 -140t74 -167t-75 -147l-156 -164q51 -156 191 -218l222 150q166 115 312 115q145 0 240.5 -90t95.5 -210q0 -197 -126.5 -197t-140.5 91q67 56 67 106q0 100 -136 100q-117 0 -213 -75l-287 -225
q-120 0 -302 155q-162 194 -162 362zM500 1143v-643q0 -90 100 -175t100 -160q0 -165 -115 -165q-105 0 -195 85t-90 315v1100h86q234 -264 314 -227q-20 -143 -92 -167q-43 -15 -108 37z" />
    <glyph glyph-name="glyph382" horiz-adv-x="2600" 
d="M1350 645v-155q0 -270 -90 -380t-195 -110q-115 0 -115 165q0 75 100 160t100 175v376q0 136 -200 176l286 448q284 -194 364 -157q-20 -143 -92.5 -167.5t-258.5 73.5l-58 -85q159 -82 159 -218v-101h750v31q0 136 -200 176l286 448q234 -194 314 -157
q-20 -143 -82.5 -167.5t-218.5 73.5l-58 -85q159 -82 159 -218v-456q0 -270 -90 -380t-195 -110q-115 0 -115 165q0 75 100 160t100 175v145h-750zM500 1143v-643q0 -90 100 -175t100 -160q0 -165 -115 -165q-105 0 -195 85t-90 315v1100h86q234 -264 314 -227
q-20 -143 -92 -167q-43 -15 -108 37z" />
    <glyph glyph-name="glyph383" horiz-adv-x="3550" 
d="M1300 370q20 -140 87 -170q36 0 59.5 72t23.5 128q0 80 -63 80q-107 0 -107 -110zM2300 1000v-900q0 -100 -81 -100q-82 0 -175.5 55t-93.5 138t75 155t75 152v603l-161 132l-240 -165l-240 165l-159 -132v-477q31 44 107 44q263 0 263 -270q0 -155 -88.5 -277.5
t-194.5 -122.5q-97 0 -192 122.5t-95 247.5v765q0 76 87 150l258 215l254 -178l253 178l259 -215q27 -22 45 -44q316 259 369 259q59 0 625 -360v-1040q0 -100 -81 -100q-82 0 -175.5 55t-93.5 138t75 155t75 152v532l-431 245zM500 1143v-643q0 -90 100 -175t100 -160
q0 -165 -115 -165q-105 0 -195 85t-90 315v1100h86q234 -264 314 -227q-20 -143 -92 -167q-43 -15 -108 37z" />
    <glyph glyph-name="glyph384" horiz-adv-x="2875" 
 />
    <glyph glyph-name="glyph385" horiz-adv-x="2875" 
 />
    <glyph glyph-name="glyph386" horiz-adv-x="3500" 
d="M1000 1230q599 270 659 270t486 -186q431 186 493 186q60 0 216 -80.5t446 -139.5q-24 -180 -147.5 -170t-520.5 187l-487 -206l-484 209l-352 -151l53 -60l-168 -78l-194 164v55zM3200 100q0 -100 -81 -100q-82 0 -175.5 55t-93.5 138t75 155t75 152v228l-380 199
l-370 -199v-628q0 -100 -81 -100q-82 0 -175.5 55t-93.5 138t75 155t75 152v228l-380 199l-370 -199v-248q0 -40 103.5 -127t63.5 -220t-135 -133t-163.5 75t-68.5 215v488q0 78 71 117l499 235l480 -224l470 224l499 -235q81 -39 81 -117v-678zM500 1143v-643
q0 -90 100 -175t100 -160q0 -165 -115 -165q-105 0 -195 85t-90 315v1100h86q234 -264 314 -227q-20 -143 -92 -167q-43 -15 -108 37zM824 2551q24 -10 24 -55q0 -87 -92 -304l-139 -329l-227 -23l8 -94l103 13q103 12 116 -53q12 -65 -87 -78l-198 -27q-11 -1 -20 -1
q-80 0 -90 97l-21 219q-1 11 -1 21q0 89 88 99l208 24l128 261q114 233 184 233q8 0 16 -3z" />
    <glyph glyph-name="glyph387" horiz-adv-x="2600" 
d="M1100 1110q0 210 176.5 300t423.5 90t423.5 -85t176.5 -355q0 -357 -664 -704l94 -111l461 457q20 -166 -167 -432t-277 -270q-89 0 -266.5 198.5t-21.5 297.5q641 307 641 564q0 240 -400 240t-400 -190q0 -130 96 -130q0 120 105.5 139t140 -74.5t-31 -169
t-214.5 -75.5q-296 0 -296 310zM500 1143v-643q0 -90 100 -175t100 -160q0 -165 -115 -165q-105 0 -195 85t-90 315v1100h86q234 -264 314 -227q-20 -143 -92 -167q-43 -15 -108 37zM824 2551q24 -10 24 -55q0 -87 -92 -304l-139 -329l-227 -23l8 -94l103 13q103 12 116 -53
q12 -65 -87 -78l-198 -27q-11 -1 -20 -1q-80 0 -90 97l-21 219q-1 11 -1 21q0 89 88 99l208 24l128 261q114 233 184 233q8 0 16 -3z" />
    <glyph glyph-name="glyph388" horiz-adv-x="2600" 
d="M1000 1270l250 170q84 60 120 60q37 0 327 -106q238 106 276 106q36 0 143.5 -60.5t283.5 -119.5q-108 -172 -198 -141q-91 30 -239 128l-266 -126l-308 109l-152 -101l50 -80l-114 -58l-173 164v55zM1100 788q0 78 75 117l525 255l525 -255q75 -39 75 -117v-688
q0 -100 -81 -100q-82 0 -175.5 55t-93.5 138t75 155t75 152v238l-400 199l-400 -199v-258q0 -40 103.5 -127t63.5 -220t-135 -133t-163.5 75t-68.5 215v498zM500 1143v-643q0 -90 100 -175t100 -160q0 -165 -115 -165q-105 0 -195 85t-90 315v1100h86q234 -264 314 -227
q-20 -143 -92 -167q-43 -15 -108 37zM824 2551q24 -10 24 -55q0 -87 -92 -304l-139 -329l-227 -23l8 -94l103 13q103 12 116 -53q12 -65 -87 -78l-198 -27q-11 -1 -20 -1q-80 0 -90 97l-21 219q-1 11 -1 21q0 89 88 99l208 24l128 261q114 233 184 233q8 0 16 -3z" />
    <glyph glyph-name="glyph389" horiz-adv-x="3550" 
d="M2227 186q-113 -134 -327 -186h-386q-120 0 -302 155t-212 321l333 406l9 68q8 67 -92 220q-34 51 -64 34q-30 -18 18.5 -59t28 -116t-126.5 -68t-106 150t106.5 266t154.5 123t152 -191q127 -240 127 -332v-93q0 -75 -279 -455q79 -132 253 -229h386q200 80 250 300v376
q-40 136 -260 176l326 448q254 -194 334 -157q-20 -143 -82.5 -167.5t-238.5 73.5l-78 -95q179 -82 199 -258v-396q-6 -57 -19 -107q89 -112 233 -193h236q200 80 250 300v376q-40 136 -260 176l326 448q254 -194 334 -157q-20 -143 -82.5 -167.5t-238.5 73.5l-78 -95
q179 -82 199 -258v-396q-40 -400 -420 -500h-306q-126 0 -297 186zM500 1143v-643q0 -90 100 -175t100 -160q0 -165 -115 -165q-105 0 -195 85t-90 315v1100h86q234 -264 314 -227q-20 -143 -92 -167q-43 -15 -108 37zM824 2551q24 -10 24 -55q0 -87 -92 -304l-139 -329
l-227 -23l8 -94l103 13q103 12 116 -53q12 -65 -87 -78l-198 -27q-11 -1 -20 -1q-80 0 -90 97l-21 219q-1 11 -1 21q0 89 88 99l208 24l128 261q114 233 184 233q8 0 16 -3z" />
    <glyph glyph-name="glyph390" horiz-adv-x="2600" 
d="M1431 1836q0 -48 39.5 -69t150.5 -21q138 0 224 113t125.5 205t59.5 180t75 88t55 -107t-44.5 -265.5t-170 -281t-324.5 -122.5q-140 0 -260 65t-120 185q8 103 101 92.5t89 -62.5zM1244 1071q78 -48 152 -140t74 -167t-75 -147l-156 -164q51 -156 151 -218l333 264
l240 -259q41 0 92.5 67t104.5 130t96.5 63t43.5 -86t-106.5 -250t-228.5 -164q-66 0 -256 226l-285 -226q-120 0 -272 174.5t-152 342.5l258 235q-95 185 -258 254q0 83 87 199q219 295 469 295h215q216 0 373 -106q156 -106 156 -275q0 -249 -168 -249t-172 100t70 100
t73 49q-2 48 -101 115q-98 66 -231 66h-215q-152 0 -312 -229zM500 1143v-643q0 -90 100 -175t100 -160q0 -165 -115 -165q-105 0 -195 85t-90 315v1100h86q234 -264 314 -227q-20 -143 -92 -167q-43 -15 -108 37zM824 2551q24 -10 24 -55q0 -87 -92 -304l-139 -329
l-227 -23l8 -94l103 13q103 12 116 -53q12 -65 -87 -78l-198 -27q-11 -1 -20 -1q-80 0 -90 97l-21 219q-1 11 -1 21q0 89 88 99l208 24l128 261q114 233 184 233q8 0 16 -3z" />
    <glyph glyph-name="glyph391" horiz-adv-x="2600" 
d="M2178.5 154q-121.5 -154 -263.5 -154h-441q-170 0 -322 199.5t-152 317.5l258 255l-183 228q-75 85 -75 126q0 39 93 123q277 251 311 251t274 -216q211 216 246 216q34 0 295 -244q81 -67 81 -123t-44 -84t-134 28t-207 187l-237 -233l-257 239l-201 -166
q102 -81 176 -163t74 -157t-58 -139l-163 -172q83 -194 251 -273h373q131 40 182.5 127t44.5 163q0 100 -40 100q-30 0 -70 -60q-90 30 -90 100q0 160 160 160q240 0 240 -300q0 -182 -121.5 -336zM500 1143v-643q0 -90 100 -175t100 -160q0 -165 -115 -165q-105 0 -195 85
t-90 315v1100h86q234 -264 314 -227q-20 -143 -92 -167q-43 -15 -108 37zM824 2551q24 -10 24 -55q0 -87 -92 -304l-139 -329l-227 -23l8 -94l103 13q103 12 116 -53q12 -65 -87 -78l-198 -27q-11 -1 -20 -1q-80 0 -90 97l-21 219q-1 11 -1 21q0 89 88 99l208 24l128 261
q114 233 184 233q8 0 16 -3z" />
    <glyph glyph-name="glyph392" horiz-adv-x="2600" 
d="M1913 0q-171 0 -272 156q-60 94 -175 94h-116v-125q0 -125 -100 -125t-175 104.5t-75 225.5q0 120 150 120v450q0 119 -75 190q-75 70 -75 103q0 32 93 101q277 206 311 206t274 -177q211 177 246 177q34 0 295 -200q81 -55 81 -147q0 -93 -183 -6q-85 36 -202 143
l-237 -191l-257 180l-175 -131q104 -101 104 -248v-450h113q200 0 311 -187q37 -63 137 -63q189 0 189 200q0 100 -60 100t-100 -60q-90 30 -90 100q0 160 190 160q260 0 260 -300q0 -400 -387 -400zM500 1143v-643q0 -90 100 -175t100 -160q0 -165 -115 -165
q-105 0 -195 85t-90 315v1100h86q234 -264 314 -227q-20 -143 -92 -167q-43 -15 -108 37zM824 2551q24 -10 24 -55q0 -87 -92 -304l-139 -329l-227 -23l8 -94l103 13q103 12 116 -53q12 -65 -87 -78l-198 -27q-11 -1 -20 -1q-80 0 -90 97l-21 219q-1 11 -1 21q0 89 88 99
l208 24l128 261q114 233 184 233q8 0 16 -3z" />
    <glyph glyph-name="glyph393" horiz-adv-x="2600" 
d="M2160 1383q5 61 2 112q-7 100 -29 187.5t27 112.5q10 5 20 5q39 0 78 -75q48 -96 81 -257q11 -59 11 -118q0 -104 -36 -210q-6 -19 -14 -37q-5 -233 -168 -233q-168 0 -172 100t70 100t73 49q-2 48 -101 115q-98 66 -231 66h-215q-152 0 -312 -229q78 -48 152 -140
t74 -167t-75 -147l-156 -164q51 -156 151 -218l333 264l240 -259q41 0 92.5 67t104.5 130t96.5 63t43.5 -86t-106.5 -250t-228.5 -164q-66 0 -256 226l-285 -226q-120 0 -272 174.5t-152 342.5l258 235q-95 185 -258 254q0 83 87 199q219 295 469 295h215q216 0 373 -106
q8 -5 16 -11zM500 1143v-643q0 -90 100 -175t100 -160q0 -165 -115 -165q-105 0 -195 85t-90 315v1100h86q234 -264 314 -227q-20 -143 -92 -167q-43 -15 -108 37zM824 2551q24 -10 24 -55q0 -87 -92 -304l-139 -329l-227 -23l8 -94l103 13q103 12 116 -53q12 -65 -87 -78
l-198 -27q-11 -1 -20 -1q-80 0 -90 97l-21 219q-1 11 -1 21q0 89 88 99l208 24l128 261q114 233 184 233q8 0 16 -3z" />
    <glyph glyph-name="glyph394" horiz-adv-x="4400" 
d="M2424 0q-180 0 -336 181t-186 347l286 284q1 67 -88 136l-400 317l-400 -317v-468q0 -40 103.5 -127t63.5 -220t-135 -133t-163.5 75t-68.5 215v618q0 124 75 186l525 406l525 -406q68 -56 121.5 -134t53.5 -136q0 -95 -72 -170l-165 -173q89 -164 261 -281h326
q200 80 250 300v376q-40 136 -260 176l326 448q254 -194 334 -157q-20 -143 -82.5 -167.5t-238.5 73.5l-78 -95q179 -82 199 -258v-396q-6 -57 -19 -107q89 -112 233 -193h236q200 80 250 300v376q-40 136 -260 176l326 448q254 -194 334 -157q-20 -143 -82.5 -167.5
t-238.5 73.5l-78 -95q179 -82 199 -258v-396q-40 -400 -420 -500h-306q-126 0 -297 186q-113 -134 -327 -186h-326zM500 1143v-643q0 -90 100 -175t100 -160q0 -165 -115 -165q-105 0 -195 85t-90 315v1100h86q234 -264 314 -227q-20 -143 -92 -167q-43 -15 -108 37z
M824 2551q24 -10 24 -55q0 -87 -92 -304l-139 -329l-227 -23l8 -94l103 13q103 12 116 -53q12 -65 -87 -78l-198 -27q-11 -1 -20 -1q-80 0 -90 97l-21 219q-1 11 -1 21q0 89 88 99l208 24l128 261q114 233 184 233q8 0 16 -3z" />
    <glyph glyph-name="glyph395" horiz-adv-x="3550" 
d="M3050 -372q0 72 -98 72q-86 0 -86 100t86 100q298 0 298 -272q0 -174 -206.5 -301t-750.5 -127q-388 0 -650 110t-486 366q-57 58 -57 117q0 57 96.5 57t139.5 -57q220 -214 426.5 -303.5t530.5 -89.5q448 0 602.5 75.5t154.5 152.5zM1300 370q20 -140 87 -170
q36 0 59.5 72t23.5 128q0 80 -63 80q-107 0 -107 -110zM2300 1000v-900q0 -100 -81 -100q-82 0 -175.5 55t-93.5 138t75 155t75 152v603l-161 132l-240 -165l-240 165l-159 -132v-477q31 44 107 44q263 0 263 -270q0 -155 -88.5 -277.5t-194.5 -122.5q-97 0 -192 122.5
t-95 247.5v765q0 76 87 150l258 215l254 -178l253 178l259 -215q27 -22 45 -44q316 259 369 259q59 0 625 -360v-1040q0 -100 -81 -100q-82 0 -175.5 55t-93.5 138t75 155t75 152v532l-431 245zM500 1143v-643q0 -90 100 -175t100 -160q0 -165 -115 -165q-105 0 -195 85
t-90 315v1100h86q234 -264 314 -227q-20 -143 -92 -167q-43 -15 -108 37zM824 2551q24 -10 24 -55q0 -87 -92 -304l-139 -329l-227 -23l8 -94l103 13q103 12 116 -53q12 -65 -87 -78l-198 -27q-11 -1 -20 -1q-80 0 -90 97l-21 219q-1 11 -1 21q0 89 88 99l208 24l128 261
q114 233 184 233q8 0 16 -3z" />
    <glyph glyph-name="glyph396" horiz-adv-x="2600" 
d="M1241 1104l155 -163q74 -82 74 -157t-58 -139l-163 -172q51 -146 171 -208l303 234l240 -259q41 0 92.5 87t104.5 130t96.5 43t43.5 -86q0 -106 -106.5 -260t-228.5 -154q-66 0 -276 206l-265 -206q-120 0 -272 199.5t-152 317.5l258 255l-183 228q-75 85 -75 126
q0 39 93 123q23 21 44 40l164 148q69 63 101 63t156 -100q123 -100 352 -100q190 0 190 186q0 104 -50 184t60 80q190 0 190 -264q0 -386 -390 -386q-282 0 -500 150zM500 1143v-643q0 -90 100 -175t100 -160q0 -165 -115 -165q-105 0 -195 85t-90 315v1100h86
q234 -264 314 -227q-20 -143 -92 -167q-43 -15 -108 37zM824 2551q24 -10 24 -55q0 -87 -92 -304l-139 -329l-227 -23l8 -94l103 13q103 12 116 -53q12 -65 -87 -78l-198 -27q-11 -1 -20 -1q-80 0 -90 97l-21 219q-1 11 -1 21q0 89 88 99l208 24l128 261q114 233 184 233
q8 0 16 -3z" />
    <glyph glyph-name="glyph397" horiz-adv-x="2650" 
d="M2350 500q-40 -400 -420 -500h-416q-120 0 -302 155t-212 321l333 406l9 68q8 67 -92 220q-34 51 -64 34q-30 -18 18.5 -59t28 -116t-126.5 -68t-106 150t106.5 266t154.5 123t152 -191q127 -240 127 -332v-93q0 -75 -279 -455q79 -132 253 -229h386q200 80 250 300v376
q0 136 -200 176l286 448q97 -117 188 -138.5t49 327.5q127 -84 127 -254t-82.5 -247t-258.5 31l-58 -85q149 -72 149 -188v-446zM500 1143v-643q0 -90 100 -175t100 -160q0 -165 -115 -165q-105 0 -195 85t-90 315v1100h86q234 -264 314 -227q-20 -143 -92 -167
q-43 -15 -108 37zM824 2551q24 -10 24 -55q0 -87 -92 -304l-139 -329l-227 -23l8 -94l103 13q103 12 116 -53q12 -65 -87 -78l-198 -27q-11 -1 -20 -1q-80 0 -90 97l-21 219q-1 11 -1 21q0 89 88 99l208 24l128 261q114 233 184 233q8 0 16 -3z" />
    <glyph glyph-name="glyph398" horiz-adv-x="2600" 
d="M1300 850q61 22 65 57t-24 59q17 81 86 80q109 -1 109 -155q0 -91 -95.5 -166t-140.5 -75q-81 0 -140.5 75t-59.5 148v262q0 76 87 150l258 215l254 -178l253 178l259 -215q89 -74 89 -150v-32q0 -296 -263 -461l-511 -325l73 -82l357 228l144 91q200 46 200 -72v-382
q0 -100 -100 -100t-100 100v214l-402 -256q-90 -58 -119 -58q-30 0 -130 114l-101 113q-50 62 -50 114q0 69 85 122l539 339q178 113 178 301l-161 132l-240 -165l-240 165l-159 -132v-253zM500 1143v-643q0 -90 100 -175t100 -160q0 -165 -115 -165q-105 0 -195 85t-90 315
v1100h86q234 -264 314 -227q-20 -143 -92 -167q-43 -15 -108 37zM824 2551q24 -10 24 -55q0 -87 -92 -304l-139 -329l-227 -23l8 -94l103 13q103 12 116 -53q12 -65 -87 -78l-198 -27q-11 -1 -20 -1q-80 0 -90 97l-21 219q-1 11 -1 21q0 89 88 99l208 24l128 261
q114 233 184 233q8 0 16 -3z" />
    <glyph glyph-name="glyph399" horiz-adv-x="3550" 
d="M1300 370q20 -140 87 -170q36 0 59.5 72t23.5 128q0 80 -63 80q-107 0 -107 -110zM2100 1103l-161 132l-240 -165l-240 165l-159 -132v-477q31 44 107 44q263 0 263 -270q0 -155 -88.5 -277.5t-194.5 -122.5q-97 0 -192 122.5t-95 247.5v765q0 76 87 150l258 215
l254 -178l253 178l259 -215q89 -74 89 -150v-685h113q200 0 311 -187q37 -63 137 -63q189 0 189 200v476q-40 136 -260 176l326 448q254 -194 334 -157q-20 -143 -82.5 -167.5t-238.5 73.5l-78 -95q179 -82 199 -258v-496q0 -400 -387 -400q-171 0 -272 156q-60 94 -175 94
h-116v-125q0 -125 -100 -125t-175 104.5t-75 225.5q0 120 150 120v653zM500 1143v-643q0 -90 100 -175t100 -160q0 -165 -115 -165q-105 0 -195 85t-90 315v1100h86q234 -264 314 -227q-20 -143 -92 -167q-43 -15 -108 37zM824 2551q24 -10 24 -55q0 -87 -92 -304l-139 -329
l-227 -23l8 -94l103 13q103 12 116 -53q12 -65 -87 -78l-198 -27q-11 -1 -20 -1q-80 0 -90 97l-21 219q-1 11 -1 21q0 89 88 99l208 24l128 261q114 233 184 233q8 0 16 -3z" />
    <glyph glyph-name="glyph400" horiz-adv-x="4700" 
d="M4400 100q0 -100 -81 -100q-82 0 -175.5 55t-93.5 138t75 155t75 152v422l-492 332l-451 -295l144 -185q93 -106 29.5 -310.5t-193.5 -334t-252 -129.5q-116 0 -336 226l-255 -226q-120 0 -292 179.5t-172 337.5l265 392l-464 335l-431 -285v-479q0 -40 103.5 -127
t63.5 -220t-135 -133t-163.5 75t-68.5 215v700q0 92 163 197l488 313q649 -448 681 -523.5t-32 -181.5l-231 -342q91 -156 191 -218l333 274q224 -309 290 -309q41 0 144.5 122t118.5 334l-222 269q38 160 196 262l488 313l487 -306q162 -102 194 -177q10 -25 11 -53v-864z
M500 1143v-643q0 -90 100 -175t100 -160q0 -165 -115 -165q-105 0 -195 85t-90 315v1100h86q234 -264 314 -227q-20 -143 -92 -167q-43 -15 -108 37zM824 2551q24 -10 24 -55q0 -87 -92 -304l-139 -329l-227 -23l8 -94l103 13q103 12 116 -53q12 -65 -87 -78l-198 -27
q-11 -1 -20 -1q-80 0 -90 97l-21 219q-1 11 -1 21q0 89 88 99l208 24l128 261q114 233 184 233q8 0 16 -3z" />
    <glyph glyph-name="glyph401" horiz-adv-x="2600" 
d="M1000 1270l250 170q84 60 120 60q37 0 327 -106q238 106 276 106q36 0 143.5 -60.5t283.5 -119.5q-108 -172 -198 -141q-91 30 -239 128l-266 -126l-308 109l-152 -101l50 -80l-114 -58l-173 164v55zM1300 330q20 -100 87 -130q36 0 59.5 52t23.5 108q0 80 -63 80
q-107 0 -107 -110zM1300 586q31 44 107 44q263 0 263 -270q0 -115 -88.5 -237.5t-194.5 -122.5q-97 0 -192 122.5t-95 207.5v458q0 78 75 117l525 255l525 -255q75 -39 75 -117v-688q0 -100 -81 -100q-82 0 -175.5 55t-93.5 138t75 155t75 152v238l-400 199l-400 -199v-152z
M500 1143v-643q0 -90 100 -175t100 -160q0 -165 -115 -165q-105 0 -195 85t-90 315v1100h86q234 -264 314 -227q-20 -143 -92 -167q-43 -15 -108 37zM824 2551q24 -10 24 -55q0 -87 -92 -304l-139 -329l-227 -23l8 -94l103 13q103 12 116 -53q12 -65 -87 -78l-198 -27
q-11 -1 -20 -1q-80 0 -90 97l-21 219q-1 11 -1 21q0 89 88 99l208 24l128 261q114 233 184 233q8 0 16 -3z" />
    <glyph glyph-name="glyph402" horiz-adv-x="2600" 
d="M2178.5 154q-121.5 -154 -263.5 -154h-441q-170 0 -322 199.5t-152 317.5l258 255l-183 228q-75 85 -75 126q0 39 93 123l208 188q69 63 101 63t156 -100q123 -100 352 -100q190 0 190 186q0 104 -50 184t60 80q190 0 190 -264q0 -386 -390 -386q-282 0 -500 150
l-160 -146l146 -163q74 -82 74 -157t-58 -139l-163 -172q83 -194 251 -273h373q131 40 182.5 127t44.5 163q0 100 -40 100q-30 0 -70 -60q-90 30 -90 100q0 160 160 160q240 0 240 -300q0 -182 -121.5 -336zM500 1143v-643q0 -90 100 -175t100 -160q0 -165 -115 -165
q-105 0 -195 85t-90 315v1100h86q234 -264 314 -227q-20 -143 -92 -167q-43 -15 -108 37zM824 2551q24 -10 24 -55q0 -87 -92 -304l-139 -329l-227 -23l8 -94l103 13q103 12 116 -53q12 -65 -87 -78l-198 -27q-11 -1 -20 -1q-80 0 -90 97l-21 219q-1 11 -1 21q0 89 88 99
l208 24l128 261q114 233 184 233q8 0 16 -3z" />
    <glyph glyph-name="glyph403" horiz-adv-x="2600" 
d="M1000 517l258 235q-95 185 -258 254q0 83 87 199q219 295 469 295h215q216 0 373 -106q156 -106 156 -275q0 -249 -168 -249t-172 100t70 100t73 49q-2 48 -101 115q-98 66 -231 66h-215q-152 0 -312 -229q78 -48 152 -140t74 -167t-75 -147l-156 -164q51 -156 191 -218
l222 150q166 115 312 115q145 0 240.5 -90t95.5 -210q0 -197 -126.5 -197t-140.5 91q67 56 67 106q0 100 -136 100q-117 0 -213 -75l-287 -225q-120 0 -302 155q-162 194 -162 362zM500 1143v-643q0 -90 100 -175t100 -160q0 -165 -115 -165q-105 0 -195 85t-90 315v1100h86
q234 -264 314 -227q-20 -143 -92 -167q-43 -15 -108 37zM824 2551q24 -10 24 -55q0 -87 -92 -304l-139 -329l-227 -23l8 -94l103 13q103 12 116 -53q12 -65 -87 -78l-198 -27q-11 -1 -20 -1q-80 0 -90 97l-21 219q-1 11 -1 21q0 89 88 99l208 24l128 261q114 233 184 233
q8 0 16 -3z" />
    <glyph glyph-name="glyph404" horiz-adv-x="2600" 
d="M1220 1104q102 -81 176 -163t74 -157t-58 -139l-163 -172q51 -146 171 -208l303 234l240 -259q41 0 92.5 87t104.5 130t96.5 43t43.5 -86q0 -106 -106.5 -260t-228.5 -154q-66 0 -276 206l-265 -206q-120 0 -272 199.5t-152 317.5l258 255l-183 228q-75 85 -75 126
q0 39 93 123q277 251 311 251t274 -216q211 216 246 216q34 0 295 -244q81 -67 81 -123t-44 -84t-134 28t-207 187l-237 -233l-257 239zM500 1143v-643q0 -90 100 -175t100 -160q0 -165 -115 -165q-105 0 -195 85t-90 315v1100h86q234 -264 314 -227q-20 -143 -92 -167
q-43 -15 -108 37zM824 2551q24 -10 24 -55q0 -87 -92 -304l-139 -329l-227 -23l8 -94l103 13q103 12 116 -53q12 -65 -87 -78l-198 -27q-11 -1 -20 -1q-80 0 -90 97l-21 219q-1 11 -1 21q0 89 88 99l208 24l128 261q114 233 184 233q8 0 16 -3z" />
    <glyph glyph-name="glyph405" horiz-adv-x="2600" 
d="M1466 250h-116v-125q0 -125 -100 -125t-175 104.5t-75 225.5q0 120 150 120v450q-50 186 -150 188q0 138 71 177q599 235 624 235t524 -235q81 -39 81 -117v-88q0 -260 -175 -260t-175 100t75 100t75 98q-380 199 -405 199t-450 -176q105 -46 105 -221v-450h113
q200 0 311 -187q37 -63 137 -63q70 0 129.5 62t109.5 125t100 63t50 -86t-123 -225t-264 -139q-171 0 -272 156q-60 94 -175 94zM500 1143v-643q0 -90 100 -175t100 -160q0 -165 -115 -165q-105 0 -195 85t-90 315v1100h86q234 -264 314 -227q-20 -143 -92 -167
q-43 -15 -108 37zM824 2551q24 -10 24 -55q0 -87 -92 -304l-139 -329l-227 -23l8 -94l103 13q103 12 116 -53q12 -65 -87 -78l-198 -27q-11 -1 -20 -1q-80 0 -90 97l-21 219q-1 11 -1 21q0 89 88 99l208 24l128 261q114 233 184 233q8 0 16 -3z" />
    <glyph glyph-name="glyph406" horiz-adv-x="2600" 
d="M1211 429q79 -132 253 -229h386q200 80 250 300v376q-40 136 -260 176l326 448q254 -194 334 -157q-20 -143 -82.5 -167.5t-238.5 73.5l-78 -95q179 -82 199 -258v-396q-40 -400 -450 -500h-386q-120 0 -302 155t-212 321l308 276q-108 210 -308 270l326 478
q284 -194 364 -157q-20 -143 -92.5 -167.5t-258.5 73.5l-98 -135q131 -91 205 -183t74 -167t-75 -147zM500 1143v-643q0 -90 100 -175t100 -160q0 -165 -115 -165q-105 0 -195 85t-90 315v1100h86q234 -264 314 -227q-20 -143 -92 -167q-43 -15 -108 37zM824 2551
q24 -10 24 -55q0 -87 -92 -304l-139 -329l-227 -23l8 -94l103 13q103 12 116 -53q12 -65 -87 -78l-198 -27q-11 -1 -20 -1q-80 0 -90 97l-21 219q-1 11 -1 21q0 89 88 99l208 24l128 261q114 233 184 233q8 0 16 -3z" />
    <glyph glyph-name="glyph407" horiz-adv-x="2600" 
d="M1965 0q-66 0 -276 206l-265 -206q-120 0 -272 199.5t-152 317.5l258 255l-183 228q-75 85 -75 126q0 39 93 123l208 188q69 63 101 63t156 -100q123 -100 352 -100q190 0 190 186q0 104 -50 184t60 80q190 0 190 -264q0 -386 -390 -386q-282 0 -500 150l-160 -146
l146 -163q74 -82 74 -157t-58 -139l-163 -172q51 -146 171 -208l303 234l240 -259q41 0 92.5 87t44.5 163q0 100 -60 100t-100 -60q-90 30 -90 100q0 160 190 160q260 0 260 -300q0 -182 -106.5 -336t-228.5 -154zM500 1143v-643q0 -90 100 -175t100 -160q0 -165 -115 -165
q-105 0 -195 85t-90 315v1100h86q234 -264 314 -227q-20 -143 -92 -167q-43 -15 -108 37zM824 2551q24 -10 24 -55q0 -87 -92 -304l-139 -329l-227 -23l8 -94l103 13q103 12 116 -53q12 -65 -87 -78l-198 -27q-11 -1 -20 -1q-80 0 -90 97l-21 219q-1 11 -1 21q0 89 88 99
l208 24l128 261q114 233 184 233q8 0 16 -3z" />
    <glyph glyph-name="glyph408" horiz-adv-x="2600" 
d="M1300 370q20 -140 87 -170q36 0 59.5 72t23.5 128q0 80 -63 80q-107 0 -107 -110zM2300 100q0 -100 -81 -100q-82 0 -175.5 55t-93.5 138t75 155t75 152v603l-161 132l-240 -165l-240 165l-159 -132v-477q31 44 107 44q263 0 263 -270q0 -155 -88.5 -277.5t-194.5 -122.5
q-97 0 -192 122.5t-95 247.5v765q0 76 87 150l258 215l254 -178l253 178l259 -215q89 -74 89 -150v-1035zM500 1143v-643q0 -90 100 -175t100 -160q0 -165 -115 -165q-105 0 -195 85t-90 315v1100h86q234 -264 314 -227q-20 -143 -92 -167q-43 -15 -108 37zM824 2551
q24 -10 24 -55q0 -87 -92 -304l-139 -329l-227 -23l8 -94l103 13q103 12 116 -53q12 -65 -87 -78l-198 -27q-11 -1 -20 -1q-80 0 -90 97l-21 219q-1 11 -1 21q0 89 88 99l208 24l128 261q114 233 184 233q8 0 16 -3z" />
    <glyph glyph-name="glyph409" horiz-adv-x="2600" 
d="M1000 1270l250 170q84 60 120 60q37 0 327 -106q238 106 276 106q36 0 143.5 -60.5t283.5 -119.5q-108 -172 -198 -141q-91 30 -239 128l-266 -126l-308 109l-152 -101l50 -80l-114 -58l-173 164v55zM1428 600v-200q0 -210 -68.5 -305t-163.5 -95q-146 0 -146 196
q178 84 178 284v120q0 109 -128 188q0 78 75 117l525 255l525 -255q75 -39 75 -117v-688q0 -100 -81 -100q-82 0 -175.5 55t-93.5 138t75 155t75 152v238l-400 199l-346 -174q74 -54 74 -163zM500 1143v-643q0 -90 100 -175t100 -160q0 -165 -115 -165q-105 0 -195 85
t-90 315v1100h86q234 -264 314 -227q-20 -143 -92 -167q-43 -15 -108 37zM824 2551q24 -10 24 -55q0 -87 -92 -304l-139 -329l-227 -23l8 -94l103 13q103 12 116 -53q12 -65 -87 -78l-198 -27q-11 -1 -20 -1q-80 0 -90 97l-21 219q-1 11 -1 21q0 89 88 99l208 24l128 261
q114 233 184 233q8 0 16 -3z" />
    <glyph glyph-name="glyph410" horiz-adv-x="2600" 
d="M1421 645q-11 -14 -26 -28l-184 -188q79 -132 253 -229h386q200 80 250 300v145h-679zM2100 845v31q-40 136 -260 176l326 448q254 -194 334 -157q-20 -143 -82.5 -167.5t-238.5 73.5l-78 -95q179 -82 199 -258v-396q-40 -400 -450 -500h-386q-120 0 -302 155t-212 321
l308 276q-108 210 -308 270l326 478q284 -194 364 -157q-20 -143 -92.5 -167.5t-258.5 73.5l-98 -135q131 -91 205 -183q36 -45 55 -86h649zM500 1143v-643q0 -90 100 -175t100 -160q0 -165 -115 -165q-105 0 -195 85t-90 315v1100h86q234 -264 314 -227q-20 -143 -92 -167
q-43 -15 -108 37zM824 2551q24 -10 24 -55q0 -87 -92 -304l-139 -329l-227 -23l8 -94l103 13q103 12 116 -53q12 -65 -87 -78l-198 -27q-11 -1 -20 -1q-80 0 -90 97l-21 219q-1 11 -1 21q0 89 88 99l208 24l128 261q114 233 184 233q8 0 16 -3z" />
    <glyph glyph-name="glyph411" horiz-adv-x="3550" 
d="M2227 186q-113 -134 -327 -186h-356q-120 0 -282 155t-162 321v533q0 127 156.5 309t244.5 182t130 -91t-144 -186q-187 -95 -187 -217v-547q100 -162 244 -259h356q200 80 250 300v376q-40 136 -260 176l326 448q254 -194 334 -157q-20 -143 -82.5 -167.5t-238.5 73.5
l-78 -95q179 -82 199 -258v-396q-6 -57 -19 -107q89 -112 233 -193h236q200 80 250 300v376q-40 136 -260 176l326 448q254 -194 334 -157q-20 -143 -82.5 -167.5t-238.5 73.5l-78 -95q179 -82 199 -258v-396q-40 -400 -420 -500h-306q-126 0 -297 186zM500 1143v-643
q0 -90 100 -175t100 -160q0 -165 -115 -165q-105 0 -195 85t-90 315v1100h86q234 -264 314 -227q-20 -143 -92 -167q-43 -15 -108 37zM824 2551q24 -10 24 -55q0 -87 -92 -304l-139 -329l-227 -23l8 -94l103 13q103 12 116 -53q12 -65 -87 -78l-198 -27q-11 -1 -20 -1
q-80 0 -90 97l-21 219q-1 11 -1 21q0 89 88 99l208 24l128 261q114 233 184 233q8 0 16 -3z" />
    <glyph glyph-name="glyph412" horiz-adv-x="1650" 
d="M1350 490q0 -270 -90 -380t-195 -110q-115 0 -115 165q0 75 100 160t100 175v376q0 136 -200 176l286 448q194 -234 364 -87q0 -123 -82.5 -212.5t-258.5 18.5l-58 -85q149 -72 149 -188v-456zM500 1143v-643q0 -90 100 -175t100 -160q0 -165 -115 -165q-105 0 -195 85
t-90 315v1100h86q234 -264 314 -227q-20 -143 -92 -167q-43 -15 -108 37zM824 2551q24 -10 24 -55q0 -87 -92 -304l-139 -329l-227 -23l8 -94l103 13q103 12 116 -53q12 -65 -87 -78l-198 -27q-11 -1 -20 -1q-80 0 -90 97l-21 219q-1 11 -1 21q0 89 88 99l208 24l128 261
q114 233 184 233q8 0 16 -3z" />
    <glyph glyph-name="glyph413" horiz-adv-x="3500" 
d="M2100 948l-400 317l-400 -317v-468q0 -40 103.5 -127t63.5 -220t-135 -133t-163.5 75t-68.5 215v618q0 124 75 186l525 406l525 -406q68 -56 121.5 -134t53.5 -136q0 -95 -72 -170l-165 -173q89 -164 261 -281h366q160 80 210 300v376q-40 136 -260 176l326 448
q254 -194 334 -157q-20 -143 -82.5 -167.5t-238.5 73.5l-78 -95q179 -82 199 -258v-396q-40 -400 -410 -500h-366q-180 0 -336 181t-186 347l286 284q1 67 -88 136zM500 1143v-643q0 -90 100 -175t100 -160q0 -165 -115 -165q-105 0 -195 85t-90 315v1100h86
q234 -264 314 -227q-20 -143 -92 -167q-43 -15 -108 37zM824 2551q24 -10 24 -55q0 -87 -92 -304l-139 -329l-227 -23l8 -94l103 13q103 12 116 -53q12 -65 -87 -78l-198 -27q-11 -1 -20 -1q-80 0 -90 97l-21 219q-1 11 -1 21q0 89 88 99l208 24l128 261q114 233 184 233
q8 0 16 -3z" />
    <glyph glyph-name="glyph414" horiz-adv-x="1650" 
d="M1150 876q0 136 -200 176l286 448q97 -117 168 -128.5t19 428.5q177 -125 177 -365q0 -170 -82.5 -247t-258.5 31l-58 -85q149 -72 149 -188v-456q0 -270 -90 -380t-195 -110q-115 0 -115 165q0 75 100 160t100 175v376zM500 1143v-643q0 -90 100 -175t100 -160
q0 -165 -115 -165q-105 0 -195 85t-90 315v1100h86q234 -264 314 -227q-20 -143 -92 -167q-43 -15 -108 37zM824 2551q24 -10 24 -55q0 -87 -92 -304l-139 -329l-227 -23l8 -94l103 13q103 12 116 -53q12 -65 -87 -78l-198 -27q-11 -1 -20 -1q-80 0 -90 97l-21 219
q-1 11 -1 21q0 89 88 99l208 24l128 261q114 233 184 233q8 0 16 -3z" />
    <glyph glyph-name="glyph415" horiz-adv-x="2600" 
d="M1000 1270l250 170q84 60 120 60q37 0 327 -106q238 106 276 106q36 0 143.5 -60.5t283.5 -119.5q-108 -172 -198 -141q-91 30 -239 128l-266 -126l-308 109l-152 -101l50 -80l-114 -58l-173 164v55zM2100 666v72l-400 199l-400 -199v-258q0 -40 103.5 -127t63.5 -220
t-135 -133t-163.5 75t-68.5 215v498q0 78 75 117l525 255l525 -255q75 -39 75 -117v-122h200v-200h-200v-366q0 -100 -81 -100q-82 0 -175.5 55t-93.5 138t75 155q59 57 72 118h-197v200h200zM500 1143v-643q0 -90 100 -175t100 -160q0 -165 -115 -165q-105 0 -195 85
t-90 315v1100h86q234 -264 314 -227q-20 -143 -92 -167q-43 -15 -108 37zM824 2551q24 -10 24 -55q0 -87 -92 -304l-139 -329l-227 -23l8 -94l103 13q103 12 116 -53q12 -65 -87 -78l-198 -27q-11 -1 -20 -1q-80 0 -90 97l-21 219q-1 11 -1 21q0 89 88 99l208 24l128 261
q114 233 184 233q8 0 16 -3z" />
    <glyph glyph-name="glyph416" horiz-adv-x="2600" 
d="M2300 596v-96q-40 -400 -450 -500h-386q-120 0 -302 155t-212 321l308 276q-108 210 -308 270l326 478q284 -194 364 -157q-20 -143 -92.5 -167.5t-258.5 73.5l-98 -135q131 -91 205 -183t74 -167t-75 -147l-184 -188q79 -132 253 -229h386q200 80 250 300v96h-200v200
h200v80q-40 136 -260 176l326 448q254 -194 334 -157q-20 -143 -82.5 -167.5t-238.5 73.5l-78 -95q179 -82 199 -258v-100h200v-200h-200zM500 1143v-643q0 -90 100 -175t100 -160q0 -165 -115 -165q-105 0 -195 85t-90 315v1100h86q234 -264 314 -227q-20 -143 -92 -167
q-43 -15 -108 37zM824 2551q24 -10 24 -55q0 -87 -92 -304l-139 -329l-227 -23l8 -94l103 13q103 12 116 -53q12 -65 -87 -78l-198 -27q-11 -1 -20 -1q-80 0 -90 97l-21 219q-1 11 -1 21q0 89 88 99l208 24l128 261q114 233 184 233q8 0 16 -3z" />
    <glyph glyph-name="glyph417" horiz-adv-x="3500" 
d="M1908 1001q-97 58 -286 92l308 407q244 -176 324 -143q-20 -129 -82.5 -161.5t-228.5 46.5l-28 -57q159 -64 208 -140q32 -49 41 -131l16 -8q189 -151 92 -299l-98 -149q86 -161 280 -258h306q190 80 240 300v376q-40 136 -260 176l326 448q254 -194 334 -157
q-20 -143 -82.5 -167.5t-238.5 73.5l-78 -95q179 -82 199 -258v-396q-40 -400 -440 -500h-306q-120 0 -322 155t-202 321l150 252q-360 159 -570 79.5t-210 -207.5q0 -230 113.5 -287t103.5 -185t-105 -128t-203.5 75t-108.5 215v310q0 206 226.5 328.5t581.5 72.5z
M500 1143v-643q0 -90 100 -175t100 -160q0 -165 -115 -165q-105 0 -195 85t-90 315v1100h86q234 -264 314 -227q-20 -143 -92 -167q-43 -15 -108 37zM824 2551q24 -10 24 -55q0 -87 -92 -304l-139 -329l-227 -23l8 -94l103 13q103 12 116 -53q12 -65 -87 -78l-198 -27
q-11 -1 -20 -1q-80 0 -90 97l-21 219q-1 11 -1 21q0 89 88 99l208 24l128 261q114 233 184 233q8 0 16 -3z" />
    <glyph glyph-name="glyph418" horiz-adv-x="3550" 
d="M2300 500q-40 -400 -450 -500h-386q-120 0 -302 155t-212 321l308 276q-108 210 -308 270l326 478q284 -194 364 -157q-20 -143 -92.5 -167.5t-258.5 73.5l-98 -135q131 -91 205 -183t74 -167t-75 -147l-184 -188q79 -132 253 -229h386q200 80 250 300v376
q0 112 -102 147q-34 12 -34 43q0 30 37 56q547 378 604 378q59 0 645 -360v-1040q0 -100 -81 -100q-82 0 -175.5 55t-93.5 138t75 155t75 152v522l-451 255l-324 -232q25 -45 25 -99v-446zM500 1143v-643q0 -90 100 -175t100 -160q0 -165 -115 -165q-105 0 -195 85t-90 315
v1100h86q234 -264 314 -227q-20 -143 -92 -167q-43 -15 -108 37zM824 2551q24 -10 24 -55q0 -87 -92 -304l-139 -329l-227 -23l8 -94l103 13q103 12 116 -53q12 -65 -87 -78l-198 -27q-11 -1 -20 -1q-80 0 -90 97l-21 219q-1 11 -1 21q0 89 88 99l208 24l128 261
q114 233 184 233q8 0 16 -3z" />
    <glyph glyph-name="glyph419" horiz-adv-x="3550" 
d="M3050 -728v1604q0 136 -200 176l286 448q234 -194 314 -157q-20 -143 -82.5 -167.5t-218.5 73.5l-58 -85q159 -82 159 -218v-1674q0 -222 -116 -222q-117 0 -205 56l-87 56l-176 111l-115 -167q-38 -56 -127 -56q-90 0 -163 32l-72 31q-139 63 -139 152.5t55 150.5l56 61
q39 40 39 82q0 41 -49 41q-99 0 -96.5 100t99.5 100q246 0 246 -241q0 -86 -76 -166l-77 -80l153 -65l240 265zM1000 517l258 235q-95 185 -258 254q0 83 87 199q219 295 469 295h215q216 0 373 -106q156 -106 156 -275q0 -249 -168 -249t-172 100t70 100t73 49
q-2 48 -101 115q-98 66 -231 66h-215q-152 0 -312 -229q78 -48 152 -140t74 -167t-75 -147l-156 -164q51 -156 191 -218l222 150q166 115 312 115q145 0 240.5 -90t95.5 -210q0 -197 -126.5 -197t-140.5 91q67 56 67 106q0 100 -136 100q-117 0 -213 -75l-287 -225
q-120 0 -302 155q-162 194 -162 362zM500 1143v-643q0 -90 100 -175t100 -160q0 -165 -115 -165q-105 0 -195 85t-90 315v1100h86q234 -264 314 -227q-20 -143 -92 -167q-43 -15 -108 37zM824 2551q24 -10 24 -55q0 -87 -92 -304l-139 -329l-227 -23l8 -94l103 13
q103 12 116 -53q12 -65 -87 -78l-198 -27q-11 -1 -20 -1q-80 0 -90 97l-21 219q-1 11 -1 21q0 89 88 99l208 24l128 261q114 233 184 233q8 0 16 -3z" />
    <glyph glyph-name="glyph420" horiz-adv-x="2600" 
d="M1350 645v-155q0 -270 -90 -380t-195 -110q-115 0 -115 165q0 75 100 160t100 175v376q0 136 -200 176l286 448q284 -194 364 -157q-20 -143 -92.5 -167.5t-258.5 73.5l-58 -85q159 -82 159 -218v-101h750v31q0 136 -200 176l286 448q234 -194 314 -157
q-20 -143 -82.5 -167.5t-218.5 73.5l-58 -85q159 -82 159 -218v-456q0 -270 -90 -380t-195 -110q-115 0 -115 165q0 75 100 160t100 175v145h-750zM500 1143v-643q0 -90 100 -175t100 -160q0 -165 -115 -165q-105 0 -195 85t-90 315v1100h86q234 -264 314 -227
q-20 -143 -92 -167q-43 -15 -108 37zM824 2551q24 -10 24 -55q0 -87 -92 -304l-139 -329l-227 -23l8 -94l103 13q103 12 116 -53q12 -65 -87 -78l-198 -27q-11 -1 -20 -1q-80 0 -90 97l-21 219q-1 11 -1 21q0 89 88 99l208 24l128 261q114 233 184 233q8 0 16 -3z" />
    <glyph glyph-name="glyph421" horiz-adv-x="3550" 
d="M1300 370q20 -140 87 -170q36 0 59.5 72t23.5 128q0 80 -63 80q-107 0 -107 -110zM2300 1000v-900q0 -100 -81 -100q-82 0 -175.5 55t-93.5 138t75 155t75 152v603l-161 132l-240 -165l-240 165l-159 -132v-477q31 44 107 44q263 0 263 -270q0 -155 -88.5 -277.5
t-194.5 -122.5q-97 0 -192 122.5t-95 247.5v765q0 76 87 150l258 215l254 -178l253 178l259 -215q27 -22 45 -44q316 259 369 259q59 0 625 -360v-1040q0 -100 -81 -100q-82 0 -175.5 55t-93.5 138t75 155t75 152v532l-431 245zM500 1143v-643q0 -90 100 -175t100 -160
q0 -165 -115 -165q-105 0 -195 85t-90 315v1100h86q234 -264 314 -227q-20 -143 -92 -167q-43 -15 -108 37zM824 2551q24 -10 24 -55q0 -87 -92 -304l-139 -329l-227 -23l8 -94l103 13q103 12 116 -53q12 -65 -87 -78l-198 -27q-11 -1 -20 -1q-80 0 -90 97l-21 219
q-1 11 -1 21q0 89 88 99l208 24l128 261q114 233 184 233q8 0 16 -3z" />
    <glyph glyph-name="glyph422" horiz-adv-x="3500" 
d="M1000 1230q599 270 659 270t486 -186q431 186 493 186q60 0 216 -80.5t446 -139.5q-24 -180 -147.5 -170t-520.5 187l-487 -206l-484 209l-352 -151l53 -60l-168 -78l-194 164v55zM3200 100q0 -100 -81 -100q-82 0 -175.5 55t-93.5 138t75 155t75 152v228l-380 199
l-370 -199v-628q0 -100 -81 -100q-82 0 -175.5 55t-93.5 138t75 155t75 152v228l-380 199l-370 -199v-248q0 -40 103.5 -127t63.5 -220t-135 -133t-163.5 75t-68.5 215v488q0 78 71 117l499 235l480 -224l470 224l499 -235q81 -39 81 -117v-678zM500 1143v-643
q0 -90 100 -175t100 -160q0 -165 -115 -165q-105 0 -195 85t-90 315v1100h86q234 -264 314 -227q-20 -143 -92 -167q-43 -15 -108 37zM40 2554q70 0 184 -233l128 -261l208 -24q88 -10 88 -99q0 -10 -1 -21l-21 -219q-10 -97 -90 -97q-9 0 -20 1l-198 27q-99 13 -87 78
q13 65 116 53l103 -13l8 94l-227 23l-139 329q-92 217 -92 304q0 45 24 55q8 3 16 3z" />
    <glyph glyph-name="glyph423" horiz-adv-x="2600" 
d="M1100 1110q0 210 176.5 300t423.5 90t423.5 -85t176.5 -355q0 -357 -664 -704l94 -111l461 457q20 -166 -167 -432t-277 -270q-89 0 -266.5 198.5t-21.5 297.5q641 307 641 564q0 240 -400 240t-400 -190q0 -130 96 -130q0 120 105.5 139t140 -74.5t-31 -169
t-214.5 -75.5q-296 0 -296 310zM500 1143v-643q0 -90 100 -175t100 -160q0 -165 -115 -165q-105 0 -195 85t-90 315v1100h86q234 -264 314 -227q-20 -143 -92 -167q-43 -15 -108 37zM40 2554q70 0 184 -233l128 -261l208 -24q88 -10 88 -99q0 -10 -1 -21l-21 -219
q-10 -97 -90 -97q-9 0 -20 1l-198 27q-99 13 -87 78q13 65 116 53l103 -13l8 94l-227 23l-139 329q-92 217 -92 304q0 45 24 55q8 3 16 3z" />
    <glyph glyph-name="glyph424" horiz-adv-x="2600" 
d="M1000 1270l250 170q84 60 120 60q37 0 327 -106q238 106 276 106q36 0 143.5 -60.5t283.5 -119.5q-108 -172 -198 -141q-91 30 -239 128l-266 -126l-308 109l-152 -101l50 -80l-114 -58l-173 164v55zM1100 788q0 78 75 117l525 255l525 -255q75 -39 75 -117v-688
q0 -100 -81 -100q-82 0 -175.5 55t-93.5 138t75 155t75 152v238l-400 199l-400 -199v-258q0 -40 103.5 -127t63.5 -220t-135 -133t-163.5 75t-68.5 215v498zM500 1143v-643q0 -90 100 -175t100 -160q0 -165 -115 -165q-105 0 -195 85t-90 315v1100h86q234 -264 314 -227
q-20 -143 -92 -167q-43 -15 -108 37zM40 2554q70 0 184 -233l128 -261l208 -24q88 -10 88 -99q0 -10 -1 -21l-21 -219q-10 -97 -90 -97q-9 0 -20 1l-198 27q-99 13 -87 78q13 65 116 53l103 -13l8 94l-227 23l-139 329q-92 217 -92 304q0 45 24 55q8 3 16 3z" />
    <glyph glyph-name="glyph425" horiz-adv-x="3550" 
d="M2227 186q-113 -134 -327 -186h-386q-120 0 -302 155t-212 321l333 406l9 68q8 67 -92 220q-34 51 -64 34q-30 -18 18.5 -59t28 -116t-126.5 -68t-106 150t106.5 266t154.5 123t152 -191q127 -240 127 -332v-93q0 -75 -279 -455q79 -132 253 -229h386q200 80 250 300v376
q-40 136 -260 176l326 448q254 -194 334 -157q-20 -143 -82.5 -167.5t-238.5 73.5l-78 -95q179 -82 199 -258v-396q-6 -57 -19 -107q89 -112 233 -193h236q200 80 250 300v376q-40 136 -260 176l326 448q254 -194 334 -157q-20 -143 -82.5 -167.5t-238.5 73.5l-78 -95
q179 -82 199 -258v-396q-40 -400 -420 -500h-306q-126 0 -297 186zM500 1143v-643q0 -90 100 -175t100 -160q0 -165 -115 -165q-105 0 -195 85t-90 315v1100h86q234 -264 314 -227q-20 -143 -92 -167q-43 -15 -108 37zM40 2554q70 0 184 -233l128 -261l208 -24
q88 -10 88 -99q0 -10 -1 -21l-21 -219q-10 -97 -90 -97q-9 0 -20 1l-198 27q-99 13 -87 78q13 65 116 53l103 -13l8 94l-227 23l-139 329q-92 217 -92 304q0 45 24 55q8 3 16 3z" />
    <glyph glyph-name="glyph426" horiz-adv-x="2600" 
d="M1431 1836q0 -48 39.5 -69t150.5 -21q138 0 224 113t125.5 205t59.5 180t75 88t55 -107t-44.5 -265.5t-170 -281t-324.5 -122.5q-140 0 -260 65t-120 185q8 103 101 92.5t89 -62.5zM1244 1071q78 -48 152 -140t74 -167t-75 -147l-156 -164q51 -156 151 -218l333 264
l240 -259q41 0 92.5 67t104.5 130t96.5 63t43.5 -86t-106.5 -250t-228.5 -164q-66 0 -256 226l-285 -226q-120 0 -272 174.5t-152 342.5l258 235q-95 185 -258 254q0 83 87 199q219 295 469 295h215q216 0 373 -106q156 -106 156 -275q0 -249 -168 -249t-172 100t70 100
t73 49q-2 48 -101 115q-98 66 -231 66h-215q-152 0 -312 -229zM500 1143v-643q0 -90 100 -175t100 -160q0 -165 -115 -165q-105 0 -195 85t-90 315v1100h86q234 -264 314 -227q-20 -143 -92 -167q-43 -15 -108 37zM40 2554q70 0 184 -233l128 -261l208 -24q88 -10 88 -99
q0 -10 -1 -21l-21 -219q-10 -97 -90 -97q-9 0 -20 1l-198 27q-99 13 -87 78q13 65 116 53l103 -13l8 94l-227 23l-139 329q-92 217 -92 304q0 45 24 55q8 3 16 3z" />
    <glyph glyph-name="glyph427" horiz-adv-x="2600" 
d="M2178.5 154q-121.5 -154 -263.5 -154h-441q-170 0 -322 199.5t-152 317.5l258 255l-183 228q-75 85 -75 126q0 39 93 123q277 251 311 251t274 -216q211 216 246 216q34 0 295 -244q81 -67 81 -123t-44 -84t-134 28t-207 187l-237 -233l-257 239l-201 -166
q102 -81 176 -163t74 -157t-58 -139l-163 -172q83 -194 251 -273h373q131 40 182.5 127t44.5 163q0 100 -40 100q-30 0 -70 -60q-90 30 -90 100q0 160 160 160q240 0 240 -300q0 -182 -121.5 -336zM500 1143v-643q0 -90 100 -175t100 -160q0 -165 -115 -165q-105 0 -195 85
t-90 315v1100h86q234 -264 314 -227q-20 -143 -92 -167q-43 -15 -108 37zM40 2554q70 0 184 -233l128 -261l208 -24q88 -10 88 -99q0 -10 -1 -21l-21 -219q-10 -97 -90 -97q-9 0 -20 1l-198 27q-99 13 -87 78q13 65 116 53l103 -13l8 94l-227 23l-139 329q-92 217 -92 304
q0 45 24 55q8 3 16 3z" />
    <glyph glyph-name="glyph428" horiz-adv-x="2600" 
d="M1913 0q-171 0 -272 156q-60 94 -175 94h-116v-125q0 -125 -100 -125t-175 104.5t-75 225.5q0 120 150 120v450q0 119 -75 190q-75 70 -75 103q0 32 93 101q277 206 311 206t274 -177q211 177 246 177q34 0 295 -200q81 -55 81 -147q0 -93 -183 -6q-85 36 -202 143
l-237 -191l-257 180l-175 -131q104 -101 104 -248v-450h113q200 0 311 -187q37 -63 137 -63q189 0 189 200q0 100 -60 100t-100 -60q-90 30 -90 100q0 160 190 160q260 0 260 -300q0 -400 -387 -400zM500 1143v-643q0 -90 100 -175t100 -160q0 -165 -115 -165
q-105 0 -195 85t-90 315v1100h86q234 -264 314 -227q-20 -143 -92 -167q-43 -15 -108 37zM40 2554q70 0 184 -233l128 -261l208 -24q88 -10 88 -99q0 -10 -1 -21l-21 -219q-10 -97 -90 -97q-9 0 -20 1l-198 27q-99 13 -87 78q13 65 116 53l103 -13l8 94l-227 23l-139 329
q-92 217 -92 304q0 45 24 55q8 3 16 3z" />
    <glyph glyph-name="glyph429" horiz-adv-x="2600" 
d="M2160 1383q5 61 2 112q-7 100 -29 187.5t27 112.5q10 5 20 5q39 0 78 -75q48 -96 81 -257q11 -59 11 -118q0 -104 -36 -210q-6 -19 -14 -37q-5 -233 -168 -233q-168 0 -172 100t70 100t73 49q-2 48 -101 115q-98 66 -231 66h-215q-152 0 -312 -229q78 -48 152 -140
t74 -167t-75 -147l-156 -164q51 -156 151 -218l333 264l240 -259q41 0 92.5 67t104.5 130t96.5 63t43.5 -86t-106.5 -250t-228.5 -164q-66 0 -256 226l-285 -226q-120 0 -272 174.5t-152 342.5l258 235q-95 185 -258 254q0 83 87 199q219 295 469 295h215q216 0 373 -106
q8 -5 16 -11zM500 1143v-643q0 -90 100 -175t100 -160q0 -165 -115 -165q-105 0 -195 85t-90 315v1100h86q234 -264 314 -227q-20 -143 -92 -167q-43 -15 -108 37zM40 2554q70 0 184 -233l128 -261l208 -24q88 -10 88 -99q0 -10 -1 -21l-21 -219q-10 -97 -90 -97q-9 0 -20 1
l-198 27q-99 13 -87 78q13 65 116 53l103 -13l8 94l-227 23l-139 329q-92 217 -92 304q0 45 24 55q8 3 16 3z" />
    <glyph glyph-name="glyph430" horiz-adv-x="4400" 
d="M2424 0q-180 0 -336 181t-186 347l286 284q1 67 -88 136l-400 317l-400 -317v-468q0 -40 103.5 -127t63.5 -220t-135 -133t-163.5 75t-68.5 215v618q0 124 75 186l525 406l525 -406q68 -56 121.5 -134t53.5 -136q0 -95 -72 -170l-165 -173q89 -164 261 -281h326
q200 80 250 300v376q-40 136 -260 176l326 448q254 -194 334 -157q-20 -143 -82.5 -167.5t-238.5 73.5l-78 -95q179 -82 199 -258v-396q-6 -57 -19 -107q89 -112 233 -193h236q200 80 250 300v376q-40 136 -260 176l326 448q254 -194 334 -157q-20 -143 -82.5 -167.5
t-238.5 73.5l-78 -95q179 -82 199 -258v-396q-40 -400 -420 -500h-306q-126 0 -297 186q-113 -134 -327 -186h-326zM500 1143v-643q0 -90 100 -175t100 -160q0 -165 -115 -165q-105 0 -195 85t-90 315v1100h86q234 -264 314 -227q-20 -143 -92 -167q-43 -15 -108 37z
M40 2554q70 0 184 -233l128 -261l208 -24q88 -10 88 -99q0 -10 -1 -21l-21 -219q-10 -97 -90 -97q-9 0 -20 1l-198 27q-99 13 -87 78q13 65 116 53l103 -13l8 94l-227 23l-139 329q-92 217 -92 304q0 45 24 55q8 3 16 3z" />
    <glyph glyph-name="glyph431" horiz-adv-x="3550" 
d="M3050 -372q0 72 -98 72q-86 0 -86 100t86 100q298 0 298 -272q0 -174 -206.5 -301t-750.5 -127q-388 0 -650 110t-486 366q-57 58 -57 117q0 57 96.5 57t139.5 -57q220 -214 426.5 -303.5t530.5 -89.5q448 0 602.5 75.5t154.5 152.5zM1300 370q20 -140 87 -170
q36 0 59.5 72t23.5 128q0 80 -63 80q-107 0 -107 -110zM2300 1000v-900q0 -100 -81 -100q-82 0 -175.5 55t-93.5 138t75 155t75 152v603l-161 132l-240 -165l-240 165l-159 -132v-477q31 44 107 44q263 0 263 -270q0 -155 -88.5 -277.5t-194.5 -122.5q-97 0 -192 122.5
t-95 247.5v765q0 76 87 150l258 215l254 -178l253 178l259 -215q27 -22 45 -44q316 259 369 259q59 0 625 -360v-1040q0 -100 -81 -100q-82 0 -175.5 55t-93.5 138t75 155t75 152v532l-431 245zM500 1143v-643q0 -90 100 -175t100 -160q0 -165 -115 -165q-105 0 -195 85
t-90 315v1100h86q234 -264 314 -227q-20 -143 -92 -167q-43 -15 -108 37zM40 2554q70 0 184 -233l128 -261l208 -24q88 -10 88 -99q0 -10 -1 -21l-21 -219q-10 -97 -90 -97q-9 0 -20 1l-198 27q-99 13 -87 78q13 65 116 53l103 -13l8 94l-227 23l-139 329q-92 217 -92 304
q0 45 24 55q8 3 16 3z" />
    <glyph glyph-name="glyph432" horiz-adv-x="2600" 
d="M1241 1104l155 -163q74 -82 74 -157t-58 -139l-163 -172q51 -146 171 -208l303 234l240 -259q41 0 92.5 87t104.5 130t96.5 43t43.5 -86q0 -106 -106.5 -260t-228.5 -154q-66 0 -276 206l-265 -206q-120 0 -272 199.5t-152 317.5l258 255l-183 228q-75 85 -75 126
q0 39 93 123q23 21 44 40l164 148q69 63 101 63t156 -100q123 -100 352 -100q190 0 190 186q0 104 -50 184t60 80q190 0 190 -264q0 -386 -390 -386q-282 0 -500 150zM500 1143v-643q0 -90 100 -175t100 -160q0 -165 -115 -165q-105 0 -195 85t-90 315v1100h86
q234 -264 314 -227q-20 -143 -92 -167q-43 -15 -108 37zM40 2554q70 0 184 -233l128 -261l208 -24q88 -10 88 -99q0 -10 -1 -21l-21 -219q-10 -97 -90 -97q-9 0 -20 1l-198 27q-99 13 -87 78q13 65 116 53l103 -13l8 94l-227 23l-139 329q-92 217 -92 304q0 45 24 55
q8 3 16 3z" />
    <glyph glyph-name="glyph433" horiz-adv-x="2650" 
d="M2350 500q-40 -400 -420 -500h-416q-120 0 -302 155t-212 321l333 406l9 68q8 67 -92 220q-34 51 -64 34q-30 -18 18.5 -59t28 -116t-126.5 -68t-106 150t106.5 266t154.5 123t152 -191q127 -240 127 -332v-93q0 -75 -279 -455q79 -132 253 -229h386q200 80 250 300v376
q0 136 -200 176l286 448q97 -117 188 -138.5t49 327.5q127 -84 127 -254t-82.5 -247t-258.5 31l-58 -85q149 -72 149 -188v-446zM500 1143v-643q0 -90 100 -175t100 -160q0 -165 -115 -165q-105 0 -195 85t-90 315v1100h86q234 -264 314 -227q-20 -143 -92 -167
q-43 -15 -108 37zM40 2554q70 0 184 -233l128 -261l208 -24q88 -10 88 -99q0 -10 -1 -21l-21 -219q-10 -97 -90 -97q-9 0 -20 1l-198 27q-99 13 -87 78q13 65 116 53l103 -13l8 94l-227 23l-139 329q-92 217 -92 304q0 45 24 55q8 3 16 3z" />
    <glyph glyph-name="glyph434" horiz-adv-x="2600" 
d="M1300 850q61 22 65 57t-24 59q17 81 86 80q109 -1 109 -155q0 -91 -95.5 -166t-140.5 -75q-81 0 -140.5 75t-59.5 148v262q0 76 87 150l258 215l254 -178l253 178l259 -215q89 -74 89 -150v-32q0 -296 -263 -461l-511 -325l73 -82l357 228l144 91q200 46 200 -72v-382
q0 -100 -100 -100t-100 100v214l-402 -256q-90 -58 -119 -58q-30 0 -130 114l-101 113q-50 62 -50 114q0 69 85 122l539 339q178 113 178 301l-161 132l-240 -165l-240 165l-159 -132v-253zM500 1143v-643q0 -90 100 -175t100 -160q0 -165 -115 -165q-105 0 -195 85t-90 315
v1100h86q234 -264 314 -227q-20 -143 -92 -167q-43 -15 -108 37zM40 2554q70 0 184 -233l128 -261l208 -24q88 -10 88 -99q0 -10 -1 -21l-21 -219q-10 -97 -90 -97q-9 0 -20 1l-198 27q-99 13 -87 78q13 65 116 53l103 -13l8 94l-227 23l-139 329q-92 217 -92 304
q0 45 24 55q8 3 16 3z" />
    <glyph glyph-name="glyph435" horiz-adv-x="3550" 
d="M1300 370q20 -140 87 -170q36 0 59.5 72t23.5 128q0 80 -63 80q-107 0 -107 -110zM2100 1103l-161 132l-240 -165l-240 165l-159 -132v-477q31 44 107 44q263 0 263 -270q0 -155 -88.5 -277.5t-194.5 -122.5q-97 0 -192 122.5t-95 247.5v765q0 76 87 150l258 215
l254 -178l253 178l259 -215q89 -74 89 -150v-685h113q200 0 311 -187q37 -63 137 -63q189 0 189 200v476q-40 136 -260 176l326 448q254 -194 334 -157q-20 -143 -82.5 -167.5t-238.5 73.5l-78 -95q179 -82 199 -258v-496q0 -400 -387 -400q-171 0 -272 156q-60 94 -175 94
h-116v-125q0 -125 -100 -125t-175 104.5t-75 225.5q0 120 150 120v653zM500 1143v-643q0 -90 100 -175t100 -160q0 -165 -115 -165q-105 0 -195 85t-90 315v1100h86q234 -264 314 -227q-20 -143 -92 -167q-43 -15 -108 37zM40 2554q70 0 184 -233l128 -261l208 -24
q88 -10 88 -99q0 -10 -1 -21l-21 -219q-10 -97 -90 -97q-9 0 -20 1l-198 27q-99 13 -87 78q13 65 116 53l103 -13l8 94l-227 23l-139 329q-92 217 -92 304q0 45 24 55q8 3 16 3z" />
    <glyph glyph-name="glyph436" horiz-adv-x="4700" 
d="M4400 100q0 -100 -81 -100q-82 0 -175.5 55t-93.5 138t75 155t75 152v422l-492 332l-451 -295l144 -185q93 -106 29.5 -310.5t-193.5 -334t-252 -129.5q-116 0 -336 226l-255 -226q-120 0 -292 179.5t-172 337.5l265 392l-464 335l-431 -285v-479q0 -40 103.5 -127
t63.5 -220t-135 -133t-163.5 75t-68.5 215v700q0 92 163 197l488 313q649 -448 681 -523.5t-32 -181.5l-231 -342q91 -156 191 -218l333 274q224 -309 290 -309q41 0 144.5 122t118.5 334l-222 269q38 160 196 262l488 313l487 -306q162 -102 194 -177q10 -25 11 -53v-864z
M500 1143v-643q0 -90 100 -175t100 -160q0 -165 -115 -165q-105 0 -195 85t-90 315v1100h86q234 -264 314 -227q-20 -143 -92 -167q-43 -15 -108 37zM40 2554q70 0 184 -233l128 -261l208 -24q88 -10 88 -99q0 -10 -1 -21l-21 -219q-10 -97 -90 -97q-9 0 -20 1l-198 27
q-99 13 -87 78q13 65 116 53l103 -13l8 94l-227 23l-139 329q-92 217 -92 304q0 45 24 55q8 3 16 3z" />
    <glyph glyph-name="glyph437" horiz-adv-x="2600" 
d="M1000 1270l250 170q84 60 120 60q37 0 327 -106q238 106 276 106q36 0 143.5 -60.5t283.5 -119.5q-108 -172 -198 -141q-91 30 -239 128l-266 -126l-308 109l-152 -101l50 -80l-114 -58l-173 164v55zM1300 330q20 -100 87 -130q36 0 59.5 52t23.5 108q0 80 -63 80
q-107 0 -107 -110zM1300 586q31 44 107 44q263 0 263 -270q0 -115 -88.5 -237.5t-194.5 -122.5q-97 0 -192 122.5t-95 207.5v458q0 78 75 117l525 255l525 -255q75 -39 75 -117v-688q0 -100 -81 -100q-82 0 -175.5 55t-93.5 138t75 155t75 152v238l-400 199l-400 -199v-152z
M500 1143v-643q0 -90 100 -175t100 -160q0 -165 -115 -165q-105 0 -195 85t-90 315v1100h86q234 -264 314 -227q-20 -143 -92 -167q-43 -15 -108 37zM40 2554q70 0 184 -233l128 -261l208 -24q88 -10 88 -99q0 -10 -1 -21l-21 -219q-10 -97 -90 -97q-9 0 -20 1l-198 27
q-99 13 -87 78q13 65 116 53l103 -13l8 94l-227 23l-139 329q-92 217 -92 304q0 45 24 55q8 3 16 3z" />
    <glyph glyph-name="glyph438" horiz-adv-x="2600" 
d="M2178.5 154q-121.5 -154 -263.5 -154h-441q-170 0 -322 199.5t-152 317.5l258 255l-183 228q-75 85 -75 126q0 39 93 123l208 188q69 63 101 63t156 -100q123 -100 352 -100q190 0 190 186q0 104 -50 184t60 80q190 0 190 -264q0 -386 -390 -386q-282 0 -500 150
l-160 -146l146 -163q74 -82 74 -157t-58 -139l-163 -172q83 -194 251 -273h373q131 40 182.5 127t44.5 163q0 100 -40 100q-30 0 -70 -60q-90 30 -90 100q0 160 160 160q240 0 240 -300q0 -182 -121.5 -336zM500 1143v-643q0 -90 100 -175t100 -160q0 -165 -115 -165
q-105 0 -195 85t-90 315v1100h86q234 -264 314 -227q-20 -143 -92 -167q-43 -15 -108 37zM40 2554q70 0 184 -233l128 -261l208 -24q88 -10 88 -99q0 -10 -1 -21l-21 -219q-10 -97 -90 -97q-9 0 -20 1l-198 27q-99 13 -87 78q13 65 116 53l103 -13l8 94l-227 23l-139 329
q-92 217 -92 304q0 45 24 55q8 3 16 3z" />
    <glyph glyph-name="glyph439" horiz-adv-x="2600" 
d="M1000 517l258 235q-95 185 -258 254q0 83 87 199q219 295 469 295h215q216 0 373 -106q156 -106 156 -275q0 -249 -168 -249t-172 100t70 100t73 49q-2 48 -101 115q-98 66 -231 66h-215q-152 0 -312 -229q78 -48 152 -140t74 -167t-75 -147l-156 -164q51 -156 191 -218
l222 150q166 115 312 115q145 0 240.5 -90t95.5 -210q0 -197 -126.5 -197t-140.5 91q67 56 67 106q0 100 -136 100q-117 0 -213 -75l-287 -225q-120 0 -302 155q-162 194 -162 362zM500 1143v-643q0 -90 100 -175t100 -160q0 -165 -115 -165q-105 0 -195 85t-90 315v1100h86
q234 -264 314 -227q-20 -143 -92 -167q-43 -15 -108 37zM40 2554q70 0 184 -233l128 -261l208 -24q88 -10 88 -99q0 -10 -1 -21l-21 -219q-10 -97 -90 -97q-9 0 -20 1l-198 27q-99 13 -87 78q13 65 116 53l103 -13l8 94l-227 23l-139 329q-92 217 -92 304q0 45 24 55
q8 3 16 3z" />
    <glyph glyph-name="glyph440" horiz-adv-x="2600" 
d="M1220 1104q102 -81 176 -163t74 -157t-58 -139l-163 -172q51 -146 171 -208l303 234l240 -259q41 0 92.5 87t104.5 130t96.5 43t43.5 -86q0 -106 -106.5 -260t-228.5 -154q-66 0 -276 206l-265 -206q-120 0 -272 199.5t-152 317.5l258 255l-183 228q-75 85 -75 126
q0 39 93 123q277 251 311 251t274 -216q211 216 246 216q34 0 295 -244q81 -67 81 -123t-44 -84t-134 28t-207 187l-237 -233l-257 239zM500 1143v-643q0 -90 100 -175t100 -160q0 -165 -115 -165q-105 0 -195 85t-90 315v1100h86q234 -264 314 -227q-20 -143 -92 -167
q-43 -15 -108 37zM40 2554q70 0 184 -233l128 -261l208 -24q88 -10 88 -99q0 -10 -1 -21l-21 -219q-10 -97 -90 -97q-9 0 -20 1l-198 27q-99 13 -87 78q13 65 116 53l103 -13l8 94l-227 23l-139 329q-92 217 -92 304q0 45 24 55q8 3 16 3z" />
    <glyph glyph-name="glyph441" horiz-adv-x="2600" 
d="M1466 250h-116v-125q0 -125 -100 -125t-175 104.5t-75 225.5q0 120 150 120v450q-50 186 -150 188q0 138 71 177q599 235 624 235t524 -235q81 -39 81 -117v-88q0 -260 -175 -260t-175 100t75 100t75 98q-380 199 -405 199t-450 -176q105 -46 105 -221v-450h113
q200 0 311 -187q37 -63 137 -63q70 0 129.5 62t109.5 125t100 63t50 -86t-123 -225t-264 -139q-171 0 -272 156q-60 94 -175 94zM500 1143v-643q0 -90 100 -175t100 -160q0 -165 -115 -165q-105 0 -195 85t-90 315v1100h86q234 -264 314 -227q-20 -143 -92 -167
q-43 -15 -108 37zM40 2554q70 0 184 -233l128 -261l208 -24q88 -10 88 -99q0 -10 -1 -21l-21 -219q-10 -97 -90 -97q-9 0 -20 1l-198 27q-99 13 -87 78q13 65 116 53l103 -13l8 94l-227 23l-139 329q-92 217 -92 304q0 45 24 55q8 3 16 3z" />
    <glyph glyph-name="glyph442" horiz-adv-x="2600" 
d="M1211 429q79 -132 253 -229h386q200 80 250 300v376q-40 136 -260 176l326 448q254 -194 334 -157q-20 -143 -82.5 -167.5t-238.5 73.5l-78 -95q179 -82 199 -258v-396q-40 -400 -450 -500h-386q-120 0 -302 155t-212 321l308 276q-108 210 -308 270l326 478
q284 -194 364 -157q-20 -143 -92.5 -167.5t-258.5 73.5l-98 -135q131 -91 205 -183t74 -167t-75 -147zM500 1143v-643q0 -90 100 -175t100 -160q0 -165 -115 -165q-105 0 -195 85t-90 315v1100h86q234 -264 314 -227q-20 -143 -92 -167q-43 -15 -108 37zM40 2554
q70 0 184 -233l128 -261l208 -24q88 -10 88 -99q0 -10 -1 -21l-21 -219q-10 -97 -90 -97q-9 0 -20 1l-198 27q-99 13 -87 78q13 65 116 53l103 -13l8 94l-227 23l-139 329q-92 217 -92 304q0 45 24 55q8 3 16 3z" />
    <glyph glyph-name="glyph443" horiz-adv-x="2600" 
d="M1965 0q-66 0 -276 206l-265 -206q-120 0 -272 199.5t-152 317.5l258 255l-183 228q-75 85 -75 126q0 39 93 123l208 188q69 63 101 63t156 -100q123 -100 352 -100q190 0 190 186q0 104 -50 184t60 80q190 0 190 -264q0 -386 -390 -386q-282 0 -500 150l-160 -146
l146 -163q74 -82 74 -157t-58 -139l-163 -172q51 -146 171 -208l303 234l240 -259q41 0 92.5 87t44.5 163q0 100 -60 100t-100 -60q-90 30 -90 100q0 160 190 160q260 0 260 -300q0 -182 -106.5 -336t-228.5 -154zM500 1143v-643q0 -90 100 -175t100 -160q0 -165 -115 -165
q-105 0 -195 85t-90 315v1100h86q234 -264 314 -227q-20 -143 -92 -167q-43 -15 -108 37zM40 2554q70 0 184 -233l128 -261l208 -24q88 -10 88 -99q0 -10 -1 -21l-21 -219q-10 -97 -90 -97q-9 0 -20 1l-198 27q-99 13 -87 78q13 65 116 53l103 -13l8 94l-227 23l-139 329
q-92 217 -92 304q0 45 24 55q8 3 16 3z" />
    <glyph glyph-name="glyph444" horiz-adv-x="2600" 
d="M1300 370q20 -140 87 -170q36 0 59.5 72t23.5 128q0 80 -63 80q-107 0 -107 -110zM2300 100q0 -100 -81 -100q-82 0 -175.5 55t-93.5 138t75 155t75 152v603l-161 132l-240 -165l-240 165l-159 -132v-477q31 44 107 44q263 0 263 -270q0 -155 -88.5 -277.5t-194.5 -122.5
q-97 0 -192 122.5t-95 247.5v765q0 76 87 150l258 215l254 -178l253 178l259 -215q89 -74 89 -150v-1035zM500 1143v-643q0 -90 100 -175t100 -160q0 -165 -115 -165q-105 0 -195 85t-90 315v1100h86q234 -264 314 -227q-20 -143 -92 -167q-43 -15 -108 37zM40 2554
q70 0 184 -233l128 -261l208 -24q88 -10 88 -99q0 -10 -1 -21l-21 -219q-10 -97 -90 -97q-9 0 -20 1l-198 27q-99 13 -87 78q13 65 116 53l103 -13l8 94l-227 23l-139 329q-92 217 -92 304q0 45 24 55q8 3 16 3z" />
    <glyph glyph-name="glyph445" horiz-adv-x="2600" 
d="M1000 1270l250 170q84 60 120 60q37 0 327 -106q238 106 276 106q36 0 143.5 -60.5t283.5 -119.5q-108 -172 -198 -141q-91 30 -239 128l-266 -126l-308 109l-152 -101l50 -80l-114 -58l-173 164v55zM1428 600v-200q0 -210 -68.5 -305t-163.5 -95q-146 0 -146 196
q178 84 178 284v120q0 109 -128 188q0 78 75 117l525 255l525 -255q75 -39 75 -117v-688q0 -100 -81 -100q-82 0 -175.5 55t-93.5 138t75 155t75 152v238l-400 199l-346 -174q74 -54 74 -163zM500 1143v-643q0 -90 100 -175t100 -160q0 -165 -115 -165q-105 0 -195 85
t-90 315v1100h86q234 -264 314 -227q-20 -143 -92 -167q-43 -15 -108 37zM40 2554q70 0 184 -233l128 -261l208 -24q88 -10 88 -99q0 -10 -1 -21l-21 -219q-10 -97 -90 -97q-9 0 -20 1l-198 27q-99 13 -87 78q13 65 116 53l103 -13l8 94l-227 23l-139 329q-92 217 -92 304
q0 45 24 55q8 3 16 3z" />
    <glyph glyph-name="glyph446" horiz-adv-x="2600" 
d="M1421 645q-11 -14 -26 -28l-184 -188q79 -132 253 -229h386q200 80 250 300v145h-679zM2100 845v31q-40 136 -260 176l326 448q254 -194 334 -157q-20 -143 -82.5 -167.5t-238.5 73.5l-78 -95q179 -82 199 -258v-396q-40 -400 -450 -500h-386q-120 0 -302 155t-212 321
l308 276q-108 210 -308 270l326 478q284 -194 364 -157q-20 -143 -92.5 -167.5t-258.5 73.5l-98 -135q131 -91 205 -183q36 -45 55 -86h649zM500 1143v-643q0 -90 100 -175t100 -160q0 -165 -115 -165q-105 0 -195 85t-90 315v1100h86q234 -264 314 -227q-20 -143 -92 -167
q-43 -15 -108 37zM40 2554q70 0 184 -233l128 -261l208 -24q88 -10 88 -99q0 -10 -1 -21l-21 -219q-10 -97 -90 -97q-9 0 -20 1l-198 27q-99 13 -87 78q13 65 116 53l103 -13l8 94l-227 23l-139 329q-92 217 -92 304q0 45 24 55q8 3 16 3z" />
    <glyph glyph-name="glyph447" horiz-adv-x="3550" 
d="M2227 186q-113 -134 -327 -186h-356q-120 0 -282 155t-162 321v533q0 127 156.5 309t244.5 182t130 -91t-144 -186q-187 -95 -187 -217v-547q100 -162 244 -259h356q200 80 250 300v376q-40 136 -260 176l326 448q254 -194 334 -157q-20 -143 -82.5 -167.5t-238.5 73.5
l-78 -95q179 -82 199 -258v-396q-6 -57 -19 -107q89 -112 233 -193h236q200 80 250 300v376q-40 136 -260 176l326 448q254 -194 334 -157q-20 -143 -82.5 -167.5t-238.5 73.5l-78 -95q179 -82 199 -258v-396q-40 -400 -420 -500h-306q-126 0 -297 186zM500 1143v-643
q0 -90 100 -175t100 -160q0 -165 -115 -165q-105 0 -195 85t-90 315v1100h86q234 -264 314 -227q-20 -143 -92 -167q-43 -15 -108 37zM40 2554q70 0 184 -233l128 -261l208 -24q88 -10 88 -99q0 -10 -1 -21l-21 -219q-10 -97 -90 -97q-9 0 -20 1l-198 27q-99 13 -87 78
q13 65 116 53l103 -13l8 94l-227 23l-139 329q-92 217 -92 304q0 45 24 55q8 3 16 3z" />
    <glyph glyph-name="glyph448" horiz-adv-x="1650" 
d="M1350 490q0 -270 -90 -380t-195 -110q-115 0 -115 165q0 75 100 160t100 175v376q0 136 -200 176l286 448q194 -234 364 -87q0 -123 -82.5 -212.5t-258.5 18.5l-58 -85q149 -72 149 -188v-456zM500 1143v-643q0 -90 100 -175t100 -160q0 -165 -115 -165q-105 0 -195 85
t-90 315v1100h86q234 -264 314 -227q-20 -143 -92 -167q-43 -15 -108 37zM40 2554q70 0 184 -233l128 -261l208 -24q88 -10 88 -99q0 -10 -1 -21l-21 -219q-10 -97 -90 -97q-9 0 -20 1l-198 27q-99 13 -87 78q13 65 116 53l103 -13l8 94l-227 23l-139 329q-92 217 -92 304
q0 45 24 55q8 3 16 3z" />
    <glyph glyph-name="glyph449" horiz-adv-x="3500" 
d="M2100 948l-400 317l-400 -317v-468q0 -40 103.5 -127t63.5 -220t-135 -133t-163.5 75t-68.5 215v618q0 124 75 186l525 406l525 -406q68 -56 121.5 -134t53.5 -136q0 -95 -72 -170l-165 -173q89 -164 261 -281h366q160 80 210 300v376q-40 136 -260 176l326 448
q254 -194 334 -157q-20 -143 -82.5 -167.5t-238.5 73.5l-78 -95q179 -82 199 -258v-396q-40 -400 -410 -500h-366q-180 0 -336 181t-186 347l286 284q1 67 -88 136zM500 1143v-643q0 -90 100 -175t100 -160q0 -165 -115 -165q-105 0 -195 85t-90 315v1100h86
q234 -264 314 -227q-20 -143 -92 -167q-43 -15 -108 37zM40 2554q70 0 184 -233l128 -261l208 -24q88 -10 88 -99q0 -10 -1 -21l-21 -219q-10 -97 -90 -97q-9 0 -20 1l-198 27q-99 13 -87 78q13 65 116 53l103 -13l8 94l-227 23l-139 329q-92 217 -92 304q0 45 24 55
q8 3 16 3z" />
    <glyph glyph-name="glyph450" horiz-adv-x="1650" 
d="M1150 876q0 136 -200 176l286 448q97 -117 168 -128.5t19 428.5q177 -125 177 -365q0 -170 -82.5 -247t-258.5 31l-58 -85q149 -72 149 -188v-456q0 -270 -90 -380t-195 -110q-115 0 -115 165q0 75 100 160t100 175v376zM500 1143v-643q0 -90 100 -175t100 -160
q0 -165 -115 -165q-105 0 -195 85t-90 315v1100h86q234 -264 314 -227q-20 -143 -92 -167q-43 -15 -108 37zM40 2554q70 0 184 -233l128 -261l208 -24q88 -10 88 -99q0 -10 -1 -21l-21 -219q-10 -97 -90 -97q-9 0 -20 1l-198 27q-99 13 -87 78q13 65 116 53l103 -13l8 94
l-227 23l-139 329q-92 217 -92 304q0 45 24 55q8 3 16 3z" />
    <glyph glyph-name="glyph451" horiz-adv-x="2600" 
d="M1000 1270l250 170q84 60 120 60q37 0 327 -106q238 106 276 106q36 0 143.5 -60.5t283.5 -119.5q-108 -172 -198 -141q-91 30 -239 128l-266 -126l-308 109l-152 -101l50 -80l-114 -58l-173 164v55zM2100 666v72l-400 199l-400 -199v-258q0 -40 103.5 -127t63.5 -220
t-135 -133t-163.5 75t-68.5 215v498q0 78 75 117l525 255l525 -255q75 -39 75 -117v-122h200v-200h-200v-366q0 -100 -81 -100q-82 0 -175.5 55t-93.5 138t75 155q59 57 72 118h-197v200h200zM500 1143v-643q0 -90 100 -175t100 -160q0 -165 -115 -165q-105 0 -195 85
t-90 315v1100h86q234 -264 314 -227q-20 -143 -92 -167q-43 -15 -108 37zM40 2554q70 0 184 -233l128 -261l208 -24q88 -10 88 -99q0 -10 -1 -21l-21 -219q-10 -97 -90 -97q-9 0 -20 1l-198 27q-99 13 -87 78q13 65 116 53l103 -13l8 94l-227 23l-139 329q-92 217 -92 304
q0 45 24 55q8 3 16 3z" />
    <glyph glyph-name="glyph452" horiz-adv-x="2600" 
d="M2300 596v-96q-40 -400 -450 -500h-386q-120 0 -302 155t-212 321l308 276q-108 210 -308 270l326 478q284 -194 364 -157q-20 -143 -92.5 -167.5t-258.5 73.5l-98 -135q131 -91 205 -183t74 -167t-75 -147l-184 -188q79 -132 253 -229h386q200 80 250 300v96h-200v200
h200v80q-40 136 -260 176l326 448q254 -194 334 -157q-20 -143 -82.5 -167.5t-238.5 73.5l-78 -95q179 -82 199 -258v-100h200v-200h-200zM500 1143v-643q0 -90 100 -175t100 -160q0 -165 -115 -165q-105 0 -195 85t-90 315v1100h86q234 -264 314 -227q-20 -143 -92 -167
q-43 -15 -108 37zM40 2554q70 0 184 -233l128 -261l208 -24q88 -10 88 -99q0 -10 -1 -21l-21 -219q-10 -97 -90 -97q-9 0 -20 1l-198 27q-99 13 -87 78q13 65 116 53l103 -13l8 94l-227 23l-139 329q-92 217 -92 304q0 45 24 55q8 3 16 3z" />
    <glyph glyph-name="glyph453" horiz-adv-x="3500" 
d="M1908 1001q-97 58 -286 92l308 407q244 -176 324 -143q-20 -129 -82.5 -161.5t-228.5 46.5l-28 -57q159 -64 208 -140q32 -49 41 -131l16 -8q189 -151 92 -299l-98 -149q86 -161 280 -258h306q190 80 240 300v376q-40 136 -260 176l326 448q254 -194 334 -157
q-20 -143 -82.5 -167.5t-238.5 73.5l-78 -95q179 -82 199 -258v-396q-40 -400 -440 -500h-306q-120 0 -322 155t-202 321l150 252q-360 159 -570 79.5t-210 -207.5q0 -230 113.5 -287t103.5 -185t-105 -128t-203.5 75t-108.5 215v310q0 206 226.5 328.5t581.5 72.5z
M500 1143v-643q0 -90 100 -175t100 -160q0 -165 -115 -165q-105 0 -195 85t-90 315v1100h86q234 -264 314 -227q-20 -143 -92 -167q-43 -15 -108 37zM40 2554q70 0 184 -233l128 -261l208 -24q88 -10 88 -99q0 -10 -1 -21l-21 -219q-10 -97 -90 -97q-9 0 -20 1l-198 27
q-99 13 -87 78q13 65 116 53l103 -13l8 94l-227 23l-139 329q-92 217 -92 304q0 45 24 55q8 3 16 3z" />
    <glyph glyph-name="glyph454" horiz-adv-x="3550" 
d="M2300 500q-40 -400 -450 -500h-386q-120 0 -302 155t-212 321l308 276q-108 210 -308 270l326 478q284 -194 364 -157q-20 -143 -92.5 -167.5t-258.5 73.5l-98 -135q131 -91 205 -183t74 -167t-75 -147l-184 -188q79 -132 253 -229h386q200 80 250 300v376
q0 112 -102 147q-34 12 -34 43q0 30 37 56q547 378 604 378q59 0 645 -360v-1040q0 -100 -81 -100q-82 0 -175.5 55t-93.5 138t75 155t75 152v522l-451 255l-324 -232q25 -45 25 -99v-446zM500 1143v-643q0 -90 100 -175t100 -160q0 -165 -115 -165q-105 0 -195 85t-90 315
v1100h86q234 -264 314 -227q-20 -143 -92 -167q-43 -15 -108 37zM40 2554q70 0 184 -233l128 -261l208 -24q88 -10 88 -99q0 -10 -1 -21l-21 -219q-10 -97 -90 -97q-9 0 -20 1l-198 27q-99 13 -87 78q13 65 116 53l103 -13l8 94l-227 23l-139 329q-92 217 -92 304
q0 45 24 55q8 3 16 3z" />
    <glyph glyph-name="glyph455" horiz-adv-x="3550" 
d="M3050 -728v1604q0 136 -200 176l286 448q234 -194 314 -157q-20 -143 -82.5 -167.5t-218.5 73.5l-58 -85q159 -82 159 -218v-1674q0 -222 -116 -222q-117 0 -205 56l-87 56l-176 111l-115 -167q-38 -56 -127 -56q-90 0 -163 32l-72 31q-139 63 -139 152.5t55 150.5l56 61
q39 40 39 82q0 41 -49 41q-99 0 -96.5 100t99.5 100q246 0 246 -241q0 -86 -76 -166l-77 -80l153 -65l240 265zM1000 517l258 235q-95 185 -258 254q0 83 87 199q219 295 469 295h215q216 0 373 -106q156 -106 156 -275q0 -249 -168 -249t-172 100t70 100t73 49
q-2 48 -101 115q-98 66 -231 66h-215q-152 0 -312 -229q78 -48 152 -140t74 -167t-75 -147l-156 -164q51 -156 191 -218l222 150q166 115 312 115q145 0 240.5 -90t95.5 -210q0 -197 -126.5 -197t-140.5 91q67 56 67 106q0 100 -136 100q-117 0 -213 -75l-287 -225
q-120 0 -302 155q-162 194 -162 362zM500 1143v-643q0 -90 100 -175t100 -160q0 -165 -115 -165q-105 0 -195 85t-90 315v1100h86q234 -264 314 -227q-20 -143 -92 -167q-43 -15 -108 37zM40 2554q70 0 184 -233l128 -261l208 -24q88 -10 88 -99q0 -10 -1 -21l-21 -219
q-10 -97 -90 -97q-9 0 -20 1l-198 27q-99 13 -87 78q13 65 116 53l103 -13l8 94l-227 23l-139 329q-92 217 -92 304q0 45 24 55q8 3 16 3z" />
    <glyph glyph-name="glyph456" horiz-adv-x="2600" 
d="M1350 645v-155q0 -270 -90 -380t-195 -110q-115 0 -115 165q0 75 100 160t100 175v376q0 136 -200 176l286 448q284 -194 364 -157q-20 -143 -92.5 -167.5t-258.5 73.5l-58 -85q159 -82 159 -218v-101h750v31q0 136 -200 176l286 448q234 -194 314 -157
q-20 -143 -82.5 -167.5t-218.5 73.5l-58 -85q159 -82 159 -218v-456q0 -270 -90 -380t-195 -110q-115 0 -115 165q0 75 100 160t100 175v145h-750zM500 1143v-643q0 -90 100 -175t100 -160q0 -165 -115 -165q-105 0 -195 85t-90 315v1100h86q234 -264 314 -227
q-20 -143 -92 -167q-43 -15 -108 37zM40 2554q70 0 184 -233l128 -261l208 -24q88 -10 88 -99q0 -10 -1 -21l-21 -219q-10 -97 -90 -97q-9 0 -20 1l-198 27q-99 13 -87 78q13 65 116 53l103 -13l8 94l-227 23l-139 329q-92 217 -92 304q0 45 24 55q8 3 16 3z" />
    <glyph glyph-name="glyph457" horiz-adv-x="3550" 
d="M1300 370q20 -140 87 -170q36 0 59.5 72t23.5 128q0 80 -63 80q-107 0 -107 -110zM2300 1000v-900q0 -100 -81 -100q-82 0 -175.5 55t-93.5 138t75 155t75 152v603l-161 132l-240 -165l-240 165l-159 -132v-477q31 44 107 44q263 0 263 -270q0 -155 -88.5 -277.5
t-194.5 -122.5q-97 0 -192 122.5t-95 247.5v765q0 76 87 150l258 215l254 -178l253 178l259 -215q27 -22 45 -44q316 259 369 259q59 0 625 -360v-1040q0 -100 -81 -100q-82 0 -175.5 55t-93.5 138t75 155t75 152v532l-431 245zM500 1143v-643q0 -90 100 -175t100 -160
q0 -165 -115 -165q-105 0 -195 85t-90 315v1100h86q234 -264 314 -227q-20 -143 -92 -167q-43 -15 -108 37zM40 2554q70 0 184 -233l128 -261l208 -24q88 -10 88 -99q0 -10 -1 -21l-21 -219q-10 -97 -90 -97q-9 0 -20 1l-198 27q-99 13 -87 78q13 65 116 53l103 -13l8 94
l-227 23l-139 329q-92 217 -92 304q0 45 24 55q8 3 16 3z" />
    <glyph glyph-name="glyph458" horiz-adv-x="3500" 
d="M1000 1230q599 270 659 270t486 -186q431 186 493 186q60 0 216 -80.5t446 -139.5q-24 -180 -147.5 -170t-520.5 187l-487 -206l-484 209l-352 -151l53 -60l-168 -78l-194 164v55zM3200 100q0 -100 -81 -100q-82 0 -175.5 55t-93.5 138t75 155t75 152v228l-380 199
l-370 -199v-628q0 -100 -81 -100q-82 0 -175.5 55t-93.5 138t75 155t75 152v228l-380 199l-370 -199v-248q0 -40 103.5 -127t63.5 -220t-135 -133t-163.5 75t-68.5 215v488q0 78 71 117l499 235l480 -224l470 224l499 -235q81 -39 81 -117v-678zM500 -400q150 -200 360 -350
h680q197 141 292 259q72 93 151 36q36 -26 36 -66q0 -46 -49 -112q-114 -147 -370 -317h-800q-300 200 -500 500v2850q200 300 500 500h800q256 -170 370 -317q49 -66 49 -112q0 -40 -36 -66q-79 -57 -151 36q-95 118 -292 259h-680q-210 -150 -360 -350v-2750z" />
    <glyph glyph-name="glyph459" horiz-adv-x="2600" 
d="M1000 1270l250 170q84 60 120 60q37 0 327 -106q238 106 276 106q36 0 143.5 -60.5t283.5 -119.5q-108 -172 -198 -141q-91 30 -239 128l-266 -126l-308 109l-152 -101l50 -80l-114 -58l-173 164v55zM1100 788q0 78 75 117l525 255l525 -255q75 -39 75 -117v-688
q0 -100 -81 -100q-82 0 -175.5 55t-93.5 138t75 155t75 152v238l-400 199l-400 -199v-258q0 -40 103.5 -127t63.5 -220t-135 -133t-163.5 75t-68.5 215v498zM500 -400q150 -200 360 -350h680q197 141 292 259q72 93 151 36q36 -26 36 -66q0 -46 -49 -112
q-114 -147 -370 -317h-800q-300 200 -500 500v2850q200 300 500 500h800q256 -170 370 -317q49 -66 49 -112q0 -40 -36 -66q-79 -57 -151 36q-95 118 -292 259h-680q-210 -150 -360 -350v-2750z" />
    <glyph glyph-name="glyph460" horiz-adv-x="2600" 
d="M1431 1836q0 -48 39.5 -69t150.5 -21q138 0 224 113t125.5 205t59.5 180t75 88t55 -107t-44.5 -265.5t-170 -281t-324.5 -122.5q-140 0 -260 65t-120 185q8 103 101 92.5t89 -62.5zM1244 1071q78 -48 152 -140t74 -167t-75 -147l-156 -164q51 -156 151 -218l333 264
l240 -259q41 0 92.5 67t104.5 130t96.5 63t43.5 -86t-106.5 -250t-228.5 -164q-66 0 -256 226l-285 -226q-120 0 -272 174.5t-152 342.5l258 235q-95 185 -258 254q0 83 87 199q219 295 469 295h215q216 0 373 -106q156 -106 156 -275q0 -249 -168 -249t-172 100t70 100
t73 49q-2 48 -101 115q-98 66 -231 66h-215q-152 0 -312 -229zM500 -400q150 -200 360 -350h680q197 141 292 259q72 93 151 36q36 -26 36 -66q0 -46 -49 -112q-114 -147 -370 -317h-800q-300 200 -500 500v2850q200 300 500 500h800q256 -170 370 -317q49 -66 49 -112
q0 -40 -36 -66q-79 -57 -151 36q-95 118 -292 259h-680q-210 -150 -360 -350v-2750z" />
    </font>
</defs>
</svg>
